solid OpenSCAD_Model
  facet normal -1 0 0
    outer loop
      vertex 100 60 0
      vertex 100 96.6 1.6
      vertex 100 96.6 0
    endloop
  endfacet
  facet normal -1 -0 0
    outer loop
      vertex 100 96.6 1.6
      vertex 100 60 0
      vertex 100 60 1.6
    endloop
  endfacet
  facet normal 0 0 1
    outer loop
      vertex 179.1 96.6 1.6
      vertex 143.45 78.3 1.6
      vertex 179.1 60 1.6
    endloop
  endfacet
  facet normal 0 0 1
    outer loop
      vertex 179.1 96.6 1.6
      vertex 143.419 78.7888 1.6
      vertex 143.45 78.3 1.6
    endloop
  endfacet
  facet normal 0 0 1
    outer loop
      vertex 179.1 96.6 1.6
      vertex 143.327 79.2699 1.6
      vertex 143.419 78.7888 1.6
    endloop
  endfacet
  facet normal 0 0 1
    outer loop
      vertex 179.1 96.6 1.6
      vertex 143.176 79.7357 1.6
      vertex 143.327 79.2699 1.6
    endloop
  endfacet
  facet normal 0 0 1
    outer loop
      vertex 179.1 96.6 1.6
      vertex 142.968 80.1788 1.6
      vertex 143.176 79.7357 1.6
    endloop
  endfacet
  facet normal 0 0 1
    outer loop
      vertex 179.1 96.6 1.6
      vertex 142.705 80.5924 1.6
      vertex 142.968 80.1788 1.6
    endloop
  endfacet
  facet normal 0 0 1
    outer loop
      vertex 179.1 96.6 1.6
      vertex 142.393 80.9697 1.6
      vertex 142.705 80.5924 1.6
    endloop
  endfacet
  facet normal 0 0 1
    outer loop
      vertex 179.1 96.6 1.6
      vertex 142.036 81.305 1.6
      vertex 142.393 80.9697 1.6
    endloop
  endfacet
  facet normal 0 0 1
    outer loop
      vertex 179.1 96.6 1.6
      vertex 141.64 81.5929 1.6
      vertex 142.036 81.305 1.6
    endloop
  endfacet
  facet normal 0 0 1
    outer loop
      vertex 179.1 96.6 1.6
      vertex 141.211 81.8288 1.6
      vertex 141.64 81.5929 1.6
    endloop
  endfacet
  facet normal 0 0 1
    outer loop
      vertex 179.1 96.6 1.6
      vertex 140.755 82.0091 1.6
      vertex 141.211 81.8288 1.6
    endloop
  endfacet
  facet normal 0 0 1
    outer loop
      vertex 179.1 96.6 1.6
      vertex 140.281 82.1309 1.6
      vertex 140.755 82.0091 1.6
    endloop
  endfacet
  facet normal 0 0 1
    outer loop
      vertex 179.1 96.6 1.6
      vertex 139.795 82.1923 1.6
      vertex 140.281 82.1309 1.6
    endloop
  endfacet
  facet normal 0 0 1
    outer loop
      vertex 179.1 96.6 1.6
      vertex 139.305 82.1923 1.6
      vertex 139.795 82.1923 1.6
    endloop
  endfacet
  facet normal -0 0 1
    outer loop
      vertex 100 96.6 1.6
      vertex 139.305 82.1923 1.6
      vertex 179.1 96.6 1.6
    endloop
  endfacet
  facet normal 0 0 1
    outer loop
      vertex 139.305 82.1923 1.6
      vertex 100 96.6 1.6
      vertex 138.819 82.1309 1.6
    endloop
  endfacet
  facet normal 0 0 1
    outer loop
      vertex 135.681 78.7888 1.6
      vertex 100 96.6 1.6
      vertex 135.65 78.3 1.6
    endloop
  endfacet
  facet normal 0 0 1
    outer loop
      vertex 135.773 79.2699 1.6
      vertex 100 96.6 1.6
      vertex 135.681 78.7888 1.6
    endloop
  endfacet
  facet normal 0 0 1
    outer loop
      vertex 135.924 79.7357 1.6
      vertex 100 96.6 1.6
      vertex 135.773 79.2699 1.6
    endloop
  endfacet
  facet normal 0 0 1
    outer loop
      vertex 136.132 80.1788 1.6
      vertex 100 96.6 1.6
      vertex 135.924 79.7357 1.6
    endloop
  endfacet
  facet normal 0 0 1
    outer loop
      vertex 136.395 80.5924 1.6
      vertex 100 96.6 1.6
      vertex 136.132 80.1788 1.6
    endloop
  endfacet
  facet normal 0 0 1
    outer loop
      vertex 136.707 80.9697 1.6
      vertex 100 96.6 1.6
      vertex 136.395 80.5924 1.6
    endloop
  endfacet
  facet normal 0 0 1
    outer loop
      vertex 137.064 81.305 1.6
      vertex 100 96.6 1.6
      vertex 136.707 80.9697 1.6
    endloop
  endfacet
  facet normal 0 0 1
    outer loop
      vertex 137.46 81.5929 1.6
      vertex 100 96.6 1.6
      vertex 137.064 81.305 1.6
    endloop
  endfacet
  facet normal 0 0 1
    outer loop
      vertex 137.889 81.8288 1.6
      vertex 100 96.6 1.6
      vertex 137.46 81.5929 1.6
    endloop
  endfacet
  facet normal 0 0 1
    outer loop
      vertex 138.345 82.0091 1.6
      vertex 100 96.6 1.6
      vertex 137.889 81.8288 1.6
    endloop
  endfacet
  facet normal 0 0 1
    outer loop
      vertex 138.819 82.1309 1.6
      vertex 100 96.6 1.6
      vertex 138.345 82.0091 1.6
    endloop
  endfacet
  facet normal -0 0 1
    outer loop
      vertex 143.419 77.8112 1.6
      vertex 179.1 60 1.6
      vertex 143.45 78.3 1.6
    endloop
  endfacet
  facet normal -0 0 1
    outer loop
      vertex 143.327 77.3301 1.6
      vertex 179.1 60 1.6
      vertex 143.419 77.8112 1.6
    endloop
  endfacet
  facet normal -0 0 1
    outer loop
      vertex 143.176 76.8643 1.6
      vertex 179.1 60 1.6
      vertex 143.327 77.3301 1.6
    endloop
  endfacet
  facet normal -0 0 1
    outer loop
      vertex 142.968 76.4212 1.6
      vertex 179.1 60 1.6
      vertex 143.176 76.8643 1.6
    endloop
  endfacet
  facet normal -0 0 1
    outer loop
      vertex 142.705 76.0076 1.6
      vertex 179.1 60 1.6
      vertex 142.968 76.4212 1.6
    endloop
  endfacet
  facet normal -0 0 1
    outer loop
      vertex 142.393 75.6303 1.6
      vertex 179.1 60 1.6
      vertex 142.705 76.0076 1.6
    endloop
  endfacet
  facet normal -0 0 1
    outer loop
      vertex 142.036 75.295 1.6
      vertex 179.1 60 1.6
      vertex 142.393 75.6303 1.6
    endloop
  endfacet
  facet normal -0 0 1
    outer loop
      vertex 141.64 75.0071 1.6
      vertex 179.1 60 1.6
      vertex 142.036 75.295 1.6
    endloop
  endfacet
  facet normal -0 0 1
    outer loop
      vertex 141.211 74.7712 1.6
      vertex 179.1 60 1.6
      vertex 141.64 75.0071 1.6
    endloop
  endfacet
  facet normal -0 0 1
    outer loop
      vertex 140.755 74.5909 1.6
      vertex 179.1 60 1.6
      vertex 141.211 74.7712 1.6
    endloop
  endfacet
  facet normal -0 0 1
    outer loop
      vertex 140.281 74.4691 1.6
      vertex 179.1 60 1.6
      vertex 140.755 74.5909 1.6
    endloop
  endfacet
  facet normal -0 0 1
    outer loop
      vertex 139.795 74.4077 1.6
      vertex 179.1 60 1.6
      vertex 140.281 74.4691 1.6
    endloop
  endfacet
  facet normal -0 0 1
    outer loop
      vertex 139.305 74.4077 1.6
      vertex 179.1 60 1.6
      vertex 139.795 74.4077 1.6
    endloop
  endfacet
  facet normal 0 0 1
    outer loop
      vertex 100 60 1.6
      vertex 139.305 74.4077 1.6
      vertex 138.819 74.4691 1.6
    endloop
  endfacet
  facet normal 0 0 1
    outer loop
      vertex 100 60 1.6
      vertex 138.819 74.4691 1.6
      vertex 138.345 74.5909 1.6
    endloop
  endfacet
  facet normal 0 0 1
    outer loop
      vertex 100 60 1.6
      vertex 135.65 78.3 1.6
      vertex 100 96.6 1.6
    endloop
  endfacet
  facet normal 0 0 1
    outer loop
      vertex 135.65 78.3 1.6
      vertex 100 60 1.6
      vertex 135.681 77.8112 1.6
    endloop
  endfacet
  facet normal 0 0 1
    outer loop
      vertex 135.681 77.8112 1.6
      vertex 100 60 1.6
      vertex 135.773 77.3301 1.6
    endloop
  endfacet
  facet normal 0 0 1
    outer loop
      vertex 135.773 77.3301 1.6
      vertex 100 60 1.6
      vertex 135.924 76.8643 1.6
    endloop
  endfacet
  facet normal 0 0 1
    outer loop
      vertex 135.924 76.8643 1.6
      vertex 100 60 1.6
      vertex 136.132 76.4212 1.6
    endloop
  endfacet
  facet normal 0 0 1
    outer loop
      vertex 136.132 76.4212 1.6
      vertex 100 60 1.6
      vertex 136.395 76.0076 1.6
    endloop
  endfacet
  facet normal 0 0 1
    outer loop
      vertex 136.395 76.0076 1.6
      vertex 100 60 1.6
      vertex 136.707 75.6303 1.6
    endloop
  endfacet
  facet normal 0 0 1
    outer loop
      vertex 136.707 75.6303 1.6
      vertex 100 60 1.6
      vertex 137.064 75.295 1.6
    endloop
  endfacet
  facet normal 0 0 1
    outer loop
      vertex 139.305 74.4077 1.6
      vertex 100 60 1.6
      vertex 179.1 60 1.6
    endloop
  endfacet
  facet normal 0 0 1
    outer loop
      vertex 137.889 74.7712 1.6
      vertex 100 60 1.6
      vertex 138.345 74.5909 1.6
    endloop
  endfacet
  facet normal 0 0 1
    outer loop
      vertex 137.46 75.0071 1.6
      vertex 100 60 1.6
      vertex 137.889 74.7712 1.6
    endloop
  endfacet
  facet normal 0 0 1
    outer loop
      vertex 137.064 75.295 1.6
      vertex 100 60 1.6
      vertex 137.46 75.0071 1.6
    endloop
  endfacet
  facet normal 1 -0 0
    outer loop
      vertex 179.1 60 1.6
      vertex 179.1 96.6 0
      vertex 179.1 96.6 1.6
    endloop
  endfacet
  facet normal 1 0 0
    outer loop
      vertex 179.1 96.6 0
      vertex 179.1 60 1.6
      vertex 179.1 60 0
    endloop
  endfacet
  facet normal 0 0 -1
    outer loop
      vertex 179.1 60 0
      vertex 143.45 78.3 0
      vertex 179.1 96.6 0
    endloop
  endfacet
  facet normal 0 0 -1
    outer loop
      vertex 179.1 60 0
      vertex 143.419 77.8112 0
      vertex 143.45 78.3 0
    endloop
  endfacet
  facet normal 0 0 -1
    outer loop
      vertex 179.1 60 0
      vertex 143.327 77.3301 0
      vertex 143.419 77.8112 0
    endloop
  endfacet
  facet normal 0 0 -1
    outer loop
      vertex 179.1 60 0
      vertex 143.176 76.8643 0
      vertex 143.327 77.3301 0
    endloop
  endfacet
  facet normal 0 0 -1
    outer loop
      vertex 179.1 60 0
      vertex 142.968 76.4212 0
      vertex 143.176 76.8643 0
    endloop
  endfacet
  facet normal 0 0 -1
    outer loop
      vertex 179.1 60 0
      vertex 142.705 76.0076 0
      vertex 142.968 76.4212 0
    endloop
  endfacet
  facet normal 0 0 -1
    outer loop
      vertex 179.1 60 0
      vertex 142.393 75.6303 0
      vertex 142.705 76.0076 0
    endloop
  endfacet
  facet normal 0 0 -1
    outer loop
      vertex 179.1 60 0
      vertex 142.036 75.295 0
      vertex 142.393 75.6303 0
    endloop
  endfacet
  facet normal 0 0 -1
    outer loop
      vertex 179.1 60 0
      vertex 141.64 75.0071 0
      vertex 142.036 75.295 0
    endloop
  endfacet
  facet normal 0 0 -1
    outer loop
      vertex 179.1 60 0
      vertex 141.211 74.7712 0
      vertex 141.64 75.0071 0
    endloop
  endfacet
  facet normal 0 0 -1
    outer loop
      vertex 179.1 60 0
      vertex 140.755 74.5909 0
      vertex 141.211 74.7712 0
    endloop
  endfacet
  facet normal 0 0 -1
    outer loop
      vertex 179.1 60 0
      vertex 140.281 74.4691 0
      vertex 140.755 74.5909 0
    endloop
  endfacet
  facet normal 0 0 -1
    outer loop
      vertex 179.1 60 0
      vertex 139.795 74.4077 0
      vertex 140.281 74.4691 0
    endloop
  endfacet
  facet normal 0 0 -1
    outer loop
      vertex 179.1 60 0
      vertex 139.305 74.4077 0
      vertex 139.795 74.4077 0
    endloop
  endfacet
  facet normal 0 0 -1
    outer loop
      vertex 100 60 0
      vertex 139.305 74.4077 0
      vertex 179.1 60 0
    endloop
  endfacet
  facet normal -0 0 -1
    outer loop
      vertex 139.305 74.4077 0
      vertex 100 60 0
      vertex 138.819 74.4691 0
    endloop
  endfacet
  facet normal -0 0 -1
    outer loop
      vertex 135.681 77.8112 0
      vertex 100 60 0
      vertex 135.65 78.3 0
    endloop
  endfacet
  facet normal -0 0 -1
    outer loop
      vertex 135.773 77.3301 0
      vertex 100 60 0
      vertex 135.681 77.8112 0
    endloop
  endfacet
  facet normal -0 0 -1
    outer loop
      vertex 135.924 76.8643 0
      vertex 100 60 0
      vertex 135.773 77.3301 0
    endloop
  endfacet
  facet normal -0 0 -1
    outer loop
      vertex 136.132 76.4212 0
      vertex 100 60 0
      vertex 135.924 76.8643 0
    endloop
  endfacet
  facet normal -0 0 -1
    outer loop
      vertex 136.395 76.0076 0
      vertex 100 60 0
      vertex 136.132 76.4212 0
    endloop
  endfacet
  facet normal -0 0 -1
    outer loop
      vertex 136.707 75.6303 0
      vertex 100 60 0
      vertex 136.395 76.0076 0
    endloop
  endfacet
  facet normal -0 0 -1
    outer loop
      vertex 137.064 75.295 0
      vertex 100 60 0
      vertex 136.707 75.6303 0
    endloop
  endfacet
  facet normal -0 0 -1
    outer loop
      vertex 137.46 75.0071 0
      vertex 100 60 0
      vertex 137.064 75.295 0
    endloop
  endfacet
  facet normal -0 0 -1
    outer loop
      vertex 137.889 74.7712 0
      vertex 100 60 0
      vertex 137.46 75.0071 0
    endloop
  endfacet
  facet normal -0 0 -1
    outer loop
      vertex 138.345 74.5909 0
      vertex 100 60 0
      vertex 137.889 74.7712 0
    endloop
  endfacet
  facet normal -0 0 -1
    outer loop
      vertex 138.819 74.4691 0
      vertex 100 60 0
      vertex 138.345 74.5909 0
    endloop
  endfacet
  facet normal 0 0 -1
    outer loop
      vertex 143.419 78.7888 0
      vertex 179.1 96.6 0
      vertex 143.45 78.3 0
    endloop
  endfacet
  facet normal 0 0 -1
    outer loop
      vertex 143.327 79.2699 0
      vertex 179.1 96.6 0
      vertex 143.419 78.7888 0
    endloop
  endfacet
  facet normal 0 0 -1
    outer loop
      vertex 143.176 79.7357 0
      vertex 179.1 96.6 0
      vertex 143.327 79.2699 0
    endloop
  endfacet
  facet normal 0 0 -1
    outer loop
      vertex 142.968 80.1788 0
      vertex 179.1 96.6 0
      vertex 143.176 79.7357 0
    endloop
  endfacet
  facet normal 0 0 -1
    outer loop
      vertex 142.705 80.5924 0
      vertex 179.1 96.6 0
      vertex 142.968 80.1788 0
    endloop
  endfacet
  facet normal 0 0 -1
    outer loop
      vertex 142.393 80.9697 0
      vertex 179.1 96.6 0
      vertex 142.705 80.5924 0
    endloop
  endfacet
  facet normal 0 0 -1
    outer loop
      vertex 142.036 81.305 0
      vertex 179.1 96.6 0
      vertex 142.393 80.9697 0
    endloop
  endfacet
  facet normal 0 0 -1
    outer loop
      vertex 141.64 81.5929 0
      vertex 179.1 96.6 0
      vertex 142.036 81.305 0
    endloop
  endfacet
  facet normal 0 0 -1
    outer loop
      vertex 141.211 81.8288 0
      vertex 179.1 96.6 0
      vertex 141.64 81.5929 0
    endloop
  endfacet
  facet normal 0 0 -1
    outer loop
      vertex 140.755 82.0091 0
      vertex 179.1 96.6 0
      vertex 141.211 81.8288 0
    endloop
  endfacet
  facet normal 0 0 -1
    outer loop
      vertex 140.281 82.1309 0
      vertex 179.1 96.6 0
      vertex 140.755 82.0091 0
    endloop
  endfacet
  facet normal 0 0 -1
    outer loop
      vertex 139.795 82.1923 0
      vertex 179.1 96.6 0
      vertex 140.281 82.1309 0
    endloop
  endfacet
  facet normal 0 0 -1
    outer loop
      vertex 139.305 82.1923 0
      vertex 179.1 96.6 0
      vertex 139.795 82.1923 0
    endloop
  endfacet
  facet normal 0 0 -1
    outer loop
      vertex 100 96.6 0
      vertex 139.305 82.1923 0
      vertex 138.819 82.1309 0
    endloop
  endfacet
  facet normal 0 0 -1
    outer loop
      vertex 100 96.6 0
      vertex 138.819 82.1309 0
      vertex 138.345 82.0091 0
    endloop
  endfacet
  facet normal 0 0 -1
    outer loop
      vertex 100 96.6 0
      vertex 135.65 78.3 0
      vertex 100 60 0
    endloop
  endfacet
  facet normal 0 0 -1
    outer loop
      vertex 135.65 78.3 0
      vertex 100 96.6 0
      vertex 135.681 78.7888 0
    endloop
  endfacet
  facet normal 0 0 -1
    outer loop
      vertex 135.681 78.7888 0
      vertex 100 96.6 0
      vertex 135.773 79.2699 0
    endloop
  endfacet
  facet normal 0 0 -1
    outer loop
      vertex 135.773 79.2699 0
      vertex 100 96.6 0
      vertex 135.924 79.7357 0
    endloop
  endfacet
  facet normal 0 0 -1
    outer loop
      vertex 135.924 79.7357 0
      vertex 100 96.6 0
      vertex 136.132 80.1788 0
    endloop
  endfacet
  facet normal 0 0 -1
    outer loop
      vertex 136.132 80.1788 0
      vertex 100 96.6 0
      vertex 136.395 80.5924 0
    endloop
  endfacet
  facet normal 0 0 -1
    outer loop
      vertex 136.395 80.5924 0
      vertex 100 96.6 0
      vertex 136.707 80.9697 0
    endloop
  endfacet
  facet normal 0 0 -1
    outer loop
      vertex 136.707 80.9697 0
      vertex 100 96.6 0
      vertex 137.064 81.305 0
    endloop
  endfacet
  facet normal 0 0 -1
    outer loop
      vertex 139.305 82.1923 0
      vertex 100 96.6 0
      vertex 179.1 96.6 0
    endloop
  endfacet
  facet normal 0 0 -1
    outer loop
      vertex 137.889 81.8288 0
      vertex 100 96.6 0
      vertex 138.345 82.0091 0
    endloop
  endfacet
  facet normal 0 0 -1
    outer loop
      vertex 137.46 81.5929 0
      vertex 100 96.6 0
      vertex 137.889 81.8288 0
    endloop
  endfacet
  facet normal 0 0 -1
    outer loop
      vertex 137.064 81.305 0
      vertex 100 96.6 0
      vertex 137.46 81.5929 0
    endloop
  endfacet
  facet normal 0 -1 0
    outer loop
      vertex 100 60 0
      vertex 179.1 60 1.6
      vertex 100 60 1.6
    endloop
  endfacet
  facet normal 0 -1 -0
    outer loop
      vertex 179.1 60 1.6
      vertex 100 60 0
      vertex 179.1 60 0
    endloop
  endfacet
  facet normal 0 1 -0
    outer loop
      vertex 179.1 96.6 0
      vertex 100 96.6 1.6
      vertex 179.1 96.6 1.6
    endloop
  endfacet
  facet normal 0 1 0
    outer loop
      vertex 100 96.6 1.6
      vertex 179.1 96.6 0
      vertex 100 96.6 0
    endloop
  endfacet
  facet normal -0.998028 -0.0627778 0
    outer loop
      vertex 143.45 78.3 0
      vertex 143.419 78.7888 1.6
      vertex 143.419 78.7888 0
    endloop
  endfacet
  facet normal -0.998028 -0.0627778 0
    outer loop
      vertex 143.419 78.7888 1.6
      vertex 143.45 78.3 0
      vertex 143.45 78.3 1.6
    endloop
  endfacet
  facet normal 0 -1 0
    outer loop
      vertex 139.305 82.1923 0
      vertex 139.795 82.1923 1.6
      vertex 139.305 82.1923 1.6
    endloop
  endfacet
  facet normal 0 -1 -0
    outer loop
      vertex 139.795 82.1923 1.6
      vertex 139.305 82.1923 0
      vertex 139.795 82.1923 0
    endloop
  endfacet
  facet normal 0 1 -0
    outer loop
      vertex 139.795 74.4077 0
      vertex 139.305 74.4077 1.6
      vertex 139.795 74.4077 1.6
    endloop
  endfacet
  facet normal 0 1 0
    outer loop
      vertex 139.305 74.4077 1.6
      vertex 139.795 74.4077 0
      vertex 139.305 74.4077 0
    endloop
  endfacet
  facet normal -0.684544 -0.728971 0
    outer loop
      vertex 142.036 81.305 0
      vertex 142.393 80.9697 1.6
      vertex 142.036 81.305 1.6
    endloop
  endfacet
  facet normal -0.684544 -0.728971 -0
    outer loop
      vertex 142.393 80.9697 1.6
      vertex 142.036 81.305 0
      vertex 142.393 80.9697 0
    endloop
  endfacet
  facet normal 0.684544 -0.728971 0
    outer loop
      vertex 136.707 80.9697 0
      vertex 137.064 81.305 1.6
      vertex 136.707 80.9697 1.6
    endloop
  endfacet
  facet normal 0.684544 -0.728971 0
    outer loop
      vertex 137.064 81.305 1.6
      vertex 136.707 80.9697 0
      vertex 137.064 81.305 0
    endloop
  endfacet
  facet normal 0.36812 -0.929778 0
    outer loop
      vertex 137.889 81.8288 0
      vertex 138.345 82.0091 1.6
      vertex 137.889 81.8288 1.6
    endloop
  endfacet
  facet normal 0.36812 -0.929778 0
    outer loop
      vertex 138.345 82.0091 1.6
      vertex 137.889 81.8288 0
      vertex 138.345 82.0091 0
    endloop
  endfacet
  facet normal 0.951053 0.309027 0
    outer loop
      vertex 135.924 76.8643 1.6
      vertex 135.773 77.3301 0
      vertex 135.773 77.3301 1.6
    endloop
  endfacet
  facet normal 0.951053 0.309027 0
    outer loop
      vertex 135.773 77.3301 0
      vertex 135.924 76.8643 1.6
      vertex 135.924 76.8643 0
    endloop
  endfacet
  facet normal -0.904819 -0.425796 0
    outer loop
      vertex 143.176 79.7357 0
      vertex 142.968 80.1788 1.6
      vertex 142.968 80.1788 0
    endloop
  endfacet
  facet normal -0.904819 -0.425796 0
    outer loop
      vertex 142.968 80.1788 1.6
      vertex 143.176 79.7357 0
      vertex 143.176 79.7357 1.6
    endloop
  endfacet
  facet normal -0.844335 -0.535816 0
    outer loop
      vertex 142.968 80.1788 0
      vertex 142.705 80.5924 1.6
      vertex 142.705 80.5924 0
    endloop
  endfacet
  facet normal -0.844335 -0.535816 0
    outer loop
      vertex 142.705 80.5924 1.6
      vertex 142.968 80.1788 0
      vertex 142.968 80.1788 1.6
    endloop
  endfacet
  facet normal -0.36812 -0.929778 0
    outer loop
      vertex 140.755 82.0091 0
      vertex 141.211 81.8288 1.6
      vertex 140.755 82.0091 1.6
    endloop
  endfacet
  facet normal -0.36812 -0.929778 -0
    outer loop
      vertex 141.211 81.8288 1.6
      vertex 140.755 82.0091 0
      vertex 141.211 81.8288 0
    endloop
  endfacet
  facet normal -0.481755 -0.876306 0
    outer loop
      vertex 141.211 81.8288 0
      vertex 141.64 81.5929 1.6
      vertex 141.211 81.8288 1.6
    endloop
  endfacet
  facet normal -0.481755 -0.876306 -0
    outer loop
      vertex 141.64 81.5929 1.6
      vertex 141.211 81.8288 0
      vertex 141.64 81.5929 0
    endloop
  endfacet
  facet normal 0.904831 -0.42577 0
    outer loop
      vertex 135.924 79.7357 1.6
      vertex 136.132 80.1788 0
      vertex 136.132 80.1788 1.6
    endloop
  endfacet
  facet normal 0.904831 -0.42577 0
    outer loop
      vertex 136.132 80.1788 0
      vertex 135.924 79.7357 1.6
      vertex 135.924 79.7357 0
    endloop
  endfacet
  facet normal 0.844321 -0.535838 0
    outer loop
      vertex 136.132 80.1788 1.6
      vertex 136.395 80.5924 0
      vertex 136.395 80.5924 1.6
    endloop
  endfacet
  facet normal 0.844321 -0.535838 0
    outer loop
      vertex 136.395 80.5924 0
      vertex 136.132 80.1788 1.6
      vertex 136.132 80.1788 0
    endloop
  endfacet
  facet normal 0.982289 -0.18737 0
    outer loop
      vertex 135.681 78.7888 1.6
      vertex 135.773 79.2699 0
      vertex 135.773 79.2699 1.6
    endloop
  endfacet
  facet normal 0.982289 -0.18737 0
    outer loop
      vertex 135.773 79.2699 0
      vertex 135.681 78.7888 1.6
      vertex 135.681 78.7888 0
    endloop
  endfacet
  facet normal 0.481755 -0.876306 0
    outer loop
      vertex 137.46 81.5929 0
      vertex 137.889 81.8288 1.6
      vertex 137.46 81.5929 1.6
    endloop
  endfacet
  facet normal 0.481755 -0.876306 0
    outer loop
      vertex 137.889 81.8288 1.6
      vertex 137.46 81.5929 0
      vertex 137.889 81.8288 0
    endloop
  endfacet
  facet normal 0.248696 -0.968582 0
    outer loop
      vertex 138.345 82.0091 0
      vertex 138.819 82.1309 1.6
      vertex 138.345 82.0091 1.6
    endloop
  endfacet
  facet normal 0.248696 -0.968582 0
    outer loop
      vertex 138.819 82.1309 1.6
      vertex 138.345 82.0091 0
      vertex 138.819 82.1309 0
    endloop
  endfacet
  facet normal -0.248696 0.968582 0
    outer loop
      vertex 140.755 74.5909 0
      vertex 140.281 74.4691 1.6
      vertex 140.755 74.5909 1.6
    endloop
  endfacet
  facet normal -0.248696 0.968582 0
    outer loop
      vertex 140.281 74.4691 1.6
      vertex 140.755 74.5909 0
      vertex 140.281 74.4691 0
    endloop
  endfacet
  facet normal -0.125334 0.992115 0
    outer loop
      vertex 140.281 74.4691 0
      vertex 139.795 74.4077 1.6
      vertex 140.281 74.4691 1.6
    endloop
  endfacet
  facet normal -0.125334 0.992115 0
    outer loop
      vertex 139.795 74.4077 1.6
      vertex 140.281 74.4691 0
      vertex 139.795 74.4077 0
    endloop
  endfacet
  facet normal -0.770508 0.63743 0
    outer loop
      vertex 142.393 75.6303 0
      vertex 142.705 76.0076 1.6
      vertex 142.705 76.0076 0
    endloop
  endfacet
  facet normal -0.770508 0.63743 0
    outer loop
      vertex 142.705 76.0076 1.6
      vertex 142.393 75.6303 0
      vertex 142.393 75.6303 1.6
    endloop
  endfacet
  facet normal 0.587778 0.809022 -0
    outer loop
      vertex 137.46 75.0071 0
      vertex 137.064 75.295 1.6
      vertex 137.46 75.0071 1.6
    endloop
  endfacet
  facet normal 0.587778 0.809022 0
    outer loop
      vertex 137.064 75.295 1.6
      vertex 137.46 75.0071 0
      vertex 137.064 75.295 0
    endloop
  endfacet
  facet normal 0.248696 0.968582 -0
    outer loop
      vertex 138.819 74.4691 0
      vertex 138.345 74.5909 1.6
      vertex 138.819 74.4691 1.6
    endloop
  endfacet
  facet normal 0.248696 0.968582 0
    outer loop
      vertex 138.345 74.5909 1.6
      vertex 138.819 74.4691 0
      vertex 138.345 74.5909 0
    endloop
  endfacet
  facet normal 0.684544 0.728971 -0
    outer loop
      vertex 137.064 75.295 0
      vertex 136.707 75.6303 1.6
      vertex 137.064 75.295 1.6
    endloop
  endfacet
  facet normal 0.684544 0.728971 0
    outer loop
      vertex 136.707 75.6303 1.6
      vertex 137.064 75.295 0
      vertex 136.707 75.6303 0
    endloop
  endfacet
  facet normal 0.98229 0.187367 0
    outer loop
      vertex 135.773 77.3301 1.6
      vertex 135.681 77.8112 0
      vertex 135.681 77.8112 1.6
    endloop
  endfacet
  facet normal 0.98229 0.187367 0
    outer loop
      vertex 135.681 77.8112 0
      vertex 135.773 77.3301 1.6
      vertex 135.773 77.3301 0
    endloop
  endfacet
  facet normal -0.951063 -0.308998 0
    outer loop
      vertex 143.327 79.2699 0
      vertex 143.176 79.7357 1.6
      vertex 143.176 79.7357 0
    endloop
  endfacet
  facet normal -0.951063 -0.308998 0
    outer loop
      vertex 143.176 79.7357 1.6
      vertex 143.327 79.2699 0
      vertex 143.327 79.2699 1.6
    endloop
  endfacet
  facet normal -0.982284 -0.1874 0
    outer loop
      vertex 143.419 78.7888 0
      vertex 143.327 79.2699 1.6
      vertex 143.327 79.2699 0
    endloop
  endfacet
  facet normal -0.982284 -0.1874 0
    outer loop
      vertex 143.327 79.2699 1.6
      vertex 143.419 78.7888 0
      vertex 143.419 78.7888 1.6
    endloop
  endfacet
  facet normal -0.125334 -0.992115 0
    outer loop
      vertex 139.795 82.1923 0
      vertex 140.281 82.1309 1.6
      vertex 139.795 82.1923 1.6
    endloop
  endfacet
  facet normal -0.125334 -0.992115 -0
    outer loop
      vertex 140.281 82.1309 1.6
      vertex 139.795 82.1923 0
      vertex 140.281 82.1309 0
    endloop
  endfacet
  facet normal -0.587793 -0.809012 0
    outer loop
      vertex 141.64 81.5929 0
      vertex 142.036 81.305 1.6
      vertex 141.64 81.5929 1.6
    endloop
  endfacet
  facet normal -0.587793 -0.809012 -0
    outer loop
      vertex 142.036 81.305 1.6
      vertex 141.64 81.5929 0
      vertex 142.036 81.305 0
    endloop
  endfacet
  facet normal 0.951053 -0.309027 0
    outer loop
      vertex 135.773 79.2699 1.6
      vertex 135.924 79.7357 0
      vertex 135.924 79.7357 1.6
    endloop
  endfacet
  facet normal 0.951053 -0.309027 0
    outer loop
      vertex 135.924 79.7357 0
      vertex 135.773 79.2699 1.6
      vertex 135.773 79.2699 0
    endloop
  endfacet
  facet normal 0.998026 -0.0628089 0
    outer loop
      vertex 135.65 78.3 1.6
      vertex 135.681 78.7888 0
      vertex 135.681 78.7888 1.6
    endloop
  endfacet
  facet normal 0.998026 -0.0628089 0
    outer loop
      vertex 135.681 78.7888 0
      vertex 135.65 78.3 1.6
      vertex 135.65 78.3 0
    endloop
  endfacet
  facet normal 0.125338 -0.992114 0
    outer loop
      vertex 138.819 82.1309 0
      vertex 139.305 82.1923 1.6
      vertex 138.819 82.1309 1.6
    endloop
  endfacet
  facet normal 0.125338 -0.992114 0
    outer loop
      vertex 139.305 82.1923 1.6
      vertex 138.819 82.1309 0
      vertex 139.305 82.1923 0
    endloop
  endfacet
  facet normal -0.998028 0.0627778 0
    outer loop
      vertex 143.419 77.8112 0
      vertex 143.45 78.3 1.6
      vertex 143.45 78.3 0
    endloop
  endfacet
  facet normal -0.998028 0.0627778 0
    outer loop
      vertex 143.45 78.3 1.6
      vertex 143.419 77.8112 0
      vertex 143.419 77.8112 1.6
    endloop
  endfacet
  facet normal -0.481755 0.876306 0
    outer loop
      vertex 141.64 75.0071 0
      vertex 141.211 74.7712 1.6
      vertex 141.64 75.0071 1.6
    endloop
  endfacet
  facet normal -0.481755 0.876306 0
    outer loop
      vertex 141.211 74.7712 1.6
      vertex 141.64 75.0071 0
      vertex 141.211 74.7712 0
    endloop
  endfacet
  facet normal -0.684544 0.728971 0
    outer loop
      vertex 142.393 75.6303 0
      vertex 142.036 75.295 1.6
      vertex 142.393 75.6303 1.6
    endloop
  endfacet
  facet normal -0.684544 0.728971 0
    outer loop
      vertex 142.036 75.295 1.6
      vertex 142.393 75.6303 0
      vertex 142.036 75.295 0
    endloop
  endfacet
  facet normal -0.587793 0.809012 0
    outer loop
      vertex 142.036 75.295 0
      vertex 141.64 75.0071 1.6
      vertex 142.036 75.295 1.6
    endloop
  endfacet
  facet normal -0.587793 0.809012 0
    outer loop
      vertex 141.64 75.0071 1.6
      vertex 142.036 75.295 0
      vertex 141.64 75.0071 0
    endloop
  endfacet
  facet normal -0.844335 0.535816 0
    outer loop
      vertex 142.705 76.0076 0
      vertex 142.968 76.4212 1.6
      vertex 142.968 76.4212 0
    endloop
  endfacet
  facet normal -0.844335 0.535816 0
    outer loop
      vertex 142.968 76.4212 1.6
      vertex 142.705 76.0076 0
      vertex 142.705 76.0076 1.6
    endloop
  endfacet
  facet normal -0.982284 0.187397 0
    outer loop
      vertex 143.327 77.3301 0
      vertex 143.419 77.8112 1.6
      vertex 143.419 77.8112 0
    endloop
  endfacet
  facet normal -0.982284 0.187397 0
    outer loop
      vertex 143.419 77.8112 1.6
      vertex 143.327 77.3301 0
      vertex 143.327 77.3301 1.6
    endloop
  endfacet
  facet normal 0.481755 0.876306 -0
    outer loop
      vertex 137.889 74.7712 0
      vertex 137.46 75.0071 1.6
      vertex 137.889 74.7712 1.6
    endloop
  endfacet
  facet normal 0.481755 0.876306 0
    outer loop
      vertex 137.46 75.0071 1.6
      vertex 137.889 74.7712 0
      vertex 137.46 75.0071 0
    endloop
  endfacet
  facet normal 0.36812 0.929778 -0
    outer loop
      vertex 138.345 74.5909 0
      vertex 137.889 74.7712 1.6
      vertex 138.345 74.5909 1.6
    endloop
  endfacet
  facet normal 0.36812 0.929778 0
    outer loop
      vertex 137.889 74.7712 1.6
      vertex 138.345 74.5909 0
      vertex 137.889 74.7712 0
    endloop
  endfacet
  facet normal 0.125338 0.992114 -0
    outer loop
      vertex 139.305 74.4077 0
      vertex 138.819 74.4691 1.6
      vertex 139.305 74.4077 1.6
    endloop
  endfacet
  facet normal 0.125338 0.992114 0
    outer loop
      vertex 138.819 74.4691 1.6
      vertex 139.305 74.4077 0
      vertex 138.819 74.4691 0
    endloop
  endfacet
  facet normal 0.844321 0.535838 0
    outer loop
      vertex 136.395 76.0076 1.6
      vertex 136.132 76.4212 0
      vertex 136.132 76.4212 1.6
    endloop
  endfacet
  facet normal 0.844321 0.535838 0
    outer loop
      vertex 136.132 76.4212 0
      vertex 136.395 76.0076 1.6
      vertex 136.395 76.0076 0
    endloop
  endfacet
  facet normal -0.770508 -0.63743 0
    outer loop
      vertex 142.705 80.5924 0
      vertex 142.393 80.9697 1.6
      vertex 142.393 80.9697 0
    endloop
  endfacet
  facet normal -0.770508 -0.63743 0
    outer loop
      vertex 142.393 80.9697 1.6
      vertex 142.705 80.5924 0
      vertex 142.705 80.5924 1.6
    endloop
  endfacet
  facet normal -0.248696 -0.968582 0
    outer loop
      vertex 140.281 82.1309 0
      vertex 140.755 82.0091 1.6
      vertex 140.281 82.1309 1.6
    endloop
  endfacet
  facet normal -0.248696 -0.968582 -0
    outer loop
      vertex 140.755 82.0091 1.6
      vertex 140.281 82.1309 0
      vertex 140.755 82.0091 0
    endloop
  endfacet
  facet normal 0.770524 -0.637411 0
    outer loop
      vertex 136.395 80.5924 1.6
      vertex 136.707 80.9697 0
      vertex 136.707 80.9697 1.6
    endloop
  endfacet
  facet normal 0.770524 -0.637411 0
    outer loop
      vertex 136.707 80.9697 0
      vertex 136.395 80.5924 1.6
      vertex 136.395 80.5924 0
    endloop
  endfacet
  facet normal 0.998026 0.0628089 0
    outer loop
      vertex 135.681 77.8112 1.6
      vertex 135.65 78.3 0
      vertex 135.65 78.3 1.6
    endloop
  endfacet
  facet normal 0.998026 0.0628089 0
    outer loop
      vertex 135.65 78.3 0
      vertex 135.681 77.8112 1.6
      vertex 135.681 77.8112 0
    endloop
  endfacet
  facet normal 0.587778 -0.809022 0
    outer loop
      vertex 137.064 81.305 0
      vertex 137.46 81.5929 1.6
      vertex 137.064 81.305 1.6
    endloop
  endfacet
  facet normal 0.587778 -0.809022 0
    outer loop
      vertex 137.46 81.5929 1.6
      vertex 137.064 81.305 0
      vertex 137.46 81.5929 0
    endloop
  endfacet
  facet normal -0.36812 0.929778 0
    outer loop
      vertex 141.211 74.7712 0
      vertex 140.755 74.5909 1.6
      vertex 141.211 74.7712 1.6
    endloop
  endfacet
  facet normal -0.36812 0.929778 0
    outer loop
      vertex 140.755 74.5909 1.6
      vertex 141.211 74.7712 0
      vertex 140.755 74.5909 0
    endloop
  endfacet
  facet normal -0.951063 0.308998 0
    outer loop
      vertex 143.176 76.8643 0
      vertex 143.327 77.3301 1.6
      vertex 143.327 77.3301 0
    endloop
  endfacet
  facet normal -0.951063 0.308998 0
    outer loop
      vertex 143.327 77.3301 1.6
      vertex 143.176 76.8643 0
      vertex 143.176 76.8643 1.6
    endloop
  endfacet
  facet normal -0.904819 0.425796 0
    outer loop
      vertex 142.968 76.4212 0
      vertex 143.176 76.8643 1.6
      vertex 143.176 76.8643 0
    endloop
  endfacet
  facet normal -0.904819 0.425796 0
    outer loop
      vertex 143.176 76.8643 1.6
      vertex 142.968 76.4212 0
      vertex 142.968 76.4212 1.6
    endloop
  endfacet
  facet normal 0.770524 0.637411 0
    outer loop
      vertex 136.707 75.6303 1.6
      vertex 136.395 76.0076 0
      vertex 136.395 76.0076 1.6
    endloop
  endfacet
  facet normal 0.770524 0.637411 0
    outer loop
      vertex 136.395 76.0076 0
      vertex 136.707 75.6303 1.6
      vertex 136.707 75.6303 0
    endloop
  endfacet
  facet normal 0.904831 0.42577 0
    outer loop
      vertex 136.132 76.4212 1.6
      vertex 135.924 76.8643 0
      vertex 135.924 76.8643 1.6
    endloop
  endfacet
  facet normal 0.904831 0.42577 0
    outer loop
      vertex 135.924 76.8643 0
      vertex 136.132 76.4212 1.6
      vertex 136.132 76.4212 0
    endloop
  endfacet
endsolid OpenSCAD_Model
