  0
SECTION
  2
HEADER
  9
$ACADVER
  1
AC1014
  9
$HANDSEED
  5
FFFF
  9
$MEASUREMENT
 70
     1
  0
ENDSEC
  0
SECTION
  2
TABLES
  0
TABLE
  2
VPORT
  5
8
330
0
100
AcDbSymbolTable
 70
     4
  0
VPORT
  5
2E
330
8
100
AcDbSymbolTableRecord
100
AcDbViewportTableRecord
  2
*ACTIVE
 70
     0
 10
0.0
 20
0.0
 11
1.0
 21
1.0
 12
210.0
 22
148.5
 13
0.0
 23
0.0
 14
10.0
 24
10.0
 15
10.0
 25
10.0
 16
0.0
 26
0.0
 36
1.0
 17
0.0
 27
0.0
 37
0.0
 40
341.0
 41
1.24
 42
50.0
 43
0.0
 44
0.0
 50
0.0
 51
0.0
 71
     0
 72
   100
 73
     1
 74
     3
 75
     0
 76
     0
 77
     0
 78
     0
  0
ENDTAB
  0
TABLE
  2
LTYPE
  5
5
330
0
100
AcDbSymbolTable
 70
     1
  0
LTYPE
  5
14
330
5
100
AcDbSymbolTableRecord
100
AcDbLinetypeTableRecord
  2
BYBLOCK
 70
     0
  3

 72
    65
 73
     0
 40
0.0
  0
LTYPE
  5
15
330
5
100
AcDbSymbolTableRecord
100
AcDbLinetypeTableRecord
  2
BYLAYER
 70
     0
  3

 72
    65
 73
     0
 40
0.0
  0
LTYPE
  5
16
330
5
100
AcDbSymbolTableRecord
100
AcDbLinetypeTableRecord
  2
CONTINUOUS
 70
     0
  3
Solid line
 72
    65
 73
     0
 40
0.0
  0
ENDTAB
  0
TABLE
  2
LAYER
  5
2
100
AcDbSymbolTable
 70
1
  0
LAYER
  5
50
100
AcDbSymbolTableRecord
100
AcDbLayerTableRecord
  2
0
 70
0
  6
CONTINUOUS
  0
ENDTAB
  0
TABLE
  2
STYLE
  5
3
330
0
100
AcDbSymbolTable
 70
     1
  0
STYLE
  5
11
330
3
100
AcDbSymbolTableRecord
100
AcDbTextStyleTableRecord
  2
STANDARD
 70
     0
 40
0.0
 41
1.0
 50
0.0
 71
     0
 42
2.5
  3
txt
  4

  0
ENDTAB
  0
TABLE
  2
VIEW
  5
6
330
0
100
AcDbSymbolTable
 70
     0
  0
ENDTAB
  0
TABLE
  2
UCS
  5
7
330
0
100
AcDbSymbolTable
 70
     0
  0
ENDTAB
  0
TABLE
  2
APPID
  5
9
330
0
100
AcDbSymbolTable
 70
     2
  0
APPID
  5
12
330
9
100
AcDbSymbolTableRecord
100
AcDbRegAppTableRecord
  2
ACAD
 70
     0
  0
ENDTAB
  0
TABLE
  2
DIMSTYLE
  5
A
330
0
100
AcDbSymbolTable
 70
     1
  0
DIMSTYLE
105
27
330
A
100
AcDbSymbolTableRecord
100
AcDbDimStyleTableRecord
  2
ISO-25
 70
     0
  3

  4

  5

  6

  7

 40
1.0
 41
2.5
 42
0.625
 43
3.75
 44
1.25
 45
0.0
 46
0.0
 47
0.0
 48
0.0
140
2.5
141
2.5
142
0.0
143
0.03937007874016
144
1.0
145
0.0
146
1.0
147
0.625
 71
     0
 72
     0
 73
     0
 74
     0
 75
     0
 76
     0
 77
     1
 78
     8
170
     0
171
     3
172
     1
173
     0
174
     0
175
     0
176
     0
177
     0
178
     0
270
     2
271
     2
272
     2
273
     2
274
     3
340
11
275
     0
280
     0
281
     0
282
     0
283
     0
284
     8
285
     0
286
     0
287
     3
288
     0
  0
ENDTAB
  0
TABLE
  2
BLOCK_RECORD
  5
1
330
0
100
AcDbSymbolTable
 70
     1
  0
BLOCK_RECORD
  5
1F
330
1
100
AcDbSymbolTableRecord
100
AcDbBlockTableRecord
  2
*MODEL_SPACE
  0
BLOCK_RECORD
  5
1B
330
1
100
AcDbSymbolTableRecord
100
AcDbBlockTableRecord
  2
*PAPER_SPACE
  0
ENDTAB
  0
ENDSEC
  0
SECTION
  2
BLOCKS
  0
BLOCK
  5
20
330
1F
100
AcDbEntity
  8
0
100
AcDbBlockBegin
  2
*MODEL_SPACE
 70
     0
 10
0.0
 20
0.0
 30
0.0
  3
*MODEL_SPACE
  1

  0
ENDBLK
  5
21
330
1F
100
AcDbEntity
  8
0
100
AcDbBlockEnd
  0
BLOCK
  5
1C
330
1B
100
AcDbEntity
 67
     1
  8
0
100
AcDbBlockBegin
  2
*PAPER_SPACE
  1

  0
ENDBLK
  5
1D
330
1B
100
AcDbEntity
 67
     1
  8
0
100
AcDbBlockEnd
  0
ENDSEC
  0
SECTION
  2
ENTITIES
  0
LWPOLYLINE
  5
100
100
AcDbEntity
  8
0
 62
7
100
AcDbPolyline
 90
19
 70
1
 10
13.422436
 20
231.490262
 30
0.0
 10
14.625464
 20
231.277354
 30
0.0
 10
15.668811
 20
230.675843
 30
0.0
 10
16.454810
 20
229.740498
 30
0.0
 10
16.871838
 20
228.592249
 30
0.0
 10
16.871838
 20
227.387670
 30
0.0
 10
16.454810
 20
226.239421
 30
0.0
 10
15.668811
 20
225.304592
 30
0.0
 10
14.625464
 20
224.702562
 30
0.0
 10
13.422436
 20
224.490173
 30
0.0
 10
12.218892
 20
224.702562
 30
0.0
 10
11.176062
 20
225.304592
 30
0.0
 10
10.389547
 20
226.239421
 30
0.0
 10
9.972518
 20
227.387670
 30
0.0
 10
9.972518
 20
228.592249
 30
0.0
 10
10.389547
 20
229.740498
 30
0.0
 10
11.176062
 20
230.675843
 30
0.0
 10
12.218892
 20
231.277354
 30
0.0
 10
13.422436
 20
231.490262
 30
0.0
  0
LWPOLYLINE
  5
101
100
AcDbEntity
  8
0
 62
7
100
AcDbPolyline
 90
30
 70
1
 10
5.791378
 20
212.935321
 30
0.0
 10
8.124756
 20
212.935321
 30
0.0
 10
10.457924
 20
212.935321
 30
0.0
 10
12.791187
 20
212.935321
 30
0.0
 10
15.124475
 20
212.935321
 30
0.0
 10
17.457893
 20
212.935321
 30
0.0
 10
19.791040
 20
212.935321
 30
0.0
 10
19.791040
 20
210.324220
 30
0.0
 10
19.791040
 20
207.712970
 30
0.0
 10
19.791040
 20
205.101768
 30
0.0
 10
19.791040
 20
202.490423
 30
0.0
 10
19.791040
 20
199.879576
 30
0.0
 10
19.791040
 20
197.268493
 30
0.0
 10
19.791040
 20
194.657241
 30
0.0
 10
19.791040
 20
192.045978
 30
0.0
 10
19.791040
 20
189.434948
 30
0.0
 10
17.457662
 20
189.434948
 30
0.0
 10
15.124494
 20
189.434948
 30
0.0
 10
12.791230
 20
189.434948
 30
0.0
 10
10.457943
 20
189.434948
 30
0.0
 10
8.124525
 20
189.434948
 30
0.0
 10
5.791378
 20
189.434948
 30
0.0
 10
5.791378
 20
192.046049
 30
0.0
 10
5.791378
 20
194.657299
 30
0.0
 10
5.791378
 20
197.268501
 30
0.0
 10
5.791378
 20
199.879846
 30
0.0
 10
5.791378
 20
202.490693
 30
0.0
 10
5.791378
 20
205.101776
 30
0.0
 10
5.791378
 20
207.713028
 30
0.0
 10
5.791378
 20
210.324291
 30
0.0
  0
LWPOLYLINE
  5
102
100
AcDbEntity
  8
0
 62
7
100
AcDbPolyline
 90
19
 70
1
 10
11.815816
 20
186.285271
 30
0.0
 10
12.365653
 20
186.187600
 30
0.0
 10
12.842110
 20
185.912682
 30
0.0
 10
13.201261
 20
185.485319
 30
0.0
 10
13.391947
 20
184.960285
 30
0.0
 10
13.391947
 20
184.409931
 30
0.0
 10
13.201261
 20
183.884899
 30
0.0
 10
12.842110
 20
183.457536
 30
0.0
 10
12.365653
 20
183.182616
 30
0.0
 10
11.815816
 20
183.084948
 30
0.0
 10
11.265979
 20
183.182616
 30
0.0
 10
10.789522
 20
183.457536
 30
0.0
 10
10.429854
 20
183.884899
 30
0.0
 10
10.239685
 20
184.409931
 30
0.0
 10
10.239685
 20
184.960285
 30
0.0
 10
10.429854
 20
185.485319
 30
0.0
 10
10.789522
 20
185.912682
 30
0.0
 10
11.265979
 20
186.187600
 30
0.0
 10
11.815816
 20
186.285271
 30
0.0
  0
LWPOLYLINE
  5
103
100
AcDbEntity
  8
0
 62
7
100
AcDbPolyline
 90
19
 70
1
 10
18.608683
 20
186.285271
 30
0.0
 10
19.158520
 20
186.187600
 30
0.0
 10
19.634977
 20
185.912682
 30
0.0
 10
19.994128
 20
185.485319
 30
0.0
 10
20.184814
 20
184.960285
 30
0.0
 10
20.184814
 20
184.409931
 30
0.0
 10
19.994128
 20
183.884899
 30
0.0
 10
19.634977
 20
183.457536
 30
0.0
 10
19.158520
 20
183.182616
 30
0.0
 10
18.608683
 20
183.084948
 30
0.0
 10
18.058846
 20
183.182616
 30
0.0
 10
17.582389
 20
183.457536
 30
0.0
 10
17.223238
 20
183.884899
 30
0.0
 10
17.032552
 20
184.409931
 30
0.0
 10
17.032552
 20
184.960285
 30
0.0
 10
17.223238
 20
185.485319
 30
0.0
 10
17.582389
 20
185.912682
 30
0.0
 10
18.058846
 20
186.187600
 30
0.0
 10
18.608683
 20
186.285271
 30
0.0
  0
LWPOLYLINE
  5
104
100
AcDbEntity
  8
0
 62
7
100
AcDbPolyline
 90
19
 70
1
 10
11.815816
 20
177.863562
 30
0.0
 10
13.912329
 20
177.492524
 30
0.0
 10
15.730306
 20
176.444009
 30
0.0
 10
17.100765
 20
174.814136
 30
0.0
 10
17.827852
 20
172.812706
 30
0.0
 10
17.827852
 20
170.714126
 30
0.0
 10
17.100765
 20
168.712699
 30
0.0
 10
15.730306
 20
167.082823
 30
0.0
 10
13.912329
 20
166.033793
 30
0.0
 10
11.815816
 20
165.663273
 30
0.0
 10
9.718787
 20
166.033793
 30
0.0
 10
7.900810
 20
167.082823
 30
0.0
 10
6.530351
 20
168.712699
 30
0.0
 10
5.803780
 20
170.714126
 30
0.0
 10
5.803780
 20
172.812706
 30
0.0
 10
6.530351
 20
174.814136
 30
0.0
 10
7.900810
 20
176.444009
 30
0.0
 10
9.718787
 20
177.492524
 30
0.0
 10
11.815816
 20
177.863562
 30
0.0
  0
LWPOLYLINE
  5
105
100
AcDbEntity
  8
0
 62
7
100
AcDbPolyline
 90
19
 70
1
 10
14.625464
 20
151.277589
 30
0.0
 10
15.668811
 20
150.675556
 30
0.0
 10
16.454810
 20
149.740730
 30
0.0
 10
16.871838
 20
148.592480
 30
0.0
 10
16.871838
 20
147.387901
 30
0.0
 10
16.454810
 20
146.239652
 30
0.0
 10
15.668811
 20
145.304308
 30
0.0
 10
14.625464
 20
144.702796
 30
0.0
 10
13.422436
 20
144.489888
 30
0.0
 10
12.218892
 20
144.702796
 30
0.0
 10
11.176062
 20
145.304308
 30
0.0
 10
10.389547
 20
146.239652
 30
0.0
 10
9.972518
 20
147.387901
 30
0.0
 10
9.972518
 20
148.592480
 30
0.0
 10
10.389547
 20
149.740730
 30
0.0
 10
11.176062
 20
150.675556
 30
0.0
 10
12.218892
 20
151.277589
 30
0.0
 10
13.422436
 20
151.489978
 30
0.0
 10
13.422436
 20
151.489978
 30
0.0
  0
LWPOLYLINE
  5
106
100
AcDbEntity
  8
0
 62
7
100
AcDbPolyline
 90
30
 70
1
 10
5.791378
 20
132.935037
 30
0.0
 10
8.124756
 20
132.935037
 30
0.0
 10
10.457924
 20
132.935037
 30
0.0
 10
12.791187
 20
132.935037
 30
0.0
 10
15.124475
 20
132.935037
 30
0.0
 10
17.457893
 20
132.935037
 30
0.0
 10
19.791040
 20
132.935037
 30
0.0
 10
19.791040
 20
130.323991
 30
0.0
 10
19.791040
 20
127.712799
 30
0.0
 10
19.791040
 20
125.101656
 30
0.0
 10
19.791040
 20
122.490369
 30
0.0
 10
19.791040
 20
119.879580
 30
0.0
 10
19.791040
 20
117.268552
 30
0.0
 10
19.791040
 20
114.657356
 30
0.0
 10
19.791040
 20
112.046151
 30
0.0
 10
19.791040
 20
109.435179
 30
0.0
 10
17.457662
 20
109.435179
 30
0.0
 10
15.124494
 20
109.435179
 30
0.0
 10
12.791230
 20
109.435179
 30
0.0
 10
10.457943
 20
109.435179
 30
0.0
 10
8.124525
 20
109.435179
 30
0.0
 10
5.791378
 20
109.435179
 30
0.0
 10
5.791378
 20
112.046225
 30
0.0
 10
5.791378
 20
114.657416
 30
0.0
 10
5.791378
 20
117.268560
 30
0.0
 10
5.791378
 20
119.879847
 30
0.0
 10
5.791378
 20
122.490636
 30
0.0
 10
5.791378
 20
125.101664
 30
0.0
 10
5.791378
 20
127.712860
 30
0.0
 10
5.791378
 20
130.324065
 30
0.0
  0
LWPOLYLINE
  5
107
100
AcDbEntity
  8
0
 62
7
100
AcDbPolyline
 90
19
 70
1
 10
12.365653
 20
106.187834
 30
0.0
 10
12.842110
 20
105.912397
 30
0.0
 10
13.201261
 20
105.485035
 30
0.0
 10
13.391947
 20
104.960517
 30
0.0
 10
13.391947
 20
104.410165
 30
0.0
 10
13.201261
 20
103.885131
 30
0.0
 10
12.842110
 20
103.457768
 30
0.0
 10
12.365653
 20
103.182331
 30
0.0
 10
11.815816
 20
103.085179
 30
0.0
 10
11.265979
 20
103.182331
 30
0.0
 10
10.789522
 20
103.457768
 30
0.0
 10
10.429854
 20
103.885131
 30
0.0
 10
10.239685
 20
104.410165
 30
0.0
 10
10.239685
 20
104.960517
 30
0.0
 10
10.429854
 20
105.485035
 30
0.0
 10
10.789522
 20
105.912397
 30
0.0
 10
11.265979
 20
106.187834
 30
0.0
 10
11.815816
 20
106.284984
 30
0.0
 10
11.815816
 20
106.284984
 30
0.0
  0
LWPOLYLINE
  5
108
100
AcDbEntity
  8
0
 62
7
100
AcDbPolyline
 90
19
 70
1
 10
19.158520
 20
106.187834
 30
0.0
 10
19.634977
 20
105.912397
 30
0.0
 10
19.994128
 20
105.485035
 30
0.0
 10
20.184814
 20
104.960517
 30
0.0
 10
20.184814
 20
104.410165
 30
0.0
 10
19.994128
 20
103.885131
 30
0.0
 10
19.634977
 20
103.457768
 30
0.0
 10
19.158520
 20
103.182331
 30
0.0
 10
18.608683
 20
103.085179
 30
0.0
 10
18.058846
 20
103.182331
 30
0.0
 10
17.582389
 20
103.457768
 30
0.0
 10
17.223238
 20
103.885131
 30
0.0
 10
17.032552
 20
104.410165
 30
0.0
 10
17.032552
 20
104.960517
 30
0.0
 10
17.223238
 20
105.485035
 30
0.0
 10
17.582389
 20
105.912397
 30
0.0
 10
18.058846
 20
106.187834
 30
0.0
 10
18.608683
 20
106.284984
 30
0.0
 10
18.608683
 20
106.284984
 30
0.0
  0
LWPOLYLINE
  5
109
100
AcDbEntity
  8
0
 62
7
100
AcDbPolyline
 90
19
 70
1
 10
13.912329
 20
97.492755
 30
0.0
 10
15.730306
 20
96.443725
 30
0.0
 10
17.100765
 20
94.814368
 30
0.0
 10
17.827852
 20
92.812937
 30
0.0
 10
17.827852
 20
90.713842
 30
0.0
 10
17.100765
 20
88.712414
 30
0.0
 10
15.730306
 20
87.082539
 30
0.0
 10
13.912329
 20
86.034024
 30
0.0
 10
11.815816
 20
85.663504
 30
0.0
 10
9.718787
 20
86.034024
 30
0.0
 10
7.900810
 20
87.082539
 30
0.0
 10
6.530351
 20
88.712414
 30
0.0
 10
5.803780
 20
90.713842
 30
0.0
 10
5.803780
 20
92.812937
 30
0.0
 10
6.530351
 20
94.814368
 30
0.0
 10
7.900810
 20
96.443725
 30
0.0
 10
9.718787
 20
97.492755
 30
0.0
 10
11.815816
 20
97.863278
 30
0.0
 10
11.815816
 20
97.863278
 30
0.0
  0
LWPOLYLINE
  5
10a
100
AcDbEntity
  8
0
 62
7
100
AcDbPolyline
 90
19
 70
1
 10
14.625464
 20
71.277301
 30
0.0
 10
15.668811
 20
70.675790
 30
0.0
 10
16.454810
 20
69.740445
 30
0.0
 10
16.871838
 20
68.592196
 30
0.0
 10
16.871838
 20
67.388135
 30
0.0
 10
16.454810
 20
66.239368
 30
0.0
 10
15.668811
 20
65.304542
 30
0.0
 10
14.625464
 20
64.702509
 30
0.0
 10
13.422436
 20
64.490120
 30
0.0
 10
12.218892
 20
64.702509
 30
0.0
 10
11.176062
 20
65.304542
 30
0.0
 10
10.389547
 20
66.239368
 30
0.0
 10
9.972518
 20
67.388135
 30
0.0
 10
9.972518
 20
68.592196
 30
0.0
 10
10.389547
 20
69.740445
 30
0.0
 10
11.176062
 20
70.675790
 30
0.0
 10
12.218892
 20
71.277301
 30
0.0
 10
13.422436
 20
71.490209
 30
0.0
 10
13.422436
 20
71.490209
 30
0.0
  0
LWPOLYLINE
  5
10b
100
AcDbEntity
  8
0
 62
7
100
AcDbPolyline
 90
30
 70
1
 10
5.791378
 20
52.935271
 30
0.0
 10
8.124756
 20
52.935271
 30
0.0
 10
10.457924
 20
52.935271
 30
0.0
 10
12.791187
 20
52.935271
 30
0.0
 10
15.124475
 20
52.935271
 30
0.0
 10
17.457893
 20
52.935271
 30
0.0
 10
19.791040
 20
52.935271
 30
0.0
 10
19.791040
 20
50.324167
 30
0.0
 10
19.791040
 20
47.712917
 30
0.0
 10
19.791040
 20
45.101715
 30
0.0
 10
19.791040
 20
42.490370
 30
0.0
 10
19.791040
 20
39.879523
 30
0.0
 10
19.791040
 20
37.268437
 30
0.0
 10
19.791040
 20
34.657185
 30
0.0
 10
19.791040
 20
32.045933
 30
0.0
 10
19.791040
 20
29.434892
 30
0.0
 10
17.457662
 20
29.434892
 30
0.0
 10
15.124494
 20
29.434892
 30
0.0
 10
12.791230
 20
29.434892
 30
0.0
 10
10.457943
 20
29.434892
 30
0.0
 10
8.124525
 20
29.434892
 30
0.0
 10
5.791378
 20
29.434892
 30
0.0
 10
5.791378
 20
32.045985
 30
0.0
 10
5.791378
 20
34.657246
 30
0.0
 10
5.791378
 20
37.268448
 30
0.0
 10
5.791378
 20
39.879793
 30
0.0
 10
5.791378
 20
42.490640
 30
0.0
 10
5.791378
 20
45.101726
 30
0.0
 10
5.791378
 20
47.712978
 30
0.0
 10
5.791378
 20
50.324241
 30
0.0
  0
LWPOLYLINE
  5
10c
100
AcDbEntity
  8
0
 62
7
100
AcDbPolyline
 90
19
 70
1
 10
12.365653
 20
26.187528
 30
0.0
 10
12.842110
 20
25.912626
 30
0.0
 10
13.201261
 20
25.485245
 30
0.0
 10
13.391947
 20
24.960232
 30
0.0
 10
13.391947
 20
24.409872
 30
0.0
 10
13.201261
 20
23.885362
 30
0.0
 10
12.842110
 20
23.457478
 30
0.0
 10
12.365653
 20
23.182550
 30
0.0
 10
11.815816
 20
23.084892
 30
0.0
 10
11.265979
 20
23.182550
 30
0.0
 10
10.789522
 20
23.457478
 30
0.0
 10
10.429854
 20
23.885362
 30
0.0
 10
10.239685
 20
24.409872
 30
0.0
 10
10.239685
 20
24.960232
 30
0.0
 10
10.429854
 20
25.485245
 30
0.0
 10
10.789522
 20
25.912626
 30
0.0
 10
11.265979
 20
26.187528
 30
0.0
 10
11.815816
 20
26.285213
 30
0.0
 10
11.815816
 20
26.285213
 30
0.0
  0
LWPOLYLINE
  5
10d
100
AcDbEntity
  8
0
 62
7
100
AcDbPolyline
 90
19
 70
1
 10
19.158520
 20
26.187528
 30
0.0
 10
19.634977
 20
25.912626
 30
0.0
 10
19.994128
 20
25.485245
 30
0.0
 10
20.184814
 20
24.960232
 30
0.0
 10
20.184814
 20
24.409872
 30
0.0
 10
19.994128
 20
23.885362
 30
0.0
 10
19.634977
 20
23.457478
 30
0.0
 10
19.158520
 20
23.182550
 30
0.0
 10
18.608683
 20
23.084892
 30
0.0
 10
18.058846
 20
23.182550
 30
0.0
 10
17.582389
 20
23.457478
 30
0.0
 10
17.223238
 20
23.885362
 30
0.0
 10
17.032552
 20
24.409872
 30
0.0
 10
17.032552
 20
24.960232
 30
0.0
 10
17.223238
 20
25.485245
 30
0.0
 10
17.582389
 20
25.912626
 30
0.0
 10
18.058846
 20
26.187528
 30
0.0
 10
18.608683
 20
26.285213
 30
0.0
 10
18.608683
 20
26.285213
 30
0.0
  0
LWPOLYLINE
  5
10e
100
AcDbEntity
  8
0
 62
7
100
AcDbPolyline
 90
19
 70
1
 10
13.912329
 20
17.492976
 30
0.0
 10
15.730306
 20
16.443956
 30
0.0
 10
17.100765
 20
14.814070
 30
0.0
 10
17.827852
 20
12.812629
 30
0.0
 10
17.827852
 20
10.714060
 30
0.0
 10
17.100765
 20
8.712646
 30
0.0
 10
15.730306
 20
7.082760
 30
0.0
 10
13.912329
 20
6.033740
 30
0.0
 10
11.815816
 20
5.663217
 30
0.0
 10
9.718787
 20
6.033740
 30
0.0
 10
7.900810
 20
7.082760
 30
0.0
 10
6.530351
 20
8.712646
 30
0.0
 10
5.803780
 20
10.714060
 30
0.0
 10
5.803780
 20
12.812629
 30
0.0
 10
6.530351
 20
14.814070
 30
0.0
 10
7.900810
 20
16.443956
 30
0.0
 10
9.718787
 20
17.492976
 30
0.0
 10
11.815816
 20
17.863499
 30
0.0
 10
11.815816
 20
17.863499
 30
0.0
  0
ENDSEC
  0
SECTION
  2
OBJECTS
  0
DICTIONARY
  5
C
330
0
100
AcDbDictionary
  3
ACAD_GROUP
350
D
  3
ACAD_MLINESTYLE
350
17
  0
DICTIONARY
  5
D
330
C
100
AcDbDictionary
  0
DICTIONARY
  5
1A
330
C
100
AcDbDictionary
  0
DICTIONARY
  5
17
330
C
100
AcDbDictionary
  3
STANDARD
350
18
  0
DICTIONARY
  5
19
330
C
100
AcDbDictionary
  0
ENDSEC
  0
EOF
