  0
SECTION
  2
HEADER
  9
$ACADVER
  1
AC1014
  9
$HANDSEED
  5
FFFF
  9
$MEASUREMENT
 70
     1
  0
ENDSEC
  0
SECTION
  2
TABLES
  0
TABLE
  2
VPORT
  5
8
330
0
100
AcDbSymbolTable
 70
     4
  0
VPORT
  5
2E
330
8
100
AcDbSymbolTableRecord
100
AcDbViewportTableRecord
  2
*ACTIVE
 70
     0
 10
0.0
 20
0.0
 11
1.0
 21
1.0
 12
210.0
 22
148.5
 13
0.0
 23
0.0
 14
10.0
 24
10.0
 15
10.0
 25
10.0
 16
0.0
 26
0.0
 36
1.0
 17
0.0
 27
0.0
 37
0.0
 40
341.0
 41
1.24
 42
50.0
 43
0.0
 44
0.0
 50
0.0
 51
0.0
 71
     0
 72
   100
 73
     1
 74
     3
 75
     0
 76
     0
 77
     0
 78
     0
  0
ENDTAB
  0
TABLE
  2
LTYPE
  5
5
330
0
100
AcDbSymbolTable
 70
     1
  0
LTYPE
  5
14
330
5
100
AcDbSymbolTableRecord
100
AcDbLinetypeTableRecord
  2
BYBLOCK
 70
     0
  3

 72
    65
 73
     0
 40
0.0
  0
LTYPE
  5
15
330
5
100
AcDbSymbolTableRecord
100
AcDbLinetypeTableRecord
  2
BYLAYER
 70
     0
  3

 72
    65
 73
     0
 40
0.0
  0
LTYPE
  5
16
330
5
100
AcDbSymbolTableRecord
100
AcDbLinetypeTableRecord
  2
CONTINUOUS
 70
     0
  3
Solid line
 72
    65
 73
     0
 40
0.0
  0
ENDTAB
  0
TABLE
  2
LAYER
  5
2
100
AcDbSymbolTable
 70
2
  0
LAYER
  5
50
100
AcDbSymbolTableRecord
100
AcDbLayerTableRecord
  2
0
 70
0
  6
CONTINUOUS
  0
LAYER
  5
51
100
AcDbSymbolTableRecord
100
AcDbLayerTableRecord
  2
not
 70
0
  6
CONTINUOUS
  0
ENDTAB
  0
TABLE
  2
STYLE
  5
3
330
0
100
AcDbSymbolTable
 70
     1
  0
STYLE
  5
11
330
3
100
AcDbSymbolTableRecord
100
AcDbTextStyleTableRecord
  2
STANDARD
 70
     0
 40
0.0
 41
1.0
 50
0.0
 71
     0
 42
2.5
  3
txt
  4

  0
ENDTAB
  0
TABLE
  2
VIEW
  5
6
330
0
100
AcDbSymbolTable
 70
     0
  0
ENDTAB
  0
TABLE
  2
UCS
  5
7
330
0
100
AcDbSymbolTable
 70
     0
  0
ENDTAB
  0
TABLE
  2
APPID
  5
9
330
0
100
AcDbSymbolTable
 70
     2
  0
APPID
  5
12
330
9
100
AcDbSymbolTableRecord
100
AcDbRegAppTableRecord
  2
ACAD
 70
     0
  0
ENDTAB
  0
TABLE
  2
DIMSTYLE
  5
A
330
0
100
AcDbSymbolTable
 70
     1
  0
DIMSTYLE
105
27
330
A
100
AcDbSymbolTableRecord
100
AcDbDimStyleTableRecord
  2
ISO-25
 70
     0
  3

  4

  5

  6

  7

 40
1.0
 41
2.5
 42
0.625
 43
3.75
 44
1.25
 45
0.0
 46
0.0
 47
0.0
 48
0.0
140
2.5
141
2.5
142
0.0
143
0.03937007874016
144
1.0
145
0.0
146
1.0
147
0.625
 71
     0
 72
     0
 73
     0
 74
     0
 75
     0
 76
     0
 77
     1
 78
     8
170
     0
171
     3
172
     1
173
     0
174
     0
175
     0
176
     0
177
     0
178
     0
270
     2
271
     2
272
     2
273
     2
274
     3
340
11
275
     0
280
     0
281
     0
282
     0
283
     0
284
     8
285
     0
286
     0
287
     3
288
     0
  0
ENDTAB
  0
TABLE
  2
BLOCK_RECORD
  5
1
330
0
100
AcDbSymbolTable
 70
     1
  0
BLOCK_RECORD
  5
1F
330
1
100
AcDbSymbolTableRecord
100
AcDbBlockTableRecord
  2
*MODEL_SPACE
  0
BLOCK_RECORD
  5
1B
330
1
100
AcDbSymbolTableRecord
100
AcDbBlockTableRecord
  2
*PAPER_SPACE
  0
ENDTAB
  0
ENDSEC
  0
SECTION
  2
BLOCKS
  0
BLOCK
  5
20
330
1F
100
AcDbEntity
  8
0
100
AcDbBlockBegin
  2
*MODEL_SPACE
 70
     0
 10
0.0
 20
0.0
 30
0.0
  3
*MODEL_SPACE
  1

  0
ENDBLK
  5
21
330
1F
100
AcDbEntity
  8
0
100
AcDbBlockEnd
  0
BLOCK
  5
1C
330
1B
100
AcDbEntity
 67
     1
  8
0
100
AcDbBlockBegin
  2
*PAPER_SPACE
  1

  0
ENDBLK
  5
1D
330
1B
100
AcDbEntity
 67
     1
  8
0
100
AcDbBlockEnd
  0
ENDSEC
  0
SECTION
  2
ENTITIES
  0
LWPOLYLINE
  5
100
100
AcDbEntity
  8
0
 62
7
100
AcDbPolyline
 90
18
 70
1
 10
15.492237
 20
231.899202
 30
0.0
 10
16.835744
 20
231.661434
 30
0.0
 10
18.000924
 20
230.989684
 30
0.0
 10
18.878704
 20
229.945117
 30
0.0
 10
19.344429
 20
228.662787
 30
0.0
 10
19.344429
 20
227.317547
 30
0.0
 10
18.878704
 20
226.035215
 30
0.0
 10
18.000924
 20
224.991228
 30
0.0
 10
16.835744
 20
224.318897
 30
0.0
 10
15.492237
 20
224.081706
 30
0.0
 10
14.148154
 20
224.318897
 30
0.0
 10
12.983552
 20
224.991228
 30
0.0
 10
12.105195
 20
226.035215
 30
0.0
 10
11.639469
 20
227.317547
 30
0.0
 10
11.639469
 20
228.662787
 30
0.0
 10
12.105195
 20
229.945117
 30
0.0
 10
12.983552
 20
230.989684
 30
0.0
 10
14.148154
 20
231.661434
 30
0.0
  0
LWPOLYLINE
  5
101
100
AcDbEntity
  8
0
 62
7
100
AcDbPolyline
 90
4
 70
1
 10
7.861149
 20
212.935321
 30
0.0
 10
21.860811
 20
212.935321
 30
0.0
 10
21.860811
 20
189.434948
 30
0.0
 10
7.861149
 20
189.434948
 30
0.0
  0
LWPOLYLINE
  5
102
100
AcDbEntity
  8
0
 62
7
100
AcDbPolyline
 90
18
 70
1
 10
13.885587
 20
186.558583
 30
0.0
 10
14.529218
 20
186.444251
 30
0.0
 10
15.086950
 20
186.122436
 30
0.0
 10
15.507367
 20
185.622172
 30
0.0
 10
15.730581
 20
185.007577
 30
0.0
 10
15.730581
 20
184.363340
 30
0.0
 10
15.507367
 20
183.748747
 30
0.0
 10
15.086950
 20
183.248484
 30
0.0
 10
14.529218
 20
182.926666
 30
0.0
 10
13.885587
 20
182.812337
 30
0.0
 10
13.241957
 20
182.926666
 30
0.0
 10
12.684224
 20
183.248484
 30
0.0
 10
12.263203
 20
183.748747
 30
0.0
 10
12.040594
 20
184.363340
 30
0.0
 10
12.040594
 20
185.007577
 30
0.0
 10
12.263203
 20
185.622172
 30
0.0
 10
12.684224
 20
186.122436
 30
0.0
 10
13.241957
 20
186.444251
 30
0.0
  0
LWPOLYLINE
  5
103
100
AcDbEntity
  8
0
 62
7
100
AcDbPolyline
 90
18
 70
1
 10
20.678454
 20
186.558583
 30
0.0
 10
21.322085
 20
186.444251
 30
0.0
 10
21.879817
 20
186.122436
 30
0.0
 10
22.300234
 20
185.622172
 30
0.0
 10
22.523447
 20
185.007577
 30
0.0
 10
22.523447
 20
184.363340
 30
0.0
 10
22.300234
 20
183.748747
 30
0.0
 10
21.879817
 20
183.248484
 30
0.0
 10
21.322085
 20
182.926666
 30
0.0
 10
20.678454
 20
182.812337
 30
0.0
 10
20.034824
 20
182.926666
 30
0.0
 10
19.477091
 20
183.248484
 30
0.0
 10
19.056675
 20
183.748747
 30
0.0
 10
18.833461
 20
184.363340
 30
0.0
 10
18.833461
 20
185.007577
 30
0.0
 10
19.056675
 20
185.622172
 30
0.0
 10
19.477091
 20
186.122436
 30
0.0
 10
20.034824
 20
186.444251
 30
0.0
  0
LWPOLYLINE
  5
104
100
AcDbEntity
  8
0
 62
7
100
AcDbPolyline
 90
18
 70
1
 10
13.885587
 20
178.266509
 30
0.0
 10
16.120540
 20
177.870971
 30
0.0
 10
18.058565
 20
176.753220
 30
0.0
 10
19.519520
 20
175.015719
 30
0.0
 10
20.294619
 20
172.882127
 30
0.0
 10
20.294619
 20
170.644972
 30
0.0
 10
19.519520
 20
168.511383
 30
0.0
 10
18.058565
 20
166.773883
 30
0.0
 10
16.120540
 20
165.655579
 30
0.0
 10
13.885587
 20
165.260593
 30
0.0
 10
11.650083
 20
165.655579
 30
0.0
 10
9.712059
 20
166.773883
 30
0.0
 10
8.251104
 20
168.511383
 30
0.0
 10
7.476555
 20
170.644972
 30
0.0
 10
7.476555
 20
172.882127
 30
0.0
 10
8.251104
 20
175.015719
 30
0.0
 10
9.712059
 20
176.753220
 30
0.0
 10
11.650083
 20
177.870971
 30
0.0
  0
LWPOLYLINE
  5
105
100
AcDbEntity
  8
0
 62
7
100
AcDbPolyline
 90
18
 70
1
 10
15.492220
 20
151.665081
 30
0.0
 10
16.755399
 20
151.442072
 30
0.0
 10
17.850914
 20
150.809938
 30
0.0
 10
18.676212
 20
149.828370
 30
0.0
 10
19.114092
 20
148.622709
 30
0.0
 10
19.114092
 20
147.357900
 30
0.0
 10
18.676212
 20
146.152239
 30
0.0
 10
17.850914
 20
145.170127
 30
0.0
 10
16.755399
 20
144.538540
 30
0.0
 10
15.492220
 20
144.314988
 30
0.0
 10
14.228499
 20
144.538540
 30
0.0
 10
13.133527
 20
145.170127
 30
0.0
 10
12.307686
 20
146.152239
 30
0.0
 10
11.869806
 20
147.357900
 30
0.0
 10
11.869806
 20
148.622709
 30
0.0
 10
12.307686
 20
149.828370
 30
0.0
 10
13.133527
 20
150.809938
 30
0.0
 10
14.228499
 20
151.442072
 30
0.0
  0
LWPOLYLINE
  5
106
100
AcDbEntity
  8
0
 62
7
100
AcDbPolyline
 90
4
 70
1
 10
7.861149
 20
132.935037
 30
0.0
 10
21.860811
 20
132.935037
 30
0.0
 10
21.860811
 20
109.435179
 30
0.0
 10
7.861149
 20
109.435179
 30
0.0
  0
LWPOLYLINE
  5
107
100
AcDbEntity
  8
0
 62
7
100
AcDbPolyline
 90
18
 70
1
 10
13.885587
 20
106.365081
 30
0.0
 10
14.462916
 20
106.263074
 30
0.0
 10
14.963196
 20
105.973865
 30
0.0
 10
15.340304
 20
105.525135
 30
0.0
 10
15.540525
 20
104.974391
 30
0.0
 10
15.540525
 20
104.396520
 30
0.0
 10
15.340304
 20
103.845234
 30
0.0
 10
14.963196
 20
103.396504
 30
0.0
 10
14.462916
 20
103.107296
 30
0.0
 10
13.885587
 20
103.005285
 30
0.0
 10
13.308258
 20
103.107296
 30
0.0
 10
12.807979
 20
103.396504
 30
0.0
 10
12.430327
 20
103.845234
 30
0.0
 10
12.230649
 20
104.396520
 30
0.0
 10
12.230649
 20
104.974391
 30
0.0
 10
12.430327
 20
105.525135
 30
0.0
 10
12.807979
 20
105.973865
 30
0.0
 10
13.308258
 20
106.263074
 30
0.0
  0
LWPOLYLINE
  5
108
100
AcDbEntity
  8
0
 62
7
100
AcDbPolyline
 90
18
 70
1
 10
20.678454
 20
106.365081
 30
0.0
 10
21.255783
 20
106.263074
 30
0.0
 10
21.756063
 20
105.973865
 30
0.0
 10
22.133171
 20
105.525135
 30
0.0
 10
22.333392
 20
104.974391
 30
0.0
 10
22.333392
 20
104.396520
 30
0.0
 10
22.133171
 20
103.845234
 30
0.0
 10
21.756063
 20
103.396504
 30
0.0
 10
21.255783
 20
103.107296
 30
0.0
 10
20.678454
 20
103.005285
 30
0.0
 10
20.101125
 20
103.107296
 30
0.0
 10
19.600846
 20
103.396504
 30
0.0
 10
19.223737
 20
103.845234
 30
0.0
 10
19.023516
 20
104.396520
 30
0.0
 10
19.023516
 20
104.974391
 30
0.0
 10
19.223737
 20
105.525135
 30
0.0
 10
19.600846
 20
105.973865
 30
0.0
 10
20.101125
 20
106.263074
 30
0.0
  0
LWPOLYLINE
  5
109
100
AcDbEntity
  8
0
 62
7
100
AcDbPolyline
 90
18
 70
1
 10
13.885587
 20
98.168374
 30
0.0
 10
16.086926
 20
97.779325
 30
0.0
 10
17.995801
 20
96.677844
 30
0.0
 10
19.434783
 20
94.967019
 30
0.0
 10
20.198225
 20
92.865515
 30
0.0
 10
20.198225
 20
90.661465
 30
0.0
 10
19.434783
 20
88.559967
 30
0.0
 10
17.995801
 20
86.848597
 30
0.0
 10
16.086926
 20
85.747658
 30
0.0
 10
13.885587
 20
85.358612
 30
0.0
 10
11.683706
 20
85.747658
 30
0.0
 10
9.774830
 20
86.848597
 30
0.0
 10
8.335848
 20
88.559967
 30
0.0
 10
7.572949
 20
90.661465
 30
0.0
 10
7.572949
 20
92.865515
 30
0.0
 10
8.335848
 20
94.967019
 30
0.0
 10
9.774830
 20
96.677844
 30
0.0
 10
11.683706
 20
97.779325
 30
0.0
  0
LWPOLYLINE
  5
10a
100
AcDbEntity
  8
0
 62
7
100
AcDbPolyline
 90
18
 70
1
 10
15.492220
 20
71.665313
 30
0.0
 10
16.755399
 20
71.441761
 30
0.0
 10
17.850914
 20
70.810172
 30
0.0
 10
18.676212
 20
69.828062
 30
0.0
 10
19.114092
 20
68.622398
 30
0.0
 10
19.114092
 20
67.358137
 30
0.0
 10
18.676212
 20
66.151931
 30
0.0
 10
17.850914
 20
65.170364
 30
0.0
 10
16.755399
 20
64.538229
 30
0.0
 10
15.492220
 20
64.315220
 30
0.0
 10
14.228499
 20
64.538229
 30
0.0
 10
13.133527
 20
65.170364
 30
0.0
 10
12.307686
 20
66.151931
 30
0.0
 10
11.869806
 20
67.358137
 30
0.0
 10
11.869806
 20
68.622398
 30
0.0
 10
12.307686
 20
69.828062
 30
0.0
 10
13.133527
 20
70.810172
 30
0.0
 10
14.228499
 20
71.441761
 30
0.0
  0
LWPOLYLINE
  5
10b
100
AcDbEntity
  8
0
 62
7
100
AcDbPolyline
 90
4
 70
1
 10
7.861149
 20
52.935271
 30
0.0
 10
21.860811
 20
52.935271
 30
0.0
 10
21.860811
 20
29.434892
 30
0.0
 10
7.861149
 20
29.434892
 30
0.0
  0
LWPOLYLINE
  5
10c
100
AcDbEntity
  8
0
 62
7
100
AcDbPolyline
 90
18
 70
1
 10
13.885587
 20
26.365328
 30
0.0
 10
14.462916
 20
26.262749
 30
0.0
 10
14.963196
 20
25.974115
 30
0.0
 10
15.340304
 20
25.525356
 30
0.0
 10
15.540525
 20
24.974096
 30
0.0
 10
15.540525
 20
24.396220
 30
0.0
 10
15.340304
 20
23.845490
 30
0.0
 10
14.963196
 20
23.396201
 30
0.0
 10
14.462916
 20
23.107540
 30
0.0
 10
13.885587
 20
23.004988
 30
0.0
 10
13.308258
 20
23.107540
 30
0.0
 10
12.807979
 20
23.396201
 30
0.0
 10
12.430327
 20
23.845490
 30
0.0
 10
12.230649
 20
24.396220
 30
0.0
 10
12.230649
 20
24.974096
 30
0.0
 10
12.430327
 20
25.525356
 30
0.0
 10
12.807979
 20
25.974115
 30
0.0
 10
13.308258
 20
26.262749
 30
0.0
  0
LWPOLYLINE
  5
10d
100
AcDbEntity
  8
0
 62
7
100
AcDbPolyline
 90
18
 70
1
 10
20.678454
 20
26.365328
 30
0.0
 10
21.255783
 20
26.262749
 30
0.0
 10
21.756063
 20
25.974115
 30
0.0
 10
22.133171
 20
25.525356
 30
0.0
 10
22.333392
 20
24.974096
 30
0.0
 10
22.333392
 20
24.396220
 30
0.0
 10
22.133171
 20
23.845490
 30
0.0
 10
21.756063
 20
23.396201
 30
0.0
 10
21.255783
 20
23.107540
 30
0.0
 10
20.678454
 20
23.004988
 30
0.0
 10
20.101125
 20
23.107540
 30
0.0
 10
19.600846
 20
23.396201
 30
0.0
 10
19.223737
 20
23.845490
 30
0.0
 10
19.023516
 20
24.396220
 30
0.0
 10
19.023516
 20
24.974096
 30
0.0
 10
19.223737
 20
25.525356
 30
0.0
 10
19.600846
 20
25.974115
 30
0.0
 10
20.101125
 20
26.262749
 30
0.0
  0
LWPOLYLINE
  5
10e
100
AcDbEntity
  8
0
 62
7
100
AcDbPolyline
 90
18
 70
1
 10
13.885587
 20
18.168616
 30
0.0
 10
16.086926
 20
17.779546
 30
0.0
 10
17.995801
 20
16.678086
 30
0.0
 10
19.434783
 20
14.966708
 30
0.0
 10
20.198225
 20
12.865202
 30
0.0
 10
20.198225
 20
10.661699
 30
0.0
 10
19.434783
 20
8.560219
 30
0.0
 10
17.995801
 20
6.848841
 30
0.0
 10
16.086926
 20
5.747355
 30
0.0
 10
13.885587
 20
5.358311
 30
0.0
 10
11.683706
 20
5.747355
 30
0.0
 10
9.774830
 20
6.848841
 30
0.0
 10
8.335848
 20
8.560219
 30
0.0
 10
7.572949
 20
10.661699
 30
0.0
 10
7.572949
 20
12.865202
 30
0.0
 10
8.335848
 20
14.966708
 30
0.0
 10
9.774830
 20
16.678086
 30
0.0
 10
11.683706
 20
17.779546
 30
0.0
  0
LWPOLYLINE
  5
10f
100
AcDbEntity
  8
not
 62
7
100
AcDbPolyline
 90
8
 70
1
 10
0.147170
 20
240.117234
 30
0.0
 10
0.147170
 20
160.127382
 30
0.0
 10
0.147170
 20
80.137533
 30
0.0
 10
0.147170
 20
0.147157
 30
0.0
 10
29.852832
 20
0.147157
 30
0.0
 10
29.852832
 20
80.137533
 30
0.0
 10
29.852832
 20
160.127382
 30
0.0
 10
29.852832
 20
240.117234
 30
0.0
  0
ENDSEC
  0
SECTION
  2
OBJECTS
  0
DICTIONARY
  5
C
330
0
100
AcDbDictionary
  3
ACAD_GROUP
350
D
  3
ACAD_MLINESTYLE
350
17
  0
DICTIONARY
  5
D
330
C
100
AcDbDictionary
  0
DICTIONARY
  5
1A
330
C
100
AcDbDictionary
  0
DICTIONARY
  5
17
330
C
100
AcDbDictionary
  3
STANDARD
350
18
  0
DICTIONARY
  5
19
330
C
100
AcDbDictionary
  0
ENDSEC
  0
EOF
