  0
SECTION
  2
HEADER
  9
$ACADVER
  1
AC1014
  9
$HANDSEED
  5
FFFF
  9
$MEASUREMENT
 70
     1
  0
ENDSEC
  0
SECTION
  2
TABLES
  0
TABLE
  2
VPORT
  5
8
330
0
100
AcDbSymbolTable
 70
     4
  0
VPORT
  5
2E
330
8
100
AcDbSymbolTableRecord
100
AcDbViewportTableRecord
  2
*ACTIVE
 70
     0
 10
0.0
 20
0.0
 11
1.0
 21
1.0
 12
210.0
 22
148.5
 13
0.0
 23
0.0
 14
10.0
 24
10.0
 15
10.0
 25
10.0
 16
0.0
 26
0.0
 36
1.0
 17
0.0
 27
0.0
 37
0.0
 40
341.0
 41
1.24
 42
50.0
 43
0.0
 44
0.0
 50
0.0
 51
0.0
 71
     0
 72
   100
 73
     1
 74
     3
 75
     0
 76
     0
 77
     0
 78
     0
  0
ENDTAB
  0
TABLE
  2
LTYPE
  5
5
330
0
100
AcDbSymbolTable
 70
     1
  0
LTYPE
  5
14
330
5
100
AcDbSymbolTableRecord
100
AcDbLinetypeTableRecord
  2
BYBLOCK
 70
     0
  3

 72
    65
 73
     0
 40
0.0
  0
LTYPE
  5
15
330
5
100
AcDbSymbolTableRecord
100
AcDbLinetypeTableRecord
  2
BYLAYER
 70
     0
  3

 72
    65
 73
     0
 40
0.0
  0
LTYPE
  5
16
330
5
100
AcDbSymbolTableRecord
100
AcDbLinetypeTableRecord
  2
CONTINUOUS
 70
     0
  3
Solid line
 72
    65
 73
     0
 40
0.0
  0
ENDTAB
  0
TABLE
  2
LAYER
  5
2
100
AcDbSymbolTable
 70
1
  0
LAYER
  5
50
100
AcDbSymbolTableRecord
100
AcDbLayerTableRecord
  2
0
 70
0
  6
CONTINUOUS
  0
ENDTAB
  0
TABLE
  2
STYLE
  5
3
330
0
100
AcDbSymbolTable
 70
     1
  0
STYLE
  5
11
330
3
100
AcDbSymbolTableRecord
100
AcDbTextStyleTableRecord
  2
STANDARD
 70
     0
 40
0.0
 41
1.0
 50
0.0
 71
     0
 42
2.5
  3
txt
  4

  0
ENDTAB
  0
TABLE
  2
VIEW
  5
6
330
0
100
AcDbSymbolTable
 70
     0
  0
ENDTAB
  0
TABLE
  2
UCS
  5
7
330
0
100
AcDbSymbolTable
 70
     0
  0
ENDTAB
  0
TABLE
  2
APPID
  5
9
330
0
100
AcDbSymbolTable
 70
     2
  0
APPID
  5
12
330
9
100
AcDbSymbolTableRecord
100
AcDbRegAppTableRecord
  2
ACAD
 70
     0
  0
ENDTAB
  0
TABLE
  2
DIMSTYLE
  5
A
330
0
100
AcDbSymbolTable
 70
     1
  0
DIMSTYLE
105
27
330
A
100
AcDbSymbolTableRecord
100
AcDbDimStyleTableRecord
  2
ISO-25
 70
     0
  3

  4

  5

  6

  7

 40
1.0
 41
2.5
 42
0.625
 43
3.75
 44
1.25
 45
0.0
 46
0.0
 47
0.0
 48
0.0
140
2.5
141
2.5
142
0.0
143
0.03937007874016
144
1.0
145
0.0
146
1.0
147
0.625
 71
     0
 72
     0
 73
     0
 74
     0
 75
     0
 76
     0
 77
     1
 78
     8
170
     0
171
     3
172
     1
173
     0
174
     0
175
     0
176
     0
177
     0
178
     0
270
     2
271
     2
272
     2
273
     2
274
     3
340
11
275
     0
280
     0
281
     0
282
     0
283
     0
284
     8
285
     0
286
     0
287
     3
288
     0
  0
ENDTAB
  0
TABLE
  2
BLOCK_RECORD
  5
1
330
0
100
AcDbSymbolTable
 70
     1
  0
BLOCK_RECORD
  5
1F
330
1
100
AcDbSymbolTableRecord
100
AcDbBlockTableRecord
  2
*MODEL_SPACE
  0
BLOCK_RECORD
  5
1B
330
1
100
AcDbSymbolTableRecord
100
AcDbBlockTableRecord
  2
*PAPER_SPACE
  0
ENDTAB
  0
ENDSEC
  0
SECTION
  2
BLOCKS
  0
BLOCK
  5
20
330
1F
100
AcDbEntity
  8
0
100
AcDbBlockBegin
  2
*MODEL_SPACE
 70
     0
 10
0.0
 20
0.0
 30
0.0
  3
*MODEL_SPACE
  1

  0
ENDBLK
  5
21
330
1F
100
AcDbEntity
  8
0
100
AcDbBlockEnd
  0
BLOCK
  5
1C
330
1B
100
AcDbEntity
 67
     1
  8
0
100
AcDbBlockBegin
  2
*PAPER_SPACE
  1

  0
ENDBLK
  5
1D
330
1B
100
AcDbEntity
 67
     1
  8
0
100
AcDbBlockEnd
  0
ENDSEC
  0
SECTION
  2
ENTITIES
  0
SPLINE
  5
100
100
AcDbEntity
  8
0
 62
7
100
AcDbSpline
 70
0
 71
3
 72
16
 73
12
 74
10
 40
0.000000
 40
0.000000
 40
0.000000
 40
0.000000
 40
2.129312
 40
4.228133
 40
6.357444
 40
8.486756
 40
10.585577
 40
12.714888
 40
14.844200
 40
16.943021
 40
19.072333
 40
19.072333
 40
19.072333
 40
19.072333
 10
13.815605
 20
19.863272
 30
0.0
 10
13.102178
 20
19.790678
 30
0.0
 10
11.685541
 20
19.646531
 30
0.0
 10
9.813149
 20
18.523935
 30
0.0
 10
8.420998
 20
16.879805
 30
0.0
 10
7.682617
 20
14.843279
 30
0.0
 10
7.682617
 20
12.683265
 30
0.0
 10
8.420998
 20
10.646738
 30
0.0
 10
9.813149
 20
9.002608
 30
0.0
 10
11.685541
 20
7.880012
 30
0.0
 10
13.102178
 20
7.735865
 30
0.0
 10
13.815605
 20
7.663272
 30
0.0
 11
13.815605
 21
19.863272
 31
0.0
 11
11.718788
 21
19.492698
 31
0.0
 11
9.900830
 21
18.443852
 31
0.0
 11
8.530482
 21
16.814092
 31
0.0
 11
7.803621
 21
14.812682
 31
0.0
 11
7.803621
 21
12.713861
 31
0.0
 11
8.530482
 21
10.712451
 31
0.0
 11
9.900830
 21
9.082692
 31
0.0
 11
11.718788
 21
8.033846
 31
0.0
 11
13.815605
 21
7.663272
 31
0.0
  0
LWPOLYLINE
  5
101
100
AcDbEntity
  8
0
 62
7
100
AcDbPolyline
 90
4
 70
1
 10
26.132277
 20
82.132287
 30
0.0
 10
26.132277
 20
2.132287
 30
0.0
 10
2.132293
 20
2.132287
 30
0.0
 10
2.132293
 20
82.132287
 30
0.0
  0
SPLINE
  5
102
100
AcDbEntity
  8
0
 62
7
100
AcDbSpline
 70
0
 71
3
 72
16
 73
12
 74
10
 40
0.000000
 40
0.000000
 40
0.000000
 40
0.000000
 40
2.129312
 40
4.228133
 40
6.357444
 40
8.486756
 40
10.585577
 40
12.714888
 40
14.844200
 40
16.943021
 40
19.072333
 40
19.072333
 40
19.072333
 40
19.072333
 10
13.815605
 20
7.663272
 30
0.0
 10
14.529032
 20
7.735865
 30
0.0
 10
15.945669
 20
7.880012
 30
0.0
 10
17.818061
 20
9.002608
 30
0.0
 10
19.210212
 20
10.646738
 30
0.0
 10
19.948593
 20
12.683265
 30
0.0
 10
19.948593
 20
14.843279
 30
0.0
 10
19.210212
 20
16.879805
 30
0.0
 10
17.818061
 20
18.523935
 30
0.0
 10
15.945669
 20
19.646531
 30
0.0
 10
14.529032
 20
19.790678
 30
0.0
 10
13.815605
 20
19.863272
 30
0.0
 11
13.815605
 21
7.663272
 31
0.0
 11
15.912422
 21
8.033846
 31
0.0
 11
17.730380
 21
9.082692
 31
0.0
 11
19.100728
 21
10.712451
 31
0.0
 11
19.827589
 21
12.713861
 31
0.0
 11
19.827589
 21
14.812682
 31
0.0
 11
19.100728
 21
16.814092
 31
0.0
 11
17.730380
 21
18.443852
 31
0.0
 11
15.912422
 21
19.492698
 31
0.0
 11
13.815605
 21
19.863272
 31
0.0
  0
LWPOLYLINE
  5
103
100
AcDbEntity
  8
0
 62
7
100
AcDbPolyline
 90
1
 70
1
 10
13.815605
 20
19.863272
 30
0.0
  0
SPLINE
  5
104
100
AcDbEntity
  8
0
 62
7
100
AcDbSpline
 70
0
 71
3
 72
25
 73
21
 74
19
 40
0.000000
 40
0.000000
 40
0.000000
 40
0.000000
 40
0.558343
 40
1.108695
 40
1.667037
 40
2.225380
 40
2.775732
 40
3.334074
 40
3.892417
 40
4.442769
 40
5.001112
 40
5.559454
 40
6.109806
 40
6.668149
 40
7.226492
 40
7.776844
 40
8.335186
 40
8.893529
 40
9.443881
 40
10.002223
 40
10.002223
 40
10.002223
 40
10.002223
 10
13.815605
 20
28.285031
 30
0.0
 10
13.628542
 20
28.265914
 30
0.0
 10
13.257092
 20
28.227954
 30
0.0
 10
12.766215
 20
27.933447
 30
0.0
 10
12.401262
 20
27.502239
 30
0.0
 10
12.207702
 20
26.968270
 30
0.0
 10
12.207702
 20
26.401668
 30
0.0
 10
12.401262
 20
25.868446
 30
0.0
 10
12.766215
 20
25.434253
 30
0.0
 10
13.257092
 20
25.150841
 30
0.0
 10
13.815605
 20
25.051888
 30
0.0
 10
14.374118
 20
25.150841
 30
0.0
 10
14.864995
 20
25.434253
 30
0.0
 10
15.229949
 20
25.868446
 30
0.0
 10
15.423508
 20
26.401668
 30
0.0
 10
15.423508
 20
26.968270
 30
0.0
 10
15.229949
 20
27.502239
 30
0.0
 10
14.864995
 20
27.933447
 30
0.0
 10
14.374118
 20
28.227954
 30
0.0
 10
14.002668
 20
28.265914
 30
0.0
 10
13.815605
 20
28.285031
 30
0.0
 11
13.815605
 21
28.285031
 31
0.0
 11
13.265823
 21
28.187632
 31
0.0
 11
12.789204
 21
27.912456
 31
0.0
 11
12.429964
 21
27.485030
 31
0.0
 11
12.239423
 21
26.960206
 31
0.0
 11
12.239423
 21
26.409854
 31
0.0
 11
12.429964
 21
25.885030
 31
0.0
 11
12.789204
 21
25.457604
 31
0.0
 11
13.265823
 21
25.182428
 31
0.0
 11
13.815605
 21
25.085030
 31
0.0
 11
14.365387
 21
25.182428
 31
0.0
 11
14.842006
 21
25.457604
 31
0.0
 11
15.201246
 21
25.885030
 31
0.0
 11
15.391788
 21
26.409854
 31
0.0
 11
15.391788
 21
26.960206
 31
0.0
 11
15.201246
 21
27.485030
 31
0.0
 11
14.842006
 21
27.912456
 31
0.0
 11
14.365387
 21
28.187632
 31
0.0
 11
13.815605
 21
28.285031
 31
0.0
  0
LWPOLYLINE
  5
105
100
AcDbEntity
  8
0
 62
7
100
AcDbPolyline
 90
1
 70
1
 10
13.815605
 20
28.285031
 30
0.0
  0
SPLINE
  5
106
100
AcDbEntity
  8
0
 62
7
100
AcDbSpline
 70
0
 71
3
 72
25
 73
21
 74
19
 40
0.000000
 40
0.000000
 40
0.000000
 40
0.000000
 40
0.558343
 40
1.108695
 40
1.667037
 40
2.225380
 40
2.775732
 40
3.334074
 40
3.892417
 40
4.442769
 40
5.001112
 40
5.559454
 40
6.109806
 40
6.668149
 40
7.226492
 40
7.776844
 40
8.335186
 40
8.893529
 40
9.443881
 40
10.002223
 40
10.002223
 40
10.002223
 40
10.002223
 10
20.608597
 20
28.285031
 30
0.0
 10
20.421533
 20
28.265914
 30
0.0
 10
20.050084
 20
28.227954
 30
0.0
 10
19.559207
 20
27.933447
 30
0.0
 10
19.194253
 20
27.502239
 30
0.0
 10
19.000694
 20
26.968270
 30
0.0
 10
19.000694
 20
26.401668
 30
0.0
 10
19.194253
 20
25.868446
 30
0.0
 10
19.559207
 20
25.434253
 30
0.0
 10
20.050084
 20
25.150841
 30
0.0
 10
20.608597
 20
25.051888
 30
0.0
 10
21.167110
 20
25.150841
 30
0.0
 10
21.657987
 20
25.434253
 30
0.0
 10
22.022940
 20
25.868446
 30
0.0
 10
22.216500
 20
26.401668
 30
0.0
 10
22.216500
 20
26.968270
 30
0.0
 10
22.022940
 20
27.502239
 30
0.0
 10
21.657987
 20
27.933447
 30
0.0
 10
21.167110
 20
28.227954
 30
0.0
 10
20.795660
 20
28.265914
 30
0.0
 10
20.608597
 20
28.285031
 30
0.0
 11
20.608597
 21
28.285031
 31
0.0
 11
20.058815
 21
28.187632
 31
0.0
 11
19.582196
 21
27.912456
 31
0.0
 11
19.222956
 21
27.485030
 31
0.0
 11
19.032414
 21
26.960206
 31
0.0
 11
19.032414
 21
26.409854
 31
0.0
 11
19.222956
 21
25.885030
 31
0.0
 11
19.582196
 21
25.457604
 31
0.0
 11
20.058815
 21
25.182428
 31
0.0
 11
20.608597
 21
25.085030
 31
0.0
 11
21.158379
 21
25.182428
 31
0.0
 11
21.634998
 21
25.457604
 31
0.0
 11
21.994238
 21
25.885030
 31
0.0
 11
22.184779
 21
26.409854
 31
0.0
 11
22.184779
 21
26.960206
 31
0.0
 11
21.994238
 21
27.485030
 31
0.0
 11
21.634998
 21
27.912456
 31
0.0
 11
21.158379
 21
28.187632
 31
0.0
 11
20.608597
 21
28.285031
 31
0.0
  0
SPLINE
  5
107
100
AcDbEntity
  8
0
 62
7
100
AcDbSpline
 70
0
 71
3
 72
16
 73
12
 74
10
 40
0.000000
 40
0.000000
 40
0.000000
 40
0.000000
 40
1.221802
 40
2.426106
 40
3.647907
 40
4.869709
 40
6.074013
 40
7.295814
 40
8.517616
 40
9.721920
 40
10.943722
 40
10.943722
 40
10.943722
 40
10.943722
 10
15.422129
 20
73.490022
 30
0.0
 10
15.012760
 20
73.448400
 30
0.0
 10
14.199885
 20
73.365752
 30
0.0
 10
13.125465
 20
72.721663
 30
0.0
 10
12.326611
 20
71.778288
 30
0.0
 10
11.902905
 20
70.609732
 30
0.0
 10
11.902905
 20
69.370312
 30
0.0
 10
12.326611
 20
68.201756
 30
0.0
 10
13.125465
 20
67.258381
 30
0.0
 10
14.199885
 20
66.614292
 30
0.0
 10
15.012760
 20
66.531644
 30
0.0
 10
15.422129
 20
66.490022
 30
0.0
 11
15.422129
 21
73.490022
 31
0.0
 11
14.218956
 21
73.277476
 31
0.0
 11
13.175778
 21
72.675706
 31
0.0
 11
12.389436
 21
71.740578
 31
0.0
 11
11.972341
 21
70.592174
 31
0.0
 11
11.972341
 21
69.387870
 31
0.0
 11
12.389436
 21
68.239466
 31
0.0
 11
13.175778
 21
67.304338
 31
0.0
 11
14.218956
 21
66.702568
 31
0.0
 11
15.422129
 21
66.490022
 31
0.0
  0
LWPOLYLINE
  5
108
100
AcDbEntity
  8
0
 62
7
100
AcDbPolyline
 90
1
 70
1
 10
20.608597
 20
28.285031
 30
0.0
  0
LWPOLYLINE
  5
109
100
AcDbEntity
  8
0
 62
7
100
AcDbPolyline
 90
1
 70
1
 10
15.422129
 20
73.490022
 30
0.0
  0
SPLINE
  5
10a
100
AcDbEntity
  8
0
 62
7
100
AcDbSpline
 70
0
 71
3
 72
16
 73
12
 74
10
 40
0.000000
 40
0.000000
 40
0.000000
 40
0.000000
 40
1.221802
 40
2.426106
 40
3.647907
 40
4.869709
 40
6.074013
 40
7.295814
 40
8.517616
 40
9.721920
 40
10.943722
 40
10.943722
 40
10.943722
 40
10.943722
 10
15.422129
 20
66.490022
 30
0.0
 10
15.831497
 20
66.531644
 30
0.0
 10
16.644372
 20
66.614292
 30
0.0
 10
17.718792
 20
67.258381
 30
0.0
 10
18.517646
 20
68.201756
 30
0.0
 10
18.941352
 20
69.370312
 30
0.0
 10
18.941352
 20
70.609732
 30
0.0
 10
18.517646
 20
71.778288
 30
0.0
 10
17.718792
 20
72.721663
 30
0.0
 10
16.644372
 20
73.365752
 30
0.0
 10
15.831497
 20
73.448400
 30
0.0
 10
15.422129
 20
73.490022
 30
0.0
 11
15.422129
 21
66.490022
 31
0.0
 11
16.625301
 21
66.702568
 31
0.0
 11
17.668479
 21
67.304338
 31
0.0
 11
18.454821
 21
68.239466
 31
0.0
 11
18.871916
 21
69.387870
 31
0.0
 11
18.871916
 21
70.592174
 31
0.0
 11
18.454821
 21
71.740578
 31
0.0
 11
17.668479
 21
72.675706
 31
0.0
 11
16.625301
 21
73.277476
 31
0.0
 11
15.422129
 21
73.490022
 31
0.0
  0
LWPOLYLINE
  5
10b
100
AcDbEntity
  8
0
 62
7
100
AcDbPolyline
 90
4
 70
1
 10
7.791148
 20
54.935031
 30
0.0
 10
7.791148
 20
31.435030
 30
0.0
 10
21.791152
 20
31.435030
 30
0.0
 10
21.791152
 20
54.935031
 30
0.0
  0
ENDSEC
  0
SECTION
  2
OBJECTS
  0
DICTIONARY
  5
C
330
0
100
AcDbDictionary
  3
ACAD_GROUP
350
D
  3
ACAD_MLINESTYLE
350
17
  0
DICTIONARY
  5
D
330
C
100
AcDbDictionary
  0
DICTIONARY
  5
1A
330
C
100
AcDbDictionary
  0
DICTIONARY
  5
17
330
C
100
AcDbDictionary
  3
STANDARD
350
18
  0
DICTIONARY
  5
19
330
C
100
AcDbDictionary
  0
ENDSEC
  0
EOF
