  0
SECTION
  2
BLOCKS
  0
ENDSEC
  0
SECTION
  2
ENTITIES
  0
LINE
  8
0
 10
-6
 20
-75
 11
-1
 21
-75
  0
LINE
  8
0
 10
-1
 20
-75
 11
-1
 21
-78
  0
LINE
  8
0
 10
-1
 20
-78
 11
1
 21
-78
  0
LINE
  8
0
 10
1
 20
-78
 11
1
 21
-75
  0
LINE
  8
0
 10
1
 20
-75
 11
6
 21
-75
  0
LINE
  8
0
 10
6
 20
-75
 11
6
 21
-78
  0
LINE
  8
0
 10
6
 20
-78
 11
14
 21
-78
  0
LINE
  8
0
 10
14
 20
-78
 11
14
 21
-65
  0
LINE
  8
0
 10
14
 20
-65
 11
11
 21
-65
  0
LINE
  8
0
 10
11
 20
-65
 11
11
 21
-60
  0
LINE
  8
0
 10
11
 20
-60
 11
14
 21
-60
  0
LINE
  8
0
 10
14
 20
-60
 11
14
 21
-23.3333
  0
LINE
  8
0
 10
14
 20
-23.3333
 11
11
 21
-23.3333
  0
LINE
  8
0
 10
11
 20
-23.3333
 11
11
 21
-18.3333
  0
LINE
  8
0
 10
11
 20
-18.3333
 11
14
 21
-18.3333
  0
LINE
  8
0
 10
14
 20
-18.3333
 11
14
 21
18.3333
  0
LINE
  8
0
 10
14
 20
18.3333
 11
11
 21
18.3333
  0
LINE
  8
0
 10
11
 20
18.3333
 11
11
 21
23.3333
  0
LINE
  8
0
 10
11
 20
23.3333
 11
14
 21
23.3333
  0
LINE
  8
0
 10
14
 20
23.3333
 11
14
 21
60
  0
LINE
  8
0
 10
14
 20
60
 11
11
 21
60
  0
LINE
  8
0
 10
11
 20
60
 11
11
 21
65
  0
LINE
  8
0
 10
11
 20
65
 11
14
 21
65
  0
LINE
  8
0
 10
14
 20
65
 11
14
 21
78
  0
LINE
  8
0
 10
14
 20
78
 11
6
 21
78
  0
LINE
  8
0
 10
6
 20
78
 11
6
 21
75
  0
LINE
  8
0
 10
6
 20
75
 11
1
 21
75
  0
LINE
  8
0
 10
1
 20
75
 11
1
 21
78
  0
LINE
  8
0
 10
1
 20
78
 11
-1
 21
78
  0
LINE
  8
0
 10
-1
 20
78
 11
-1
 21
75
  0
LINE
  8
0
 10
-1
 20
75
 11
-6
 21
75
  0
LINE
  8
0
 10
-6
 20
75
 11
-6
 21
78
  0
LINE
  8
0
 10
-6
 20
78
 11
-14
 21
78
  0
LINE
  8
0
 10
-14
 20
78
 11
-14
 21
65
  0
LINE
  8
0
 10
-14
 20
65
 11
-11
 21
65
  0
LINE
  8
0
 10
-11
 20
65
 11
-11
 21
60
  0
LINE
  8
0
 10
-11
 20
60
 11
-14
 21
60
  0
LINE
  8
0
 10
-14
 20
60
 11
-14
 21
23.3333
  0
LINE
  8
0
 10
-14
 20
23.3333
 11
-11
 21
23.3333
  0
LINE
  8
0
 10
-11
 20
23.3333
 11
-11
 21
18.3333
  0
LINE
  8
0
 10
-11
 20
18.3333
 11
-14
 21
18.3333
  0
LINE
  8
0
 10
-14
 20
18.3333
 11
-14
 21
-18.3333
  0
LINE
  8
0
 10
-14
 20
-18.3333
 11
-11
 21
-18.3333
  0
LINE
  8
0
 10
-11
 20
-18.3333
 11
-11
 21
-23.3333
  0
LINE
  8
0
 10
-11
 20
-23.3333
 11
-14
 21
-23.3333
  0
LINE
  8
0
 10
-14
 20
-23.3333
 11
-14
 21
-60
  0
LINE
  8
0
 10
-14
 20
-60
 11
-11
 21
-60
  0
LINE
  8
0
 10
-11
 20
-60
 11
-11
 21
-65
  0
LINE
  8
0
 10
-11
 20
-65
 11
-14
 21
-65
  0
LINE
  8
0
 10
-14
 20
-65
 11
-14
 21
-78
  0
LINE
  8
0
 10
-14
 20
-78
 11
-6
 21
-78
  0
LINE
  8
0
 10
-6
 20
-78
 11
-6
 21
-75
  0
LINE
  8
0
 10
-6
 20
-236
 11
-1
 21
-236
  0
LINE
  8
0
 10
-1
 20
-236
 11
-1
 21
-239
  0
LINE
  8
0
 10
-1
 20
-239
 11
1
 21
-239
  0
LINE
  8
0
 10
1
 20
-239
 11
1
 21
-236
  0
LINE
  8
0
 10
1
 20
-236
 11
6
 21
-236
  0
LINE
  8
0
 10
6
 20
-236
 11
6
 21
-239
  0
LINE
  8
0
 10
6
 20
-239
 11
14
 21
-239
  0
LINE
  8
0
 10
14
 20
-239
 11
14
 21
-226
  0
LINE
  8
0
 10
14
 20
-226
 11
11
 21
-226
  0
LINE
  8
0
 10
11
 20
-226
 11
11
 21
-221
  0
LINE
  8
0
 10
11
 20
-221
 11
14
 21
-221
  0
LINE
  8
0
 10
14
 20
-221
 11
14
 21
-184.333
  0
LINE
  8
0
 10
14
 20
-184.333
 11
11
 21
-184.333
  0
LINE
  8
0
 10
11
 20
-184.333
 11
11
 21
-179.333
  0
LINE
  8
0
 10
11
 20
-179.333
 11
14
 21
-179.333
  0
LINE
  8
0
 10
14
 20
-179.333
 11
14
 21
-142.667
  0
LINE
  8
0
 10
14
 20
-142.667
 11
11
 21
-142.667
  0
LINE
  8
0
 10
11
 20
-142.667
 11
11
 21
-137.667
  0
LINE
  8
0
 10
11
 20
-137.667
 11
14
 21
-137.667
  0
LINE
  8
0
 10
14
 20
-137.667
 11
14
 21
-101
  0
LINE
  8
0
 10
14
 20
-101
 11
11
 21
-101
  0
LINE
  8
0
 10
11
 20
-101
 11
11
 21
-96
  0
LINE
  8
0
 10
11
 20
-96
 11
14
 21
-96
  0
LINE
  8
0
 10
14
 20
-96
 11
14
 21
-83
  0
LINE
  8
0
 10
14
 20
-83
 11
6
 21
-83
  0
LINE
  8
0
 10
6
 20
-83
 11
6
 21
-86
  0
LINE
  8
0
 10
6
 20
-86
 11
1
 21
-86
  0
LINE
  8
0
 10
1
 20
-86
 11
1
 21
-83
  0
LINE
  8
0
 10
1
 20
-83
 11
-1
 21
-83
  0
LINE
  8
0
 10
-1
 20
-83
 11
-1
 21
-86
  0
LINE
  8
0
 10
-1
 20
-86
 11
-6
 21
-86
  0
LINE
  8
0
 10
-6
 20
-86
 11
-6
 21
-83
  0
LINE
  8
0
 10
-6
 20
-83
 11
-14
 21
-83
  0
LINE
  8
0
 10
-14
 20
-83
 11
-14
 21
-96
  0
LINE
  8
0
 10
-14
 20
-96
 11
-11
 21
-96
  0
LINE
  8
0
 10
-11
 20
-96
 11
-11
 21
-101
  0
LINE
  8
0
 10
-11
 20
-101
 11
-14
 21
-101
  0
LINE
  8
0
 10
-14
 20
-101
 11
-14
 21
-137.667
  0
LINE
  8
0
 10
-14
 20
-137.667
 11
-11
 21
-137.667
  0
LINE
  8
0
 10
-11
 20
-137.667
 11
-11
 21
-142.667
  0
LINE
  8
0
 10
-11
 20
-142.667
 11
-14
 21
-142.667
  0
LINE
  8
0
 10
-14
 20
-142.667
 11
-14
 21
-179.333
  0
LINE
  8
0
 10
-14
 20
-179.333
 11
-11
 21
-179.333
  0
LINE
  8
0
 10
-11
 20
-179.333
 11
-11
 21
-184.333
  0
LINE
  8
0
 10
-11
 20
-184.333
 11
-14
 21
-184.333
  0
LINE
  8
0
 10
-14
 20
-184.333
 11
-14
 21
-221
  0
LINE
  8
0
 10
-14
 20
-221
 11
-11
 21
-221
  0
LINE
  8
0
 10
-11
 20
-221
 11
-11
 21
-226
  0
LINE
  8
0
 10
-11
 20
-226
 11
-14
 21
-226
  0
LINE
  8
0
 10
-14
 20
-226
 11
-14
 21
-239
  0
LINE
  8
0
 10
-14
 20
-239
 11
-6
 21
-239
  0
LINE
  8
0
 10
-6
 20
-239
 11
-6
 21
-236
  0
LINE
  8
0
 10
-1
 20
-487
 11
1
 21
-487
  0
LINE
  8
0
 10
1
 20
-487
 11
1
 21
-490
  0
LINE
  8
0
 10
1
 20
-490
 11
6
 21
-490
  0
LINE
  8
0
 10
6
 20
-490
 11
6
 21
-487
  0
LINE
  8
0
 10
6
 20
-487
 11
14
 21
-487
  0
LINE
  8
0
 10
14
 20
-487
 11
14
 21
-405.333
  0
LINE
  8
0
 10
14
 20
-405.333
 11
11
 21
-405.333
  0
LINE
  8
0
 10
11
 20
-405.333
 11
11
 21
-400.333
  0
LINE
  8
0
 10
11
 20
-400.333
 11
14
 21
-400.333
  0
LINE
  8
0
 10
14
 20
-400.333
 11
14
 21
-333.667
  0
LINE
  8
0
 10
14
 20
-333.667
 11
11
 21
-333.667
  0
LINE
  8
0
 10
11
 20
-333.667
 11
11
 21
-328.667
  0
LINE
  8
0
 10
11
 20
-328.667
 11
14
 21
-328.667
  0
LINE
  8
0
 10
14
 20
-328.667
 11
14
 21
-262
  0
LINE
  8
0
 10
14
 20
-262
 11
11
 21
-262
  0
LINE
  8
0
 10
11
 20
-262
 11
11
 21
-257
  0
LINE
  8
0
 10
11
 20
-257
 11
14
 21
-257
  0
LINE
  8
0
 10
14
 20
-257
 11
14
 21
-247
  0
LINE
  8
0
 10
14
 20
-247
 11
6
 21
-247
  0
LINE
  8
0
 10
6
 20
-247
 11
6
 21
-244
  0
LINE
  8
0
 10
6
 20
-244
 11
1
 21
-244
  0
LINE
  8
0
 10
1
 20
-244
 11
1
 21
-247
  0
LINE
  8
0
 10
1
 20
-247
 11
-1
 21
-247
  0
LINE
  8
0
 10
-1
 20
-247
 11
-1
 21
-244
  0
LINE
  8
0
 10
-1
 20
-244
 11
-6
 21
-244
  0
LINE
  8
0
 10
-6
 20
-244
 11
-6
 21
-247
  0
LINE
  8
0
 10
-6
 20
-247
 11
-14
 21
-247
  0
LINE
  8
0
 10
-14
 20
-247
 11
-14
 21
-257
  0
LINE
  8
0
 10
-14
 20
-257
 11
-11
 21
-257
  0
LINE
  8
0
 10
-11
 20
-257
 11
-11
 21
-262
  0
LINE
  8
0
 10
-11
 20
-262
 11
-14
 21
-262
  0
LINE
  8
0
 10
-14
 20
-262
 11
-14
 21
-328.667
  0
LINE
  8
0
 10
-14
 20
-328.667
 11
-11
 21
-328.667
  0
LINE
  8
0
 10
-11
 20
-328.667
 11
-11
 21
-333.667
  0
LINE
  8
0
 10
-11
 20
-333.667
 11
-14
 21
-333.667
  0
LINE
  8
0
 10
-14
 20
-333.667
 11
-14
 21
-400.333
  0
LINE
  8
0
 10
-14
 20
-400.333
 11
-11
 21
-400.333
  0
LINE
  8
0
 10
-11
 20
-400.333
 11
-11
 21
-405.333
  0
LINE
  8
0
 10
-11
 20
-405.333
 11
-14
 21
-405.333
  0
LINE
  8
0
 10
-14
 20
-405.333
 11
-14
 21
-487
  0
LINE
  8
0
 10
-14
 20
-487
 11
-6
 21
-487
  0
LINE
  8
0
 10
-6
 20
-487
 11
-6
 21
-490
  0
LINE
  8
0
 10
-6
 20
-490
 11
-1
 21
-490
  0
LINE
  8
0
 10
-1
 20
-490
 11
-1
 21
-487
  0
LINE
  8
0
 10
-2.91211
 20
-264.493
 11
-4.73047
 21
-263.444
  0
LINE
  8
0
 10
-4.73047
 20
-263.444
 11
-6.10059
 21
-261.814
  0
LINE
  8
0
 10
-6.10059
 20
-261.814
 11
-6.82812
 21
-259.812
  0
LINE
  8
0
 10
-6.82812
 20
-259.812
 11
-6.82812
 21
-257.714
  0
LINE
  8
0
 10
-6.82812
 20
-257.714
 11
-6.10059
 21
-255.713
  0
LINE
  8
0
 10
-6.10059
 20
-255.713
 11
-4.73047
 21
-254.083
  0
LINE
  8
0
 10
-4.73047
 20
-254.083
 11
-2.91211
 21
-253.034
  0
LINE
  8
0
 10
-2.91211
 20
-253.034
 11
-0.81543
 21
-252.663
  0
LINE
  8
0
 10
-0.81543
 20
-252.663
 11
1.28125
 21
-253.034
  0
LINE
  8
0
 10
1.28125
 20
-253.034
 11
3.09961
 21
-254.083
  0
LINE
  8
0
 10
3.09961
 20
-254.083
 11
4.46973
 21
-255.713
  0
LINE
  8
0
 10
4.46973
 20
-255.713
 11
5.19629
 21
-257.714
  0
LINE
  8
0
 10
5.19629
 20
-257.714
 11
5.19629
 21
-259.812
  0
LINE
  8
0
 10
5.19629
 20
-259.812
 11
4.46973
 21
-261.814
  0
LINE
  8
0
 10
4.46973
 20
-261.814
 11
3.09961
 21
-263.444
  0
LINE
  8
0
 10
3.09961
 20
-263.444
 11
1.28125
 21
-264.493
  0
LINE
  8
0
 10
1.28125
 20
-264.493
 11
-0.81543
 21
-264.863
  0
LINE
  8
0
 10
-0.81543
 20
-264.863
 11
-2.91211
 21
-264.493
  0
LINE
  8
0
 10
-8.1582
 20
-273.188
 11
-8.63477
 21
-272.913
  0
LINE
  8
0
 10
-8.63477
 20
-272.913
 11
-8.99414
 21
-272.485
  0
LINE
  8
0
 10
-8.99414
 20
-272.485
 11
-9.18457
 21
-271.96
  0
LINE
  8
0
 10
-9.18457
 20
-271.96
 11
-9.18457
 21
-271.41
  0
LINE
  8
0
 10
-9.18457
 20
-271.41
 11
-8.99414
 21
-270.886
  0
LINE
  8
0
 10
-8.99414
 20
-270.886
 11
-8.63477
 21
-270.457
  0
LINE
  8
0
 10
-8.63477
 20
-270.457
 11
-8.1582
 21
-270.183
  0
LINE
  8
0
 10
-8.1582
 20
-270.183
 11
-7.6084
 21
-270.085
  0
LINE
  8
0
 10
-7.6084
 20
-270.085
 11
-7.05859
 21
-270.183
  0
LINE
  8
0
 10
-7.05859
 20
-270.183
 11
-6.58203
 21
-270.457
  0
LINE
  8
0
 10
-6.58203
 20
-270.457
 11
-6.22363
 21
-270.886
  0
LINE
  8
0
 10
-6.22363
 20
-270.886
 11
-6.03223
 21
-271.41
  0
LINE
  8
0
 10
-6.03223
 20
-271.41
 11
-6.03223
 21
-271.96
  0
LINE
  8
0
 10
-6.03223
 20
-271.96
 11
-6.22363
 21
-272.485
  0
LINE
  8
0
 10
-6.22363
 20
-272.485
 11
-6.58203
 21
-272.913
  0
LINE
  8
0
 10
-6.58203
 20
-272.913
 11
-7.05859
 21
-273.188
  0
LINE
  8
0
 10
-7.05859
 20
-273.188
 11
-7.6084
 21
-273.285
  0
LINE
  8
0
 10
-7.6084
 20
-273.285
 11
-8.1582
 21
-273.188
  0
LINE
  8
0
 10
-1.36523
 20
-273.188
 11
-1.8418
 21
-272.913
  0
LINE
  8
0
 10
-1.8418
 20
-272.913
 11
-2.20117
 21
-272.485
  0
LINE
  8
0
 10
-2.20117
 20
-272.485
 11
-2.3916
 21
-271.96
  0
LINE
  8
0
 10
-2.3916
 20
-271.96
 11
-2.3916
 21
-271.41
  0
LINE
  8
0
 10
-2.3916
 20
-271.41
 11
-2.20117
 21
-270.886
  0
LINE
  8
0
 10
-2.20117
 20
-270.886
 11
-1.8418
 21
-270.457
  0
LINE
  8
0
 10
-1.8418
 20
-270.457
 11
-1.36523
 21
-270.183
  0
LINE
  8
0
 10
-1.36523
 20
-270.183
 11
-0.81543
 21
-270.085
  0
LINE
  8
0
 10
-0.81543
 20
-270.085
 11
-0.265625
 21
-270.183
  0
LINE
  8
0
 10
-0.265625
 20
-270.183
 11
0.210938
 21
-270.457
  0
LINE
  8
0
 10
0.210938
 20
-270.457
 11
0.570312
 21
-270.886
  0
LINE
  8
0
 10
0.570312
 20
-270.886
 11
0.760742
 21
-271.41
  0
LINE
  8
0
 10
0.760742
 20
-271.41
 11
0.760742
 21
-271.96
  0
LINE
  8
0
 10
0.760742
 20
-271.96
 11
0.570312
 21
-272.485
  0
LINE
  8
0
 10
0.570312
 20
-272.485
 11
0.210938
 21
-272.913
  0
LINE
  8
0
 10
0.210938
 20
-272.913
 11
-0.265625
 21
-273.188
  0
LINE
  8
0
 10
-0.265625
 20
-273.188
 11
-0.81543
 21
-273.285
  0
LINE
  8
0
 10
-0.81543
 20
-273.285
 11
-1.36523
 21
-273.188
  0
LINE
  8
0
 10
-8.79102
 20
-299.936
 11
-8.79102
 21
-276.435
  0
LINE
  8
0
 10
-8.79102
 20
-276.435
 11
5.20898
 21
-276.435
  0
LINE
  8
0
 10
5.20898
 20
-276.435
 11
5.20898
 21
-299.936
  0
LINE
  8
0
 10
5.20898
 20
-299.936
 11
-8.79102
 21
-299.936
  0
LINE
  8
0
 10
-3.625
 20
-318.277
 11
-4.66895
 21
-317.676
  0
LINE
  8
0
 10
-4.66895
 20
-317.676
 11
-5.45508
 21
-316.74
  0
LINE
  8
0
 10
-5.45508
 20
-316.74
 11
-5.87207
 21
-315.592
  0
LINE
  8
0
 10
-5.87207
 20
-315.592
 11
-5.87207
 21
-314.388
  0
LINE
  8
0
 10
-5.87207
 20
-314.388
 11
-5.45508
 21
-313.239
  0
LINE
  8
0
 10
-5.45508
 20
-313.239
 11
-4.66895
 21
-312.305
  0
LINE
  8
0
 10
-4.66895
 20
-312.305
 11
-3.625
 21
-311.702
  0
LINE
  8
0
 10
-3.625
 20
-311.702
 11
-2.42285
 21
-311.49
  0
LINE
  8
0
 10
-2.42285
 20
-311.49
 11
-1.21875
 21
-311.702
  0
LINE
  8
0
 10
-1.21875
 20
-311.702
 11
-0.175781
 21
-312.305
  0
LINE
  8
0
 10
-0.175781
 20
-312.305
 11
0.610352
 21
-313.239
  0
LINE
  8
0
 10
0.610352
 20
-313.239
 11
1.02734
 21
-314.388
  0
LINE
  8
0
 10
1.02734
 20
-314.388
 11
1.02734
 21
-315.592
  0
LINE
  8
0
 10
1.02734
 20
-315.592
 11
0.610352
 21
-316.74
  0
LINE
  8
0
 10
0.610352
 20
-316.74
 11
-0.175781
 21
-317.676
  0
LINE
  8
0
 10
-0.175781
 20
-317.676
 11
-1.21875
 21
-318.277
  0
LINE
  8
0
 10
-1.21875
 20
-318.277
 11
-2.42285
 21
-318.49
  0
LINE
  8
0
 10
-2.42285
 20
-318.49
 11
-3.625
 21
-318.277
  0
LINE
  8
0
 10
-2.91211
 20
-344.493
 11
-4.73047
 21
-343.443
  0
LINE
  8
0
 10
-4.73047
 20
-343.443
 11
-6.10059
 21
-341.814
  0
LINE
  8
0
 10
-6.10059
 20
-341.814
 11
-6.82812
 21
-339.812
  0
LINE
  8
0
 10
-6.82812
 20
-339.812
 11
-6.82812
 21
-337.714
  0
LINE
  8
0
 10
-6.82812
 20
-337.714
 11
-6.10059
 21
-335.713
  0
LINE
  8
0
 10
-6.10059
 20
-335.713
 11
-4.73047
 21
-334.083
  0
LINE
  8
0
 10
-4.73047
 20
-334.083
 11
-2.91211
 21
-333.034
  0
LINE
  8
0
 10
-2.91211
 20
-333.034
 11
-0.81543
 21
-332.663
  0
LINE
  8
0
 10
-0.81543
 20
-332.663
 11
1.28125
 21
-333.034
  0
LINE
  8
0
 10
1.28125
 20
-333.034
 11
3.09961
 21
-334.083
  0
LINE
  8
0
 10
3.09961
 20
-334.083
 11
4.46973
 21
-335.713
  0
LINE
  8
0
 10
4.46973
 20
-335.713
 11
5.19629
 21
-337.714
  0
LINE
  8
0
 10
5.19629
 20
-337.714
 11
5.19629
 21
-339.812
  0
LINE
  8
0
 10
5.19629
 20
-339.812
 11
4.46973
 21
-341.814
  0
LINE
  8
0
 10
4.46973
 20
-341.814
 11
3.09961
 21
-343.443
  0
LINE
  8
0
 10
3.09961
 20
-343.443
 11
1.28125
 21
-344.493
  0
LINE
  8
0
 10
1.28125
 20
-344.493
 11
-0.81543
 21
-344.863
  0
LINE
  8
0
 10
-0.81543
 20
-344.863
 11
-2.91211
 21
-344.493
  0
LINE
  8
0
 10
-8.1582
 20
-353.188
 11
-8.63477
 21
-352.912
  0
LINE
  8
0
 10
-8.63477
 20
-352.912
 11
-8.99414
 21
-352.485
  0
LINE
  8
0
 10
-8.99414
 20
-352.485
 11
-9.18457
 21
-351.961
  0
LINE
  8
0
 10
-9.18457
 20
-351.961
 11
-9.18457
 21
-351.41
  0
LINE
  8
0
 10
-9.18457
 20
-351.41
 11
-8.99414
 21
-350.885
  0
LINE
  8
0
 10
-8.99414
 20
-350.885
 11
-8.63477
 21
-350.458
  0
LINE
  8
0
 10
-8.63477
 20
-350.458
 11
-8.1582
 21
-350.183
  0
LINE
  8
0
 10
-8.1582
 20
-350.183
 11
-7.6084
 21
-350.085
  0
LINE
  8
0
 10
-7.6084
 20
-350.085
 11
-7.05859
 21
-350.183
  0
LINE
  8
0
 10
-7.05859
 20
-350.183
 11
-6.58203
 21
-350.458
  0
LINE
  8
0
 10
-6.58203
 20
-350.458
 11
-6.22363
 21
-350.885
  0
LINE
  8
0
 10
-6.22363
 20
-350.885
 11
-6.03223
 21
-351.41
  0
LINE
  8
0
 10
-6.03223
 20
-351.41
 11
-6.03223
 21
-351.961
  0
LINE
  8
0
 10
-6.03223
 20
-351.961
 11
-6.22363
 21
-352.485
  0
LINE
  8
0
 10
-6.22363
 20
-352.485
 11
-6.58203
 21
-352.912
  0
LINE
  8
0
 10
-6.58203
 20
-352.912
 11
-7.05859
 21
-353.188
  0
LINE
  8
0
 10
-7.05859
 20
-353.188
 11
-7.6084
 21
-353.285
  0
LINE
  8
0
 10
-7.6084
 20
-353.285
 11
-8.1582
 21
-353.188
  0
LINE
  8
0
 10
-1.36523
 20
-353.188
 11
-1.8418
 21
-352.912
  0
LINE
  8
0
 10
-1.8418
 20
-352.912
 11
-2.20117
 21
-352.485
  0
LINE
  8
0
 10
-2.20117
 20
-352.485
 11
-2.3916
 21
-351.961
  0
LINE
  8
0
 10
-2.3916
 20
-351.961
 11
-2.3916
 21
-351.41
  0
LINE
  8
0
 10
-2.3916
 20
-351.41
 11
-2.20117
 21
-350.885
  0
LINE
  8
0
 10
-2.20117
 20
-350.885
 11
-1.8418
 21
-350.458
  0
LINE
  8
0
 10
-1.8418
 20
-350.458
 11
-1.36523
 21
-350.183
  0
LINE
  8
0
 10
-1.36523
 20
-350.183
 11
-0.81543
 21
-350.085
  0
LINE
  8
0
 10
-0.81543
 20
-350.085
 11
-0.265625
 21
-350.183
  0
LINE
  8
0
 10
-0.265625
 20
-350.183
 11
0.210938
 21
-350.458
  0
LINE
  8
0
 10
0.210938
 20
-350.458
 11
0.570312
 21
-350.885
  0
LINE
  8
0
 10
0.570312
 20
-350.885
 11
0.760742
 21
-351.41
  0
LINE
  8
0
 10
0.760742
 20
-351.41
 11
0.760742
 21
-351.961
  0
LINE
  8
0
 10
0.760742
 20
-351.961
 11
0.570312
 21
-352.485
  0
LINE
  8
0
 10
0.570312
 20
-352.485
 11
0.210938
 21
-352.912
  0
LINE
  8
0
 10
0.210938
 20
-352.912
 11
-0.265625
 21
-353.188
  0
LINE
  8
0
 10
-0.265625
 20
-353.188
 11
-0.81543
 21
-353.285
  0
LINE
  8
0
 10
-0.81543
 20
-353.285
 11
-1.36523
 21
-353.188
  0
LINE
  8
0
 10
-8.79102
 20
-379.935
 11
-8.79102
 21
-356.436
  0
LINE
  8
0
 10
-8.79102
 20
-356.436
 11
5.20898
 21
-356.436
  0
LINE
  8
0
 10
5.20898
 20
-356.436
 11
5.20898
 21
-379.935
  0
LINE
  8
0
 10
5.20898
 20
-379.935
 11
-8.79102
 21
-379.935
  0
LINE
  8
0
 10
-3.625
 20
-398.277
 11
-4.66895
 21
-397.676
  0
LINE
  8
0
 10
-4.66895
 20
-397.676
 11
-5.45508
 21
-396.741
  0
LINE
  8
0
 10
-5.45508
 20
-396.741
 11
-5.87207
 21
-395.593
  0
LINE
  8
0
 10
-5.87207
 20
-395.593
 11
-5.87207
 21
-394.388
  0
LINE
  8
0
 10
-5.87207
 20
-394.388
 11
-5.45508
 21
-393.239
  0
LINE
  8
0
 10
-5.45508
 20
-393.239
 11
-4.66895
 21
-392.305
  0
LINE
  8
0
 10
-4.66895
 20
-392.305
 11
-3.625
 21
-391.703
  0
LINE
  8
0
 10
-3.625
 20
-391.703
 11
-2.42285
 21
-391.49
  0
LINE
  8
0
 10
-2.42285
 20
-391.49
 11
-1.21875
 21
-391.703
  0
LINE
  8
0
 10
-1.21875
 20
-391.703
 11
-0.175781
 21
-392.305
  0
LINE
  8
0
 10
-0.175781
 20
-392.305
 11
0.610352
 21
-393.239
  0
LINE
  8
0
 10
0.610352
 20
-393.239
 11
1.02734
 21
-394.388
  0
LINE
  8
0
 10
1.02734
 20
-394.388
 11
1.02734
 21
-395.593
  0
LINE
  8
0
 10
1.02734
 20
-395.593
 11
0.610352
 21
-396.741
  0
LINE
  8
0
 10
0.610352
 20
-396.741
 11
-0.175781
 21
-397.676
  0
LINE
  8
0
 10
-0.175781
 20
-397.676
 11
-1.21875
 21
-398.277
  0
LINE
  8
0
 10
-1.21875
 20
-398.277
 11
-2.42285
 21
-398.49
  0
LINE
  8
0
 10
-2.42285
 20
-398.49
 11
-3.625
 21
-398.277
  0
LINE
  8
0
 10
-2.91211
 20
-424.492
 11
-4.73047
 21
-423.444
  0
LINE
  8
0
 10
-4.73047
 20
-423.444
 11
-6.10059
 21
-421.814
  0
LINE
  8
0
 10
-6.10059
 20
-421.814
 11
-6.82812
 21
-419.812
  0
LINE
  8
0
 10
-6.82812
 20
-419.812
 11
-6.82812
 21
-417.714
  0
LINE
  8
0
 10
-6.82812
 20
-417.714
 11
-6.10059
 21
-415.713
  0
LINE
  8
0
 10
-6.10059
 20
-415.713
 11
-4.73047
 21
-414.083
  0
LINE
  8
0
 10
-4.73047
 20
-414.083
 11
-2.91211
 21
-413.034
  0
LINE
  8
0
 10
-2.91211
 20
-413.034
 11
-0.81543
 21
-412.663
  0
LINE
  8
0
 10
-0.81543
 20
-412.663
 11
1.28125
 21
-413.034
  0
LINE
  8
0
 10
1.28125
 20
-413.034
 11
3.09961
 21
-414.083
  0
LINE
  8
0
 10
3.09961
 20
-414.083
 11
4.46973
 21
-415.713
  0
LINE
  8
0
 10
4.46973
 20
-415.713
 11
5.19629
 21
-417.714
  0
LINE
  8
0
 10
5.19629
 20
-417.714
 11
5.19629
 21
-419.812
  0
LINE
  8
0
 10
5.19629
 20
-419.812
 11
4.46973
 21
-421.814
  0
LINE
  8
0
 10
4.46973
 20
-421.814
 11
3.09961
 21
-423.444
  0
LINE
  8
0
 10
3.09961
 20
-423.444
 11
1.28125
 21
-424.492
  0
LINE
  8
0
 10
1.28125
 20
-424.492
 11
-0.81543
 21
-424.863
  0
LINE
  8
0
 10
-0.81543
 20
-424.863
 11
-2.91211
 21
-424.492
  0
LINE
  8
0
 10
-8.1582
 20
-433.188
 11
-8.63477
 21
-432.913
  0
LINE
  8
0
 10
-8.63477
 20
-432.913
 11
-8.99414
 21
-432.485
  0
LINE
  8
0
 10
-8.99414
 20
-432.485
 11
-9.18457
 21
-431.96
  0
LINE
  8
0
 10
-9.18457
 20
-431.96
 11
-9.18457
 21
-431.41
  0
LINE
  8
0
 10
-9.18457
 20
-431.41
 11
-8.99414
 21
-430.885
  0
LINE
  8
0
 10
-8.99414
 20
-430.885
 11
-8.63477
 21
-430.458
  0
LINE
  8
0
 10
-8.63477
 20
-430.458
 11
-8.1582
 21
-430.183
  0
LINE
  8
0
 10
-8.1582
 20
-430.183
 11
-7.6084
 21
-430.085
  0
LINE
  8
0
 10
-7.6084
 20
-430.085
 11
-7.05859
 21
-430.183
  0
LINE
  8
0
 10
-7.05859
 20
-430.183
 11
-6.58203
 21
-430.458
  0
LINE
  8
0
 10
-6.58203
 20
-430.458
 11
-6.22363
 21
-430.885
  0
LINE
  8
0
 10
-6.22363
 20
-430.885
 11
-6.03223
 21
-431.41
  0
LINE
  8
0
 10
-6.03223
 20
-431.41
 11
-6.03223
 21
-431.96
  0
LINE
  8
0
 10
-6.03223
 20
-431.96
 11
-6.22363
 21
-432.485
  0
LINE
  8
0
 10
-6.22363
 20
-432.485
 11
-6.58203
 21
-432.913
  0
LINE
  8
0
 10
-6.58203
 20
-432.913
 11
-7.05859
 21
-433.188
  0
LINE
  8
0
 10
-7.05859
 20
-433.188
 11
-7.6084
 21
-433.285
  0
LINE
  8
0
 10
-7.6084
 20
-433.285
 11
-8.1582
 21
-433.188
  0
LINE
  8
0
 10
-1.36523
 20
-433.188
 11
-1.8418
 21
-432.913
  0
LINE
  8
0
 10
-1.8418
 20
-432.913
 11
-2.20117
 21
-432.485
  0
LINE
  8
0
 10
-2.20117
 20
-432.485
 11
-2.3916
 21
-431.96
  0
LINE
  8
0
 10
-2.3916
 20
-431.96
 11
-2.3916
 21
-431.41
  0
LINE
  8
0
 10
-2.3916
 20
-431.41
 11
-2.20117
 21
-430.885
  0
LINE
  8
0
 10
-2.20117
 20
-430.885
 11
-1.8418
 21
-430.458
  0
LINE
  8
0
 10
-1.8418
 20
-430.458
 11
-1.36523
 21
-430.183
  0
LINE
  8
0
 10
-1.36523
 20
-430.183
 11
-0.81543
 21
-430.085
  0
LINE
  8
0
 10
-0.81543
 20
-430.085
 11
-0.265625
 21
-430.183
  0
LINE
  8
0
 10
-0.265625
 20
-430.183
 11
0.210938
 21
-430.458
  0
LINE
  8
0
 10
0.210938
 20
-430.458
 11
0.570312
 21
-430.885
  0
LINE
  8
0
 10
0.570312
 20
-430.885
 11
0.760742
 21
-431.41
  0
LINE
  8
0
 10
0.760742
 20
-431.41
 11
0.760742
 21
-431.96
  0
LINE
  8
0
 10
0.760742
 20
-431.96
 11
0.570312
 21
-432.485
  0
LINE
  8
0
 10
0.570312
 20
-432.485
 11
0.210938
 21
-432.913
  0
LINE
  8
0
 10
0.210938
 20
-432.913
 11
-0.265625
 21
-433.188
  0
LINE
  8
0
 10
-0.265625
 20
-433.188
 11
-0.81543
 21
-433.285
  0
LINE
  8
0
 10
-0.81543
 20
-433.285
 11
-1.36523
 21
-433.188
  0
LINE
  8
0
 10
-8.79102
 20
-459.936
 11
-8.79102
 21
-436.435
  0
LINE
  8
0
 10
-8.79102
 20
-436.435
 11
5.20898
 21
-436.435
  0
LINE
  8
0
 10
5.20898
 20
-436.435
 11
5.20898
 21
-459.936
  0
LINE
  8
0
 10
5.20898
 20
-459.936
 11
-8.79102
 21
-459.936
  0
LINE
  8
0
 10
-3.625
 20
-478.277
 11
-4.66895
 21
-477.676
  0
LINE
  8
0
 10
-4.66895
 20
-477.676
 11
-5.45508
 21
-476.74
  0
LINE
  8
0
 10
-5.45508
 20
-476.74
 11
-5.87207
 21
-475.592
  0
LINE
  8
0
 10
-5.87207
 20
-475.592
 11
-5.87207
 21
-474.388
  0
LINE
  8
0
 10
-5.87207
 20
-474.388
 11
-5.45508
 21
-473.239
  0
LINE
  8
0
 10
-5.45508
 20
-473.239
 11
-4.66895
 21
-472.305
  0
LINE
  8
0
 10
-4.66895
 20
-472.305
 11
-3.625
 21
-471.702
  0
LINE
  8
0
 10
-3.625
 20
-471.702
 11
-2.42285
 21
-471.49
  0
LINE
  8
0
 10
-2.42285
 20
-471.49
 11
-1.21875
 21
-471.702
  0
LINE
  8
0
 10
-1.21875
 20
-471.702
 11
-0.175781
 21
-472.305
  0
LINE
  8
0
 10
-0.175781
 20
-472.305
 11
0.610352
 21
-473.239
  0
LINE
  8
0
 10
0.610352
 20
-473.239
 11
1.02734
 21
-474.388
  0
LINE
  8
0
 10
1.02734
 20
-474.388
 11
1.02734
 21
-475.592
  0
LINE
  8
0
 10
1.02734
 20
-475.592
 11
0.610352
 21
-476.74
  0
LINE
  8
0
 10
0.610352
 20
-476.74
 11
-0.175781
 21
-477.676
  0
LINE
  8
0
 10
-0.175781
 20
-477.676
 11
-1.21875
 21
-478.277
  0
LINE
  8
0
 10
-1.21875
 20
-478.277
 11
-2.42285
 21
-478.49
  0
LINE
  8
0
 10
-2.42285
 20
-478.49
 11
-3.625
 21
-478.277
  0
LINE
  8
0
 10
-1
 20
-738
 11
1
 21
-738
  0
LINE
  8
0
 10
1
 20
-738
 11
1
 21
-741
  0
LINE
  8
0
 10
1
 20
-741
 11
6
 21
-741
  0
LINE
  8
0
 10
6
 20
-741
 11
6
 21
-738
  0
LINE
  8
0
 10
6
 20
-738
 11
14
 21
-738
  0
LINE
  8
0
 10
14
 20
-738
 11
14
 21
-656.333
  0
LINE
  8
0
 10
14
 20
-656.333
 11
11
 21
-656.333
  0
LINE
  8
0
 10
11
 20
-656.333
 11
11
 21
-651.333
  0
LINE
  8
0
 10
11
 20
-651.333
 11
14
 21
-651.333
  0
LINE
  8
0
 10
14
 20
-651.333
 11
14
 21
-584.667
  0
LINE
  8
0
 10
14
 20
-584.667
 11
11
 21
-584.667
  0
LINE
  8
0
 10
11
 20
-584.667
 11
11
 21
-579.667
  0
LINE
  8
0
 10
11
 20
-579.667
 11
14
 21
-579.667
  0
LINE
  8
0
 10
14
 20
-579.667
 11
14
 21
-513
  0
LINE
  8
0
 10
14
 20
-513
 11
11
 21
-513
  0
LINE
  8
0
 10
11
 20
-513
 11
11
 21
-508
  0
LINE
  8
0
 10
11
 20
-508
 11
14
 21
-508
  0
LINE
  8
0
 10
14
 20
-508
 11
14
 21
-498
  0
LINE
  8
0
 10
14
 20
-498
 11
6
 21
-498
  0
LINE
  8
0
 10
6
 20
-498
 11
6
 21
-495
  0
LINE
  8
0
 10
6
 20
-495
 11
1
 21
-495
  0
LINE
  8
0
 10
1
 20
-495
 11
1
 21
-498
  0
LINE
  8
0
 10
1
 20
-498
 11
-1
 21
-498
  0
LINE
  8
0
 10
-1
 20
-498
 11
-1
 21
-495
  0
LINE
  8
0
 10
-1
 20
-495
 11
-6
 21
-495
  0
LINE
  8
0
 10
-6
 20
-495
 11
-6
 21
-498
  0
LINE
  8
0
 10
-6
 20
-498
 11
-14
 21
-498
  0
LINE
  8
0
 10
-14
 20
-498
 11
-14
 21
-508
  0
LINE
  8
0
 10
-14
 20
-508
 11
-11
 21
-508
  0
LINE
  8
0
 10
-11
 20
-508
 11
-11
 21
-513
  0
LINE
  8
0
 10
-11
 20
-513
 11
-14
 21
-513
  0
LINE
  8
0
 10
-14
 20
-513
 11
-14
 21
-579.667
  0
LINE
  8
0
 10
-14
 20
-579.667
 11
-11
 21
-579.667
  0
LINE
  8
0
 10
-11
 20
-579.667
 11
-11
 21
-584.667
  0
LINE
  8
0
 10
-11
 20
-584.667
 11
-14
 21
-584.667
  0
LINE
  8
0
 10
-14
 20
-584.667
 11
-14
 21
-651.333
  0
LINE
  8
0
 10
-14
 20
-651.333
 11
-11
 21
-651.333
  0
LINE
  8
0
 10
-11
 20
-651.333
 11
-11
 21
-656.333
  0
LINE
  8
0
 10
-11
 20
-656.333
 11
-14
 21
-656.333
  0
LINE
  8
0
 10
-14
 20
-656.333
 11
-14
 21
-738
  0
LINE
  8
0
 10
-14
 20
-738
 11
-6
 21
-738
  0
LINE
  8
0
 10
-6
 20
-738
 11
-6
 21
-741
  0
LINE
  8
0
 10
-6
 20
-741
 11
-1
 21
-741
  0
LINE
  8
0
 10
-1
 20
-741
 11
-1
 21
-738
  0
LINE
  8
0
 10
1.21875
 20
-513.298
 11
0.175781
 21
-512.695
  0
LINE
  8
0
 10
0.175781
 20
-512.695
 11
-0.610352
 21
-511.761
  0
LINE
  8
0
 10
-0.610352
 20
-511.761
 11
-1.02734
 21
-510.612
  0
LINE
  8
0
 10
-1.02734
 20
-510.612
 11
-1.02734
 21
-509.408
  0
LINE
  8
0
 10
-1.02734
 20
-509.408
 11
-0.610352
 21
-508.26
  0
LINE
  8
0
 10
-0.610352
 20
-508.26
 11
0.175781
 21
-507.324
  0
LINE
  8
0
 10
0.175781
 20
-507.324
 11
1.21875
 21
-506.723
  0
LINE
  8
0
 10
1.21875
 20
-506.723
 11
2.42285
 21
-506.51
  0
LINE
  8
0
 10
2.42285
 20
-506.51
 11
3.625
 21
-506.723
  0
LINE
  8
0
 10
3.625
 20
-506.723
 11
4.66895
 21
-507.324
  0
LINE
  8
0
 10
4.66895
 20
-507.324
 11
5.45508
 21
-508.26
  0
LINE
  8
0
 10
5.45508
 20
-508.26
 11
5.87207
 21
-509.408
  0
LINE
  8
0
 10
5.87207
 20
-509.408
 11
5.87207
 21
-510.612
  0
LINE
  8
0
 10
5.87207
 20
-510.612
 11
5.45508
 21
-511.761
  0
LINE
  8
0
 10
5.45508
 20
-511.761
 11
4.66895
 21
-512.695
  0
LINE
  8
0
 10
4.66895
 20
-512.695
 11
3.625
 21
-513.298
  0
LINE
  8
0
 10
3.625
 20
-513.298
 11
2.42285
 21
-513.51
  0
LINE
  8
0
 10
2.42285
 20
-513.51
 11
1.21875
 21
-513.298
  0
LINE
  8
0
 10
-5.20898
 20
-548.565
 11
-5.20898
 21
-525.064
  0
LINE
  8
0
 10
-5.20898
 20
-525.064
 11
8.79102
 21
-525.064
  0
LINE
  8
0
 10
8.79102
 20
-525.064
 11
8.79102
 21
-548.565
  0
LINE
  8
0
 10
8.79102
 20
-548.565
 11
-5.20898
 21
-548.565
  0
LINE
  8
0
 10
7.05859
 20
-554.817
 11
6.58203
 21
-554.542
  0
LINE
  8
0
 10
6.58203
 20
-554.542
 11
6.22363
 21
-554.115
  0
LINE
  8
0
 10
6.22363
 20
-554.115
 11
6.03223
 21
-553.59
  0
LINE
  8
0
 10
6.03223
 20
-553.59
 11
6.03223
 21
-553.04
  0
LINE
  8
0
 10
6.03223
 20
-553.04
 11
6.22363
 21
-552.515
  0
LINE
  8
0
 10
6.22363
 20
-552.515
 11
6.58203
 21
-552.087
  0
LINE
  8
0
 10
6.58203
 20
-552.087
 11
7.05859
 21
-551.812
  0
LINE
  8
0
 10
7.05859
 20
-551.812
 11
7.6084
 21
-551.715
  0
LINE
  8
0
 10
7.6084
 20
-551.715
 11
8.1582
 21
-551.812
  0
LINE
  8
0
 10
8.1582
 20
-551.812
 11
8.63477
 21
-552.087
  0
LINE
  8
0
 10
8.63477
 20
-552.087
 11
8.99414
 21
-552.515
  0
LINE
  8
0
 10
8.99414
 20
-552.515
 11
9.18457
 21
-553.04
  0
LINE
  8
0
 10
9.18457
 20
-553.04
 11
9.18457
 21
-553.59
  0
LINE
  8
0
 10
9.18457
 20
-553.59
 11
8.99414
 21
-554.115
  0
LINE
  8
0
 10
8.99414
 20
-554.115
 11
8.63477
 21
-554.542
  0
LINE
  8
0
 10
8.63477
 20
-554.542
 11
8.1582
 21
-554.817
  0
LINE
  8
0
 10
8.1582
 20
-554.817
 11
7.6084
 21
-554.915
  0
LINE
  8
0
 10
7.6084
 20
-554.915
 11
7.05859
 21
-554.817
  0
LINE
  8
0
 10
0.265625
 20
-554.817
 11
-0.210938
 21
-554.542
  0
LINE
  8
0
 10
-0.210938
 20
-554.542
 11
-0.570312
 21
-554.115
  0
LINE
  8
0
 10
-0.570312
 20
-554.115
 11
-0.760742
 21
-553.59
  0
LINE
  8
0
 10
-0.760742
 20
-553.59
 11
-0.760742
 21
-553.04
  0
LINE
  8
0
 10
-0.760742
 20
-553.04
 11
-0.570312
 21
-552.515
  0
LINE
  8
0
 10
-0.570312
 20
-552.515
 11
-0.210938
 21
-552.087
  0
LINE
  8
0
 10
-0.210938
 20
-552.087
 11
0.265625
 21
-551.812
  0
LINE
  8
0
 10
0.265625
 20
-551.812
 11
0.81543
 21
-551.715
  0
LINE
  8
0
 10
0.81543
 20
-551.715
 11
1.36523
 21
-551.812
  0
LINE
  8
0
 10
1.36523
 20
-551.812
 11
1.8418
 21
-552.087
  0
LINE
  8
0
 10
1.8418
 20
-552.087
 11
2.20117
 21
-552.515
  0
LINE
  8
0
 10
2.20117
 20
-552.515
 11
2.3916
 21
-553.04
  0
LINE
  8
0
 10
2.3916
 20
-553.04
 11
2.3916
 21
-553.59
  0
LINE
  8
0
 10
2.3916
 20
-553.59
 11
2.20117
 21
-554.115
  0
LINE
  8
0
 10
2.20117
 20
-554.115
 11
1.8418
 21
-554.542
  0
LINE
  8
0
 10
1.8418
 20
-554.542
 11
1.36523
 21
-554.817
  0
LINE
  8
0
 10
1.36523
 20
-554.817
 11
0.81543
 21
-554.915
  0
LINE
  8
0
 10
0.81543
 20
-554.915
 11
0.265625
 21
-554.817
  0
LINE
  8
0
 10
-1.28125
 20
-571.966
 11
-3.09961
 21
-570.917
  0
LINE
  8
0
 10
-3.09961
 20
-570.917
 11
-4.46973
 21
-569.287
  0
LINE
  8
0
 10
-4.46973
 20
-569.287
 11
-5.19629
 21
-567.286
  0
LINE
  8
0
 10
-5.19629
 20
-567.286
 11
-5.19629
 21
-565.188
  0
LINE
  8
0
 10
-5.19629
 20
-565.188
 11
-4.46973
 21
-563.186
  0
LINE
  8
0
 10
-4.46973
 20
-563.186
 11
-3.09961
 21
-561.556
  0
LINE
  8
0
 10
-3.09961
 20
-561.556
 11
-1.28125
 21
-560.508
  0
LINE
  8
0
 10
-1.28125
 20
-560.508
 11
0.81543
 21
-560.137
  0
LINE
  8
0
 10
0.81543
 20
-560.137
 11
2.91211
 21
-560.508
  0
LINE
  8
0
 10
2.91211
 20
-560.508
 11
4.73047
 21
-561.556
  0
LINE
  8
0
 10
4.73047
 20
-561.556
 11
6.10059
 21
-563.186
  0
LINE
  8
0
 10
6.10059
 20
-563.186
 11
6.82812
 21
-565.188
  0
LINE
  8
0
 10
6.82812
 20
-565.188
 11
6.82812
 21
-567.286
  0
LINE
  8
0
 10
6.82812
 20
-567.286
 11
6.10059
 21
-569.287
  0
LINE
  8
0
 10
6.10059
 20
-569.287
 11
4.73047
 21
-570.917
  0
LINE
  8
0
 10
4.73047
 20
-570.917
 11
2.91211
 21
-571.966
  0
LINE
  8
0
 10
2.91211
 20
-571.966
 11
0.81543
 21
-572.337
  0
LINE
  8
0
 10
0.81543
 20
-572.337
 11
-1.28125
 21
-571.966
  0
LINE
  8
0
 10
1.21875
 20
-593.297
 11
0.175781
 21
-592.695
  0
LINE
  8
0
 10
0.175781
 20
-592.695
 11
-0.610352
 21
-591.761
  0
LINE
  8
0
 10
-0.610352
 20
-591.761
 11
-1.02734
 21
-590.612
  0
LINE
  8
0
 10
-1.02734
 20
-590.612
 11
-1.02734
 21
-589.407
  0
LINE
  8
0
 10
-1.02734
 20
-589.407
 11
-0.610352
 21
-588.259
  0
LINE
  8
0
 10
-0.610352
 20
-588.259
 11
0.175781
 21
-587.324
  0
LINE
  8
0
 10
0.175781
 20
-587.324
 11
1.21875
 21
-586.723
  0
LINE
  8
0
 10
1.21875
 20
-586.723
 11
2.42285
 21
-586.51
  0
LINE
  8
0
 10
2.42285
 20
-586.51
 11
3.625
 21
-586.723
  0
LINE
  8
0
 10
3.625
 20
-586.723
 11
4.66895
 21
-587.324
  0
LINE
  8
0
 10
4.66895
 20
-587.324
 11
5.45508
 21
-588.259
  0
LINE
  8
0
 10
5.45508
 20
-588.259
 11
5.87207
 21
-589.407
  0
LINE
  8
0
 10
5.87207
 20
-589.407
 11
5.87207
 21
-590.612
  0
LINE
  8
0
 10
5.87207
 20
-590.612
 11
5.45508
 21
-591.761
  0
LINE
  8
0
 10
5.45508
 20
-591.761
 11
4.66895
 21
-592.695
  0
LINE
  8
0
 10
4.66895
 20
-592.695
 11
3.625
 21
-593.297
  0
LINE
  8
0
 10
3.625
 20
-593.297
 11
2.42285
 21
-593.51
  0
LINE
  8
0
 10
2.42285
 20
-593.51
 11
1.21875
 21
-593.297
  0
LINE
  8
0
 10
-5.20898
 20
-628.564
 11
-5.20898
 21
-605.065
  0
LINE
  8
0
 10
-5.20898
 20
-605.065
 11
8.79102
 21
-605.065
  0
LINE
  8
0
 10
8.79102
 20
-605.065
 11
8.79102
 21
-628.564
  0
LINE
  8
0
 10
8.79102
 20
-628.564
 11
-5.20898
 21
-628.564
  0
LINE
  8
0
 10
7.05859
 20
-634.817
 11
6.58203
 21
-634.542
  0
LINE
  8
0
 10
6.58203
 20
-634.542
 11
6.22363
 21
-634.115
  0
LINE
  8
0
 10
6.22363
 20
-634.115
 11
6.03223
 21
-633.59
  0
LINE
  8
0
 10
6.03223
 20
-633.59
 11
6.03223
 21
-633.039
  0
LINE
  8
0
 10
6.03223
 20
-633.039
 11
6.22363
 21
-632.515
  0
LINE
  8
0
 10
6.22363
 20
-632.515
 11
6.58203
 21
-632.088
  0
LINE
  8
0
 10
6.58203
 20
-632.088
 11
7.05859
 21
-631.812
  0
LINE
  8
0
 10
7.05859
 20
-631.812
 11
7.6084
 21
-631.715
  0
LINE
  8
0
 10
7.6084
 20
-631.715
 11
8.1582
 21
-631.812
  0
LINE
  8
0
 10
8.1582
 20
-631.812
 11
8.63477
 21
-632.088
  0
LINE
  8
0
 10
8.63477
 20
-632.088
 11
8.99414
 21
-632.515
  0
LINE
  8
0
 10
8.99414
 20
-632.515
 11
9.18457
 21
-633.039
  0
LINE
  8
0
 10
9.18457
 20
-633.039
 11
9.18457
 21
-633.59
  0
LINE
  8
0
 10
9.18457
 20
-633.59
 11
8.99414
 21
-634.115
  0
LINE
  8
0
 10
8.99414
 20
-634.115
 11
8.63477
 21
-634.542
  0
LINE
  8
0
 10
8.63477
 20
-634.542
 11
8.1582
 21
-634.817
  0
LINE
  8
0
 10
8.1582
 20
-634.817
 11
7.6084
 21
-634.915
  0
LINE
  8
0
 10
7.6084
 20
-634.915
 11
7.05859
 21
-634.817
  0
LINE
  8
0
 10
0.265625
 20
-634.817
 11
-0.210938
 21
-634.542
  0
LINE
  8
0
 10
-0.210938
 20
-634.542
 11
-0.570312
 21
-634.115
  0
LINE
  8
0
 10
-0.570312
 20
-634.115
 11
-0.760742
 21
-633.59
  0
LINE
  8
0
 10
-0.760742
 20
-633.59
 11
-0.760742
 21
-633.039
  0
LINE
  8
0
 10
-0.760742
 20
-633.039
 11
-0.570312
 21
-632.515
  0
LINE
  8
0
 10
-0.570312
 20
-632.515
 11
-0.210938
 21
-632.088
  0
LINE
  8
0
 10
-0.210938
 20
-632.088
 11
0.265625
 21
-631.812
  0
LINE
  8
0
 10
0.265625
 20
-631.812
 11
0.81543
 21
-631.715
  0
LINE
  8
0
 10
0.81543
 20
-631.715
 11
1.36523
 21
-631.812
  0
LINE
  8
0
 10
1.36523
 20
-631.812
 11
1.8418
 21
-632.088
  0
LINE
  8
0
 10
1.8418
 20
-632.088
 11
2.20117
 21
-632.515
  0
LINE
  8
0
 10
2.20117
 20
-632.515
 11
2.3916
 21
-633.039
  0
LINE
  8
0
 10
2.3916
 20
-633.039
 11
2.3916
 21
-633.59
  0
LINE
  8
0
 10
2.3916
 20
-633.59
 11
2.20117
 21
-634.115
  0
LINE
  8
0
 10
2.20117
 20
-634.115
 11
1.8418
 21
-634.542
  0
LINE
  8
0
 10
1.8418
 20
-634.542
 11
1.36523
 21
-634.817
  0
LINE
  8
0
 10
1.36523
 20
-634.817
 11
0.81543
 21
-634.915
  0
LINE
  8
0
 10
0.81543
 20
-634.915
 11
0.265625
 21
-634.817
  0
LINE
  8
0
 10
-1.28125
 20
-651.966
 11
-3.09961
 21
-650.917
  0
LINE
  8
0
 10
-3.09961
 20
-650.917
 11
-4.46973
 21
-649.287
  0
LINE
  8
0
 10
-4.46973
 20
-649.287
 11
-5.19629
 21
-647.286
  0
LINE
  8
0
 10
-5.19629
 20
-647.286
 11
-5.19629
 21
-645.188
  0
LINE
  8
0
 10
-5.19629
 20
-645.188
 11
-4.46973
 21
-643.186
  0
LINE
  8
0
 10
-4.46973
 20
-643.186
 11
-3.09961
 21
-641.557
  0
LINE
  8
0
 10
-3.09961
 20
-641.557
 11
-1.28125
 21
-640.507
  0
LINE
  8
0
 10
-1.28125
 20
-640.507
 11
0.81543
 21
-640.137
  0
LINE
  8
0
 10
0.81543
 20
-640.137
 11
2.91211
 21
-640.507
  0
LINE
  8
0
 10
2.91211
 20
-640.507
 11
4.73047
 21
-641.557
  0
LINE
  8
0
 10
4.73047
 20
-641.557
 11
6.10059
 21
-643.186
  0
LINE
  8
0
 10
6.10059
 20
-643.186
 11
6.82812
 21
-645.188
  0
LINE
  8
0
 10
6.82812
 20
-645.188
 11
6.82812
 21
-647.286
  0
LINE
  8
0
 10
6.82812
 20
-647.286
 11
6.10059
 21
-649.287
  0
LINE
  8
0
 10
6.10059
 20
-649.287
 11
4.73047
 21
-650.917
  0
LINE
  8
0
 10
4.73047
 20
-650.917
 11
2.91211
 21
-651.966
  0
LINE
  8
0
 10
2.91211
 20
-651.966
 11
0.81543
 21
-652.337
  0
LINE
  8
0
 10
0.81543
 20
-652.337
 11
-1.28125
 21
-651.966
  0
LINE
  8
0
 10
1.21875
 20
-673.298
 11
0.175781
 21
-672.695
  0
LINE
  8
0
 10
0.175781
 20
-672.695
 11
-0.610352
 21
-671.761
  0
LINE
  8
0
 10
-0.610352
 20
-671.761
 11
-1.02734
 21
-670.612
  0
LINE
  8
0
 10
-1.02734
 20
-670.612
 11
-1.02734
 21
-669.408
  0
LINE
  8
0
 10
-1.02734
 20
-669.408
 11
-0.610352
 21
-668.26
  0
LINE
  8
0
 10
-0.610352
 20
-668.26
 11
0.175781
 21
-667.324
  0
LINE
  8
0
 10
0.175781
 20
-667.324
 11
1.21875
 21
-666.723
  0
LINE
  8
0
 10
1.21875
 20
-666.723
 11
2.42285
 21
-666.51
  0
LINE
  8
0
 10
2.42285
 20
-666.51
 11
3.625
 21
-666.723
  0
LINE
  8
0
 10
3.625
 20
-666.723
 11
4.66895
 21
-667.324
  0
LINE
  8
0
 10
4.66895
 20
-667.324
 11
5.45508
 21
-668.26
  0
LINE
  8
0
 10
5.45508
 20
-668.26
 11
5.87207
 21
-669.408
  0
LINE
  8
0
 10
5.87207
 20
-669.408
 11
5.87207
 21
-670.612
  0
LINE
  8
0
 10
5.87207
 20
-670.612
 11
5.45508
 21
-671.761
  0
LINE
  8
0
 10
5.45508
 20
-671.761
 11
4.66895
 21
-672.695
  0
LINE
  8
0
 10
4.66895
 20
-672.695
 11
3.625
 21
-673.298
  0
LINE
  8
0
 10
3.625
 20
-673.298
 11
2.42285
 21
-673.51
  0
LINE
  8
0
 10
2.42285
 20
-673.51
 11
1.21875
 21
-673.298
  0
LINE
  8
0
 10
-5.20898
 20
-708.565
 11
-5.20898
 21
-685.064
  0
LINE
  8
0
 10
-5.20898
 20
-685.064
 11
8.79102
 21
-685.064
  0
LINE
  8
0
 10
8.79102
 20
-685.064
 11
8.79102
 21
-708.565
  0
LINE
  8
0
 10
8.79102
 20
-708.565
 11
-5.20898
 21
-708.565
  0
LINE
  8
0
 10
7.05859
 20
-714.817
 11
6.58203
 21
-714.543
  0
LINE
  8
0
 10
6.58203
 20
-714.543
 11
6.22363
 21
-714.114
  0
LINE
  8
0
 10
6.22363
 20
-714.114
 11
6.03223
 21
-713.59
  0
LINE
  8
0
 10
6.03223
 20
-713.59
 11
6.03223
 21
-713.04
  0
LINE
  8
0
 10
6.03223
 20
-713.04
 11
6.22363
 21
-712.515
  0
LINE
  8
0
 10
6.22363
 20
-712.515
 11
6.58203
 21
-712.087
  0
LINE
  8
0
 10
6.58203
 20
-712.087
 11
7.05859
 21
-711.812
  0
LINE
  8
0
 10
7.05859
 20
-711.812
 11
7.6084
 21
-711.715
  0
LINE
  8
0
 10
7.6084
 20
-711.715
 11
8.1582
 21
-711.812
  0
LINE
  8
0
 10
8.1582
 20
-711.812
 11
8.63477
 21
-712.087
  0
LINE
  8
0
 10
8.63477
 20
-712.087
 11
8.99414
 21
-712.515
  0
LINE
  8
0
 10
8.99414
 20
-712.515
 11
9.18457
 21
-713.04
  0
LINE
  8
0
 10
9.18457
 20
-713.04
 11
9.18457
 21
-713.59
  0
LINE
  8
0
 10
9.18457
 20
-713.59
 11
8.99414
 21
-714.114
  0
LINE
  8
0
 10
8.99414
 20
-714.114
 11
8.63477
 21
-714.543
  0
LINE
  8
0
 10
8.63477
 20
-714.543
 11
8.1582
 21
-714.817
  0
LINE
  8
0
 10
8.1582
 20
-714.817
 11
7.6084
 21
-714.915
  0
LINE
  8
0
 10
7.6084
 20
-714.915
 11
7.05859
 21
-714.817
  0
LINE
  8
0
 10
0.265625
 20
-714.817
 11
-0.210938
 21
-714.543
  0
LINE
  8
0
 10
-0.210938
 20
-714.543
 11
-0.570312
 21
-714.114
  0
LINE
  8
0
 10
-0.570312
 20
-714.114
 11
-0.760742
 21
-713.59
  0
LINE
  8
0
 10
-0.760742
 20
-713.59
 11
-0.760742
 21
-713.04
  0
LINE
  8
0
 10
-0.760742
 20
-713.04
 11
-0.570312
 21
-712.515
  0
LINE
  8
0
 10
-0.570312
 20
-712.515
 11
-0.210938
 21
-712.087
  0
LINE
  8
0
 10
-0.210938
 20
-712.087
 11
0.265625
 21
-711.812
  0
LINE
  8
0
 10
0.265625
 20
-711.812
 11
0.81543
 21
-711.715
  0
LINE
  8
0
 10
0.81543
 20
-711.715
 11
1.36523
 21
-711.812
  0
LINE
  8
0
 10
1.36523
 20
-711.812
 11
1.8418
 21
-712.087
  0
LINE
  8
0
 10
1.8418
 20
-712.087
 11
2.20117
 21
-712.515
  0
LINE
  8
0
 10
2.20117
 20
-712.515
 11
2.3916
 21
-713.04
  0
LINE
  8
0
 10
2.3916
 20
-713.04
 11
2.3916
 21
-713.59
  0
LINE
  8
0
 10
2.3916
 20
-713.59
 11
2.20117
 21
-714.114
  0
LINE
  8
0
 10
2.20117
 20
-714.114
 11
1.8418
 21
-714.543
  0
LINE
  8
0
 10
1.8418
 20
-714.543
 11
1.36523
 21
-714.817
  0
LINE
  8
0
 10
1.36523
 20
-714.817
 11
0.81543
 21
-714.915
  0
LINE
  8
0
 10
0.81543
 20
-714.915
 11
0.265625
 21
-714.817
  0
LINE
  8
0
 10
-1.28125
 20
-731.966
 11
-3.09961
 21
-730.917
  0
LINE
  8
0
 10
-3.09961
 20
-730.917
 11
-4.46973
 21
-729.287
  0
LINE
  8
0
 10
-4.46973
 20
-729.287
 11
-5.19629
 21
-727.286
  0
LINE
  8
0
 10
-5.19629
 20
-727.286
 11
-5.19629
 21
-725.188
  0
LINE
  8
0
 10
-5.19629
 20
-725.188
 11
-4.46973
 21
-723.186
  0
LINE
  8
0
 10
-4.46973
 20
-723.186
 11
-3.09961
 21
-721.556
  0
LINE
  8
0
 10
-3.09961
 20
-721.556
 11
-1.28125
 21
-720.507
  0
LINE
  8
0
 10
-1.28125
 20
-720.507
 11
0.81543
 21
-720.137
  0
LINE
  8
0
 10
0.81543
 20
-720.137
 11
2.91211
 21
-720.507
  0
LINE
  8
0
 10
2.91211
 20
-720.507
 11
4.73047
 21
-721.556
  0
LINE
  8
0
 10
4.73047
 20
-721.556
 11
6.10059
 21
-723.186
  0
LINE
  8
0
 10
6.10059
 20
-723.186
 11
6.82812
 21
-725.188
  0
LINE
  8
0
 10
6.82812
 20
-725.188
 11
6.82812
 21
-727.286
  0
LINE
  8
0
 10
6.82812
 20
-727.286
 11
6.10059
 21
-729.287
  0
LINE
  8
0
 10
6.10059
 20
-729.287
 11
4.73047
 21
-730.917
  0
LINE
  8
0
 10
4.73047
 20
-730.917
 11
2.91211
 21
-731.966
  0
LINE
  8
0
 10
2.91211
 20
-731.966
 11
0.81543
 21
-732.337
  0
LINE
  8
0
 10
0.81543
 20
-732.337
 11
-1.28125
 21
-731.966
  0
LINE
  8
0
 10
-60
 20
-989
 11
-23.3333
 21
-989
  0
LINE
  8
0
 10
-23.3333
 20
-989
 11
-23.3333
 21
-992
  0
LINE
  8
0
 10
-23.3333
 20
-992
 11
-18.3333
 21
-992
  0
LINE
  8
0
 10
-18.3333
 20
-992
 11
-18.3333
 21
-989
  0
LINE
  8
0
 10
-18.3333
 20
-989
 11
18.3333
 21
-989
  0
LINE
  8
0
 10
18.3333
 20
-989
 11
18.3333
 21
-992
  0
LINE
  8
0
 10
18.3333
 20
-992
 11
23.3333
 21
-992
  0
LINE
  8
0
 10
23.3333
 20
-992
 11
23.3333
 21
-989
  0
LINE
  8
0
 10
23.3333
 20
-989
 11
60
 21
-989
  0
LINE
  8
0
 10
60
 20
-989
 11
60
 21
-992
  0
LINE
  8
0
 10
60
 20
-992
 11
65
 21
-992
  0
LINE
  8
0
 10
65
 20
-992
 11
65
 21
-989
  0
LINE
  8
0
 10
65
 20
-989
 11
75
 21
-989
  0
LINE
  8
0
 10
75
 20
-989
 11
75
 21
-979
  0
LINE
  8
0
 10
75
 20
-979
 11
78
 21
-979
  0
LINE
  8
0
 10
78
 20
-979
 11
78
 21
-974
  0
LINE
  8
0
 10
78
 20
-974
 11
75
 21
-974
  0
LINE
  8
0
 10
75
 20
-974
 11
75
 21
-907.333
  0
LINE
  8
0
 10
75
 20
-907.333
 11
78
 21
-907.333
  0
LINE
  8
0
 10
78
 20
-907.333
 11
78
 21
-902.333
  0
LINE
  8
0
 10
78
 20
-902.333
 11
75
 21
-902.333
  0
LINE
  8
0
 10
75
 20
-902.333
 11
75
 21
-835.667
  0
LINE
  8
0
 10
75
 20
-835.667
 11
78
 21
-835.667
  0
LINE
  8
0
 10
78
 20
-835.667
 11
78
 21
-830.667
  0
LINE
  8
0
 10
78
 20
-830.667
 11
75
 21
-830.667
  0
LINE
  8
0
 10
75
 20
-830.667
 11
75
 21
-749
  0
LINE
  8
0
 10
75
 20
-749
 11
65
 21
-749
  0
LINE
  8
0
 10
65
 20
-749
 11
65
 21
-746
  0
LINE
  8
0
 10
65
 20
-746
 11
60
 21
-746
  0
LINE
  8
0
 10
60
 20
-746
 11
60
 21
-749
  0
LINE
  8
0
 10
60
 20
-749
 11
23.3333
 21
-749
  0
LINE
  8
0
 10
23.3333
 20
-749
 11
23.3333
 21
-746
  0
LINE
  8
0
 10
23.3333
 20
-746
 11
18.3333
 21
-746
  0
LINE
  8
0
 10
18.3333
 20
-746
 11
18.3333
 21
-749
  0
LINE
  8
0
 10
18.3333
 20
-749
 11
-18.3333
 21
-749
  0
LINE
  8
0
 10
-18.3333
 20
-749
 11
-18.3333
 21
-746
  0
LINE
  8
0
 10
-18.3333
 20
-746
 11
-23.3333
 21
-746
  0
LINE
  8
0
 10
-23.3333
 20
-746
 11
-23.3333
 21
-749
  0
LINE
  8
0
 10
-23.3333
 20
-749
 11
-60
 21
-749
  0
LINE
  8
0
 10
-60
 20
-749
 11
-60
 21
-746
  0
LINE
  8
0
 10
-60
 20
-746
 11
-65
 21
-746
  0
LINE
  8
0
 10
-65
 20
-746
 11
-65
 21
-749
  0
LINE
  8
0
 10
-65
 20
-749
 11
-75
 21
-749
  0
LINE
  8
0
 10
-75
 20
-749
 11
-75
 21
-830.667
  0
LINE
  8
0
 10
-75
 20
-830.667
 11
-78
 21
-830.667
  0
LINE
  8
0
 10
-78
 20
-830.667
 11
-78
 21
-835.667
  0
LINE
  8
0
 10
-78
 20
-835.667
 11
-75
 21
-835.667
  0
LINE
  8
0
 10
-75
 20
-835.667
 11
-75
 21
-902.333
  0
LINE
  8
0
 10
-75
 20
-902.333
 11
-78
 21
-902.333
  0
LINE
  8
0
 10
-78
 20
-902.333
 11
-78
 21
-907.333
  0
LINE
  8
0
 10
-78
 20
-907.333
 11
-75
 21
-907.333
  0
LINE
  8
0
 10
-75
 20
-907.333
 11
-75
 21
-974
  0
LINE
  8
0
 10
-75
 20
-974
 11
-78
 21
-974
  0
LINE
  8
0
 10
-78
 20
-974
 11
-78
 21
-979
  0
LINE
  8
0
 10
-78
 20
-979
 11
-75
 21
-979
  0
LINE
  8
0
 10
-75
 20
-979
 11
-75
 21
-989
  0
LINE
  8
0
 10
-75
 20
-989
 11
-65
 21
-989
  0
LINE
  8
0
 10
-65
 20
-989
 11
-65
 21
-992
  0
LINE
  8
0
 10
-65
 20
-992
 11
-60
 21
-992
  0
LINE
  8
0
 10
-60
 20
-992
 11
-60
 21
-989
  0
LINE
  8
0
 10
-60
 20
-1240
 11
-23.3333
 21
-1240
  0
LINE
  8
0
 10
-23.3333
 20
-1240
 11
-23.3333
 21
-1243
  0
LINE
  8
0
 10
-23.3333
 20
-1243
 11
-18.3333
 21
-1243
  0
LINE
  8
0
 10
-18.3333
 20
-1243
 11
-18.3333
 21
-1240
  0
LINE
  8
0
 10
-18.3333
 20
-1240
 11
18.3333
 21
-1240
  0
LINE
  8
0
 10
18.3333
 20
-1240
 11
18.3333
 21
-1243
  0
LINE
  8
0
 10
18.3333
 20
-1243
 11
23.3333
 21
-1243
  0
LINE
  8
0
 10
23.3333
 20
-1243
 11
23.3333
 21
-1240
  0
LINE
  8
0
 10
23.3333
 20
-1240
 11
60
 21
-1240
  0
LINE
  8
0
 10
60
 20
-1240
 11
60
 21
-1243
  0
LINE
  8
0
 10
60
 20
-1243
 11
65
 21
-1243
  0
LINE
  8
0
 10
65
 20
-1243
 11
65
 21
-1240
  0
LINE
  8
0
 10
65
 20
-1240
 11
75
 21
-1240
  0
LINE
  8
0
 10
75
 20
-1240
 11
75
 21
-1158.33
  0
LINE
  8
0
 10
75
 20
-1158.33
 11
78
 21
-1158.33
  0
LINE
  8
0
 10
78
 20
-1158.33
 11
78
 21
-1153.33
  0
LINE
  8
0
 10
78
 20
-1153.33
 11
75
 21
-1153.33
  0
LINE
  8
0
 10
75
 20
-1153.33
 11
75
 21
-1086.67
  0
LINE
  8
0
 10
75
 20
-1086.67
 11
78
 21
-1086.67
  0
LINE
  8
0
 10
78
 20
-1086.67
 11
78
 21
-1081.67
  0
LINE
  8
0
 10
78
 20
-1081.67
 11
75
 21
-1081.67
  0
LINE
  8
0
 10
75
 20
-1081.67
 11
75
 21
-1015
  0
LINE
  8
0
 10
75
 20
-1015
 11
78
 21
-1015
  0
LINE
  8
0
 10
78
 20
-1015
 11
78
 21
-1010
  0
LINE
  8
0
 10
78
 20
-1010
 11
75
 21
-1010
  0
LINE
  8
0
 10
75
 20
-1010
 11
75
 21
-1000
  0
LINE
  8
0
 10
75
 20
-1000
 11
65
 21
-1000
  0
LINE
  8
0
 10
65
 20
-1000
 11
65
 21
-997
  0
LINE
  8
0
 10
65
 20
-997
 11
60
 21
-997
  0
LINE
  8
0
 10
60
 20
-997
 11
60
 21
-1000
  0
LINE
  8
0
 10
60
 20
-1000
 11
23.3333
 21
-1000
  0
LINE
  8
0
 10
23.3333
 20
-1000
 11
23.3333
 21
-997
  0
LINE
  8
0
 10
23.3333
 20
-997
 11
18.3333
 21
-997
  0
LINE
  8
0
 10
18.3333
 20
-997
 11
18.3333
 21
-1000
  0
LINE
  8
0
 10
18.3333
 20
-1000
 11
-18.3333
 21
-1000
  0
LINE
  8
0
 10
-18.3333
 20
-1000
 11
-18.3333
 21
-997
  0
LINE
  8
0
 10
-18.3333
 20
-997
 11
-23.3333
 21
-997
  0
LINE
  8
0
 10
-23.3333
 20
-997
 11
-23.3333
 21
-1000
  0
LINE
  8
0
 10
-23.3333
 20
-1000
 11
-60
 21
-1000
  0
LINE
  8
0
 10
-60
 20
-1000
 11
-60
 21
-997
  0
LINE
  8
0
 10
-60
 20
-997
 11
-65
 21
-997
  0
LINE
  8
0
 10
-65
 20
-997
 11
-65
 21
-1000
  0
LINE
  8
0
 10
-65
 20
-1000
 11
-75
 21
-1000
  0
LINE
  8
0
 10
-75
 20
-1000
 11
-75
 21
-1010
  0
LINE
  8
0
 10
-75
 20
-1010
 11
-78
 21
-1010
  0
LINE
  8
0
 10
-78
 20
-1010
 11
-78
 21
-1015
  0
LINE
  8
0
 10
-78
 20
-1015
 11
-75
 21
-1015
  0
LINE
  8
0
 10
-75
 20
-1015
 11
-75
 21
-1081.67
  0
LINE
  8
0
 10
-75
 20
-1081.67
 11
-78
 21
-1081.67
  0
LINE
  8
0
 10
-78
 20
-1081.67
 11
-78
 21
-1086.67
  0
LINE
  8
0
 10
-78
 20
-1086.67
 11
-75
 21
-1086.67
  0
LINE
  8
0
 10
-75
 20
-1086.67
 11
-75
 21
-1153.33
  0
LINE
  8
0
 10
-75
 20
-1153.33
 11
-78
 21
-1153.33
  0
LINE
  8
0
 10
-78
 20
-1153.33
 11
-78
 21
-1158.33
  0
LINE
  8
0
 10
-78
 20
-1158.33
 11
-75
 21
-1158.33
  0
LINE
  8
0
 10
-75
 20
-1158.33
 11
-75
 21
-1240
  0
LINE
  8
0
 10
-75
 20
-1240
 11
-65
 21
-1240
  0
LINE
  8
0
 10
-65
 20
-1240
 11
-65
 21
-1243
  0
LINE
  8
0
 10
-65
 20
-1243
 11
-60
 21
-1243
  0
LINE
  8
0
 10
-60
 20
-1243
 11
-60
 21
-1240
  0
ENDSEC
  0
SECTION
  2
OBJECTS
  0
DICTIONARY
  0
ENDSEC
  0
EOF
