  0
SECTION
  2
BLOCKS
  0
ENDSEC
  0
SECTION
  2
ENTITIES
  0
LINE
  8
0
 10
-10.75
 20
-75
 11
-5.75
 21
-75
  0
LINE
  8
0
 10
-5.75
 20
-75
 11
-5.75
 21
-78
  0
LINE
  8
0
 10
-5.75
 20
-78
 11
5.75
 21
-78
  0
LINE
  8
0
 10
5.75
 20
-78
 11
5.75
 21
-75
  0
LINE
  8
0
 10
5.75
 20
-75
 11
10.75
 21
-75
  0
LINE
  8
0
 10
10.75
 20
-75
 11
10.75
 21
-78
  0
LINE
  8
0
 10
10.75
 20
-78
 11
16.75
 21
-78
  0
LINE
  8
0
 10
16.75
 20
-78
 11
16.75
 21
-65
  0
LINE
  8
0
 10
16.75
 20
-65
 11
13.75
 21
-65
  0
LINE
  8
0
 10
13.75
 20
-65
 11
13.75
 21
-60
  0
LINE
  8
0
 10
13.75
 20
-60
 11
16.75
 21
-60
  0
LINE
  8
0
 10
16.75
 20
-60
 11
16.75
 21
-2.5
  0
LINE
  8
0
 10
16.75
 20
-2.5
 11
13.75
 21
-2.5
  0
LINE
  8
0
 10
13.75
 20
-2.5
 11
13.75
 21
2.5
  0
LINE
  8
0
 10
13.75
 20
2.5
 11
16.75
 21
2.5
  0
LINE
  8
0
 10
16.75
 20
2.5
 11
16.75
 21
60
  0
LINE
  8
0
 10
16.75
 20
60
 11
13.75
 21
60
  0
LINE
  8
0
 10
13.75
 20
60
 11
13.75
 21
65
  0
LINE
  8
0
 10
13.75
 20
65
 11
16.75
 21
65
  0
LINE
  8
0
 10
16.75
 20
65
 11
16.75
 21
78
  0
LINE
  8
0
 10
16.75
 20
78
 11
10.75
 21
78
  0
LINE
  8
0
 10
10.75
 20
78
 11
10.75
 21
75
  0
LINE
  8
0
 10
10.75
 20
75
 11
5.75
 21
75
  0
LINE
  8
0
 10
5.75
 20
75
 11
5.75
 21
78
  0
LINE
  8
0
 10
5.75
 20
78
 11
-5.75
 21
78
  0
LINE
  8
0
 10
-5.75
 20
78
 11
-5.75
 21
75
  0
LINE
  8
0
 10
-5.75
 20
75
 11
-10.75
 21
75
  0
LINE
  8
0
 10
-10.75
 20
75
 11
-10.75
 21
78
  0
LINE
  8
0
 10
-10.75
 20
78
 11
-16.75
 21
78
  0
LINE
  8
0
 10
-16.75
 20
78
 11
-16.75
 21
65
  0
LINE
  8
0
 10
-16.75
 20
65
 11
-13.75
 21
65
  0
LINE
  8
0
 10
-13.75
 20
65
 11
-13.75
 21
60
  0
LINE
  8
0
 10
-13.75
 20
60
 11
-16.75
 21
60
  0
LINE
  8
0
 10
-16.75
 20
60
 11
-16.75
 21
2.5
  0
LINE
  8
0
 10
-16.75
 20
2.5
 11
-13.75
 21
2.5
  0
LINE
  8
0
 10
-13.75
 20
2.5
 11
-13.75
 21
-2.5
  0
LINE
  8
0
 10
-13.75
 20
-2.5
 11
-16.75
 21
-2.5
  0
LINE
  8
0
 10
-16.75
 20
-2.5
 11
-16.75
 21
-60
  0
LINE
  8
0
 10
-16.75
 20
-60
 11
-13.75
 21
-60
  0
LINE
  8
0
 10
-13.75
 20
-60
 11
-13.75
 21
-65
  0
LINE
  8
0
 10
-13.75
 20
-65
 11
-16.75
 21
-65
  0
LINE
  8
0
 10
-16.75
 20
-65
 11
-16.75
 21
-78
  0
LINE
  8
0
 10
-16.75
 20
-78
 11
-10.75
 21
-78
  0
LINE
  8
0
 10
-10.75
 20
-78
 11
-10.75
 21
-75
  0
LINE
  8
0
 10
-3.49316
 20
-5.40332
 11
-3.57129
 21
-5.39746
  0
LINE
  8
0
 10
-3.57129
 20
-5.39746
 11
-3.64844
 21
-5.38477
  0
LINE
  8
0
 10
-3.64844
 20
-5.38477
 11
-3.72363
 21
-5.36621
  0
LINE
  8
0
 10
-3.72363
 20
-5.36621
 11
-3.79785
 21
-5.3418
  0
LINE
  8
0
 10
-3.79785
 20
-5.3418
 11
-3.87012
 21
-5.31055
  0
LINE
  8
0
 10
-3.87012
 20
-5.31055
 11
-3.93945
 21
-5.27441
  0
LINE
  8
0
 10
-3.93945
 20
-5.27441
 11
-4.00586
 21
-5.23242
  0
LINE
  8
0
 10
-4.00586
 20
-5.23242
 11
-4.06836
 21
-5.18555
  0
LINE
  8
0
 10
-4.06836
 20
-5.18555
 11
-4.12695
 21
-5.13379
  0
LINE
  8
0
 10
-4.12695
 20
-5.13379
 11
-4.18066
 21
-5.07715
  0
LINE
  8
0
 10
-4.18066
 20
-5.07715
 11
-4.23047
 21
-5.0166
  0
LINE
  8
0
 10
-4.23047
 20
-5.0166
 11
-4.27441
 21
-4.95215
  0
LINE
  8
0
 10
-4.27441
 20
-4.95215
 11
-4.31445
 21
-4.88477
  0
LINE
  8
0
 10
-4.31445
 20
-4.88477
 11
-4.34766
 21
-4.81445
  0
LINE
  8
0
 10
-4.34766
 20
-4.81445
 11
-4.375
 21
-4.74121
  0
LINE
  8
0
 10
-4.375
 20
-4.74121
 11
-4.39648
 21
-4.66602
  0
LINE
  8
0
 10
-4.39648
 20
-4.66602
 11
-4.41211
 21
-4.58984
  0
LINE
  8
0
 10
-4.41211
 20
-4.58984
 11
-4.42188
 21
-4.51172
  0
LINE
  8
0
 10
-4.42188
 20
-4.51172
 11
-4.4248
 21
-4.43359
  0
LINE
  8
0
 10
-4.4248
 20
-4.43359
 11
-4.42188
 21
-4.35547
  0
LINE
  8
0
 10
-4.42188
 20
-4.35547
 11
-4.41211
 21
-4.27734
  0
LINE
  8
0
 10
-4.41211
 20
-4.27734
 11
-4.39648
 21
-4.20117
  0
LINE
  8
0
 10
-4.39648
 20
-4.20117
 11
-4.375
 21
-4.12598
  0
LINE
  8
0
 10
-4.375
 20
-4.12598
 11
-4.34766
 21
-4.05273
  0
LINE
  8
0
 10
-4.34766
 20
-4.05273
 11
-4.31348
 21
-3.98242
  0
LINE
  8
0
 10
-4.31348
 20
-3.98242
 11
-4.27441
 21
-3.91406
  0
LINE
  8
0
 10
-4.27441
 20
-3.91406
 11
-4.23047
 21
-3.85059
  0
LINE
  8
0
 10
-4.23047
 20
-3.85059
 11
-4.18066
 21
-3.79004
  0
LINE
  8
0
 10
-4.18066
 20
-3.79004
 11
-4.12695
 21
-3.7334
  0
LINE
  8
0
 10
-4.12695
 20
-3.7334
 11
-4.06836
 21
-3.68164
  0
LINE
  8
0
 10
-4.06836
 20
-3.68164
 11
-4.00586
 21
-3.63477
  0
LINE
  8
0
 10
-4.00586
 20
-3.63477
 11
-3.93945
 21
-3.59277
  0
LINE
  8
0
 10
-3.93945
 20
-3.59277
 11
-3.87012
 21
-3.55664
  0
LINE
  8
0
 10
-3.87012
 20
-3.55664
 11
-3.79883
 21
-3.52539
  0
LINE
  8
0
 10
-3.79883
 20
-3.52539
 11
-3.72363
 21
-3.50098
  0
LINE
  8
0
 10
-3.72363
 20
-3.50098
 11
-3.64844
 21
-3.48242
  0
LINE
  8
0
 10
-3.64844
 20
-3.48242
 11
-3.57129
 21
-3.46973
  0
LINE
  8
0
 10
-3.57129
 20
-3.46973
 11
-3.49316
 21
-3.46289
  0
LINE
  8
0
 10
-3.49316
 20
-3.46289
 11
-3.41504
 21
-3.46289
  0
LINE
  8
0
 10
-3.41504
 20
-3.46289
 11
-3.33691
 21
-3.46973
  0
LINE
  8
0
 10
-3.33691
 20
-3.46973
 11
-3.25977
 21
-3.48242
  0
LINE
  8
0
 10
-3.25977
 20
-3.48242
 11
-3.18457
 21
-3.50098
  0
LINE
  8
0
 10
-3.18457
 20
-3.50098
 11
-3.11035
 21
-3.52539
  0
LINE
  8
0
 10
-3.11035
 20
-3.52539
 11
-3.03809
 21
-3.55664
  0
LINE
  8
0
 10
-3.03809
 20
-3.55664
 11
-2.96875
 21
-3.59277
  0
LINE
  8
0
 10
-2.96875
 20
-3.59277
 11
-2.90234
 21
-3.63477
  0
LINE
  8
0
 10
-2.90234
 20
-3.63477
 11
-2.83984
 21
-3.68164
  0
LINE
  8
0
 10
-2.83984
 20
-3.68164
 11
-2.78125
 21
-3.7334
  0
LINE
  8
0
 10
-2.78125
 20
-3.7334
 11
-2.72754
 21
-3.79004
  0
LINE
  8
0
 10
-2.72754
 20
-3.79004
 11
-2.67773
 21
-3.85059
  0
LINE
  8
0
 10
-2.67773
 20
-3.85059
 11
-2.63379
 21
-3.91406
  0
LINE
  8
0
 10
-2.63379
 20
-3.91406
 11
-2.59473
 21
-3.98242
  0
LINE
  8
0
 10
-2.59473
 20
-3.98242
 11
-2.56055
 21
-4.05273
  0
LINE
  8
0
 10
-2.56055
 20
-4.05273
 11
-2.5332
 21
-4.12598
  0
LINE
  8
0
 10
-2.5332
 20
-4.12598
 11
-2.51172
 21
-4.20117
  0
LINE
  8
0
 10
-2.51172
 20
-4.20117
 11
-2.49609
 21
-4.27734
  0
LINE
  8
0
 10
-2.49609
 20
-4.27734
 11
-2.48633
 21
-4.35547
  0
LINE
  8
0
 10
-2.48633
 20
-4.35547
 11
-2.4834
 21
-4.43359
  0
LINE
  8
0
 10
-2.4834
 20
-4.43359
 11
-2.48633
 21
-4.51172
  0
LINE
  8
0
 10
-2.48633
 20
-4.51172
 11
-2.49609
 21
-4.58984
  0
LINE
  8
0
 10
-2.49609
 20
-4.58984
 11
-2.51172
 21
-4.66602
  0
LINE
  8
0
 10
-2.51172
 20
-4.66602
 11
-2.5332
 21
-4.74121
  0
LINE
  8
0
 10
-2.5332
 20
-4.74121
 11
-2.56055
 21
-4.81445
  0
LINE
  8
0
 10
-2.56055
 20
-4.81445
 11
-2.59473
 21
-4.88477
  0
LINE
  8
0
 10
-2.59473
 20
-4.88477
 11
-2.63379
 21
-4.95215
  0
LINE
  8
0
 10
-2.63379
 20
-4.95215
 11
-2.67773
 21
-5.0166
  0
LINE
  8
0
 10
-2.67773
 20
-5.0166
 11
-2.72754
 21
-5.07715
  0
LINE
  8
0
 10
-2.72754
 20
-5.07715
 11
-2.78125
 21
-5.13379
  0
LINE
  8
0
 10
-2.78125
 20
-5.13379
 11
-2.83984
 21
-5.18555
  0
LINE
  8
0
 10
-2.83984
 20
-5.18555
 11
-2.90234
 21
-5.23242
  0
LINE
  8
0
 10
-2.90234
 20
-5.23242
 11
-2.96875
 21
-5.27441
  0
LINE
  8
0
 10
-2.96875
 20
-5.27441
 11
-3.03809
 21
-5.31055
  0
LINE
  8
0
 10
-3.03809
 20
-5.31055
 11
-3.11035
 21
-5.3418
  0
LINE
  8
0
 10
-3.11035
 20
-5.3418
 11
-3.18457
 21
-5.36621
  0
LINE
  8
0
 10
-3.18457
 20
-5.36621
 11
-3.25977
 21
-5.38477
  0
LINE
  8
0
 10
-3.25977
 20
-5.38477
 11
-3.33691
 21
-5.39746
  0
LINE
  8
0
 10
-3.33691
 20
-5.39746
 11
-3.41504
 21
-5.40332
  0
LINE
  8
0
 10
-3.41504
 20
-5.40332
 11
-3.49316
 21
-5.40332
  0
LINE
  8
0
 10
-13.3262
 20
-38.3057
 11
-13.3262
 21
-10.5615
  0
LINE
  8
0
 10
-13.3262
 20
-10.5615
 11
6.41797
 21
-10.5615
  0
LINE
  8
0
 10
6.41797
 20
-10.5615
 11
6.41797
 21
-38.3057
  0
LINE
  8
0
 10
6.41797
 20
-38.3057
 11
-13.3262
 21
-38.3057
  0
LINE
  8
0
 10
-3.49316
 20
-45.3955
 11
-3.57031
 21
-45.3887
  0
LINE
  8
0
 10
-3.57031
 20
-45.3887
 11
-3.64648
 21
-45.377
  0
LINE
  8
0
 10
-3.64648
 20
-45.377
 11
-3.72168
 21
-45.3584
  0
LINE
  8
0
 10
-3.72168
 20
-45.3584
 11
-3.79492
 21
-45.333
  0
LINE
  8
0
 10
-3.79492
 20
-45.333
 11
-3.86719
 21
-45.3027
  0
LINE
  8
0
 10
-3.86719
 20
-45.3027
 11
-3.93555
 21
-45.2666
  0
LINE
  8
0
 10
-3.93555
 20
-45.2666
 11
-4.00098
 21
-45.2256
  0
LINE
  8
0
 10
-4.00098
 20
-45.2256
 11
-4.0625
 21
-45.1787
  0
LINE
  8
0
 10
-4.0625
 20
-45.1787
 11
-4.12109
 21
-45.127
  0
LINE
  8
0
 10
-4.12109
 20
-45.127
 11
-4.1748
 21
-45.0713
  0
LINE
  8
0
 10
-4.1748
 20
-45.0713
 11
-4.22363
 21
-45.0117
  0
LINE
  8
0
 10
-4.22363
 20
-45.0117
 11
-4.26758
 21
-44.9482
  0
LINE
  8
0
 10
-4.26758
 20
-44.9482
 11
-4.30664
 21
-44.8809
  0
LINE
  8
0
 10
-4.30664
 20
-44.8809
 11
-4.33984
 21
-44.8105
  0
LINE
  8
0
 10
-4.33984
 20
-44.8105
 11
-4.36719
 21
-44.7383
  0
LINE
  8
0
 10
-4.36719
 20
-44.7383
 11
-4.38867
 21
-44.6641
  0
LINE
  8
0
 10
-4.38867
 20
-44.6641
 11
-4.4043
 21
-44.5879
  0
LINE
  8
0
 10
-4.4043
 20
-44.5879
 11
-4.41309
 21
-44.5107
  0
LINE
  8
0
 10
-4.41309
 20
-44.5107
 11
-4.41699
 21
-44.4336
  0
LINE
  8
0
 10
-4.41699
 20
-44.4336
 11
-4.41309
 21
-44.3555
  0
LINE
  8
0
 10
-4.41309
 20
-44.3555
 11
-4.4043
 21
-44.2793
  0
LINE
  8
0
 10
-4.4043
 20
-44.2793
 11
-4.38867
 21
-44.2031
  0
LINE
  8
0
 10
-4.38867
 20
-44.2031
 11
-4.36719
 21
-44.1289
  0
LINE
  8
0
 10
-4.36719
 20
-44.1289
 11
-4.33984
 21
-44.0566
  0
LINE
  8
0
 10
-4.33984
 20
-44.0566
 11
-4.30664
 21
-43.9863
  0
LINE
  8
0
 10
-4.30664
 20
-43.9863
 11
-4.26758
 21
-43.9189
  0
LINE
  8
0
 10
-4.26758
 20
-43.9189
 11
-4.22363
 21
-43.8555
  0
LINE
  8
0
 10
-4.22363
 20
-43.8555
 11
-4.1748
 21
-43.7949
  0
LINE
  8
0
 10
-4.1748
 20
-43.7949
 11
-4.12109
 21
-43.7393
  0
LINE
  8
0
 10
-4.12109
 20
-43.7393
 11
-4.06348
 21
-43.6885
  0
LINE
  8
0
 10
-4.06348
 20
-43.6885
 11
-4.00098
 21
-43.6416
  0
LINE
  8
0
 10
-4.00098
 20
-43.6416
 11
-3.93555
 21
-43.5996
  0
LINE
  8
0
 10
-3.93555
 20
-43.5996
 11
-3.86621
 21
-43.5635
  0
LINE
  8
0
 10
-3.86621
 20
-43.5635
 11
-3.79492
 21
-43.5332
  0
LINE
  8
0
 10
-3.79492
 20
-43.5332
 11
-3.72168
 21
-43.5088
  0
LINE
  8
0
 10
-3.72168
 20
-43.5088
 11
-3.64648
 21
-43.4902
  0
LINE
  8
0
 10
-3.64648
 20
-43.4902
 11
-3.57031
 21
-43.4785
  0
LINE
  8
0
 10
-3.57031
 20
-43.4785
 11
-3.49316
 21
-43.4717
  0
LINE
  8
0
 10
-3.49316
 20
-43.4717
 11
-3.41504
 21
-43.4717
  0
LINE
  8
0
 10
-3.41504
 20
-43.4717
 11
-3.33789
 21
-43.4785
  0
LINE
  8
0
 10
-3.33789
 20
-43.4785
 11
-3.26172
 21
-43.4902
  0
LINE
  8
0
 10
-3.26172
 20
-43.4902
 11
-3.18652
 21
-43.5088
  0
LINE
  8
0
 10
-3.18652
 20
-43.5088
 11
-3.11328
 21
-43.5332
  0
LINE
  8
0
 10
-3.11328
 20
-43.5332
 11
-3.04102
 21
-43.5645
  0
LINE
  8
0
 10
-3.04102
 20
-43.5645
 11
-2.97266
 21
-43.5996
  0
LINE
  8
0
 10
-2.97266
 20
-43.5996
 11
-2.90723
 21
-43.6416
  0
LINE
  8
0
 10
-2.90723
 20
-43.6416
 11
-2.8457
 21
-43.6885
  0
LINE
  8
0
 10
-2.8457
 20
-43.6885
 11
-2.78711
 21
-43.7393
  0
LINE
  8
0
 10
-2.78711
 20
-43.7393
 11
-2.7334
 21
-43.7959
  0
LINE
  8
0
 10
-2.7334
 20
-43.7959
 11
-2.68457
 21
-43.8555
  0
LINE
  8
0
 10
-2.68457
 20
-43.8555
 11
-2.64062
 21
-43.9189
  0
LINE
  8
0
 10
-2.64062
 20
-43.9189
 11
-2.60156
 21
-43.9863
  0
LINE
  8
0
 10
-2.60156
 20
-43.9863
 11
-2.56836
 21
-44.0557
  0
LINE
  8
0
 10
-2.56836
 20
-44.0557
 11
-2.54102
 21
-44.1289
  0
LINE
  8
0
 10
-2.54102
 20
-44.1289
 11
-2.51953
 21
-44.2031
  0
LINE
  8
0
 10
-2.51953
 20
-44.2031
 11
-2.50391
 21
-44.2793
  0
LINE
  8
0
 10
-2.50391
 20
-44.2793
 11
-2.49512
 21
-44.3564
  0
LINE
  8
0
 10
-2.49512
 20
-44.3564
 11
-2.49219
 21
-44.4336
  0
LINE
  8
0
 10
-2.49219
 20
-44.4336
 11
-2.49512
 21
-44.5107
  0
LINE
  8
0
 10
-2.49512
 20
-44.5107
 11
-2.50391
 21
-44.5879
  0
LINE
  8
0
 10
-2.50391
 20
-44.5879
 11
-2.51953
 21
-44.6641
  0
LINE
  8
0
 10
-2.51953
 20
-44.6641
 11
-2.54102
 21
-44.7383
  0
LINE
  8
0
 10
-2.54102
 20
-44.7383
 11
-2.56836
 21
-44.8105
  0
LINE
  8
0
 10
-2.56836
 20
-44.8105
 11
-2.60156
 21
-44.8809
  0
LINE
  8
0
 10
-2.60156
 20
-44.8809
 11
-2.64062
 21
-44.9482
  0
LINE
  8
0
 10
-2.64062
 20
-44.9482
 11
-2.68457
 21
-45.0117
  0
LINE
  8
0
 10
-2.68457
 20
-45.0117
 11
-2.7334
 21
-45.0713
  0
LINE
  8
0
 10
-2.7334
 20
-45.0713
 11
-2.78711
 21
-45.127
  0
LINE
  8
0
 10
-2.78711
 20
-45.127
 11
-2.8457
 21
-45.1787
  0
LINE
  8
0
 10
-2.8457
 20
-45.1787
 11
-2.90723
 21
-45.2256
  0
LINE
  8
0
 10
-2.90723
 20
-45.2256
 11
-2.97266
 21
-45.2666
  0
LINE
  8
0
 10
-2.97266
 20
-45.2666
 11
-3.04199
 21
-45.3027
  0
LINE
  8
0
 10
-3.04199
 20
-45.3027
 11
-3.11328
 21
-45.333
  0
LINE
  8
0
 10
-3.11328
 20
-45.333
 11
-3.18652
 21
-45.3584
  0
LINE
  8
0
 10
-3.18652
 20
-45.3584
 11
-3.26172
 21
-45.377
  0
LINE
  8
0
 10
-3.26172
 20
-45.377
 11
-3.33789
 21
-45.3887
  0
LINE
  8
0
 10
-3.33789
 20
-45.3887
 11
-3.41504
 21
-45.3955
  0
LINE
  8
0
 10
-3.41504
 20
-45.3955
 11
-3.49316
 21
-45.3955
  0
LINE
  8
0
 10
-10.75
 20
-236
 11
-5.75
 21
-236
  0
LINE
  8
0
 10
-5.75
 20
-236
 11
-5.75
 21
-239
  0
LINE
  8
0
 10
-5.75
 20
-239
 11
5.75
 21
-239
  0
LINE
  8
0
 10
5.75
 20
-239
 11
5.75
 21
-236
  0
LINE
  8
0
 10
5.75
 20
-236
 11
10.75
 21
-236
  0
LINE
  8
0
 10
10.75
 20
-236
 11
10.75
 21
-239
  0
LINE
  8
0
 10
10.75
 20
-239
 11
16.75
 21
-239
  0
LINE
  8
0
 10
16.75
 20
-239
 11
16.75
 21
-226
  0
LINE
  8
0
 10
16.75
 20
-226
 11
13.75
 21
-226
  0
LINE
  8
0
 10
13.75
 20
-226
 11
13.75
 21
-221
  0
LINE
  8
0
 10
13.75
 20
-221
 11
16.75
 21
-221
  0
LINE
  8
0
 10
16.75
 20
-221
 11
16.75
 21
-163.5
  0
LINE
  8
0
 10
16.75
 20
-163.5
 11
13.75
 21
-163.5
  0
LINE
  8
0
 10
13.75
 20
-163.5
 11
13.75
 21
-158.5
  0
LINE
  8
0
 10
13.75
 20
-158.5
 11
16.75
 21
-158.5
  0
LINE
  8
0
 10
16.75
 20
-158.5
 11
16.75
 21
-101
  0
LINE
  8
0
 10
16.75
 20
-101
 11
13.75
 21
-101
  0
LINE
  8
0
 10
13.75
 20
-101
 11
13.75
 21
-96
  0
LINE
  8
0
 10
13.75
 20
-96
 11
16.75
 21
-96
  0
LINE
  8
0
 10
16.75
 20
-96
 11
16.75
 21
-83
  0
LINE
  8
0
 10
16.75
 20
-83
 11
10.75
 21
-83
  0
LINE
  8
0
 10
10.75
 20
-83
 11
10.75
 21
-86
  0
LINE
  8
0
 10
10.75
 20
-86
 11
5.75
 21
-86
  0
LINE
  8
0
 10
5.75
 20
-86
 11
5.75
 21
-83
  0
LINE
  8
0
 10
5.75
 20
-83
 11
-5.75
 21
-83
  0
LINE
  8
0
 10
-5.75
 20
-83
 11
-5.75
 21
-86
  0
LINE
  8
0
 10
-5.75
 20
-86
 11
-10.75
 21
-86
  0
LINE
  8
0
 10
-10.75
 20
-86
 11
-10.75
 21
-83
  0
LINE
  8
0
 10
-10.75
 20
-83
 11
-16.75
 21
-83
  0
LINE
  8
0
 10
-16.75
 20
-83
 11
-16.75
 21
-96
  0
LINE
  8
0
 10
-16.75
 20
-96
 11
-13.75
 21
-96
  0
LINE
  8
0
 10
-13.75
 20
-96
 11
-13.75
 21
-101
  0
LINE
  8
0
 10
-13.75
 20
-101
 11
-16.75
 21
-101
  0
LINE
  8
0
 10
-16.75
 20
-101
 11
-16.75
 21
-158.5
  0
LINE
  8
0
 10
-16.75
 20
-158.5
 11
-13.75
 21
-158.5
  0
LINE
  8
0
 10
-13.75
 20
-158.5
 11
-13.75
 21
-163.5
  0
LINE
  8
0
 10
-13.75
 20
-163.5
 11
-16.75
 21
-163.5
  0
LINE
  8
0
 10
-16.75
 20
-163.5
 11
-16.75
 21
-221
  0
LINE
  8
0
 10
-16.75
 20
-221
 11
-13.75
 21
-221
  0
LINE
  8
0
 10
-13.75
 20
-221
 11
-13.75
 21
-226
  0
LINE
  8
0
 10
-13.75
 20
-226
 11
-16.75
 21
-226
  0
LINE
  8
0
 10
-16.75
 20
-226
 11
-16.75
 21
-239
  0
LINE
  8
0
 10
-16.75
 20
-239
 11
-10.75
 21
-239
  0
LINE
  8
0
 10
-10.75
 20
-239
 11
-10.75
 21
-236
  0
LINE
  8
0
 10
-5.75
 20
-487
 11
5.75
 21
-487
  0
LINE
  8
0
 10
5.75
 20
-487
 11
5.75
 21
-490
  0
LINE
  8
0
 10
5.75
 20
-490
 11
10.75
 21
-490
  0
LINE
  8
0
 10
10.75
 20
-490
 11
10.75
 21
-487
  0
LINE
  8
0
 10
10.75
 20
-487
 11
16.75
 21
-487
  0
LINE
  8
0
 10
16.75
 20
-487
 11
16.75
 21
-477
  0
LINE
  8
0
 10
16.75
 20
-477
 11
13.75
 21
-477
  0
LINE
  8
0
 10
13.75
 20
-477
 11
13.75
 21
-472
  0
LINE
  8
0
 10
13.75
 20
-472
 11
16.75
 21
-472
  0
LINE
  8
0
 10
16.75
 20
-472
 11
16.75
 21
-369.5
  0
LINE
  8
0
 10
16.75
 20
-369.5
 11
13.75
 21
-369.5
  0
LINE
  8
0
 10
13.75
 20
-369.5
 11
13.75
 21
-364.5
  0
LINE
  8
0
 10
13.75
 20
-364.5
 11
16.75
 21
-364.5
  0
LINE
  8
0
 10
16.75
 20
-364.5
 11
16.75
 21
-262
  0
LINE
  8
0
 10
16.75
 20
-262
 11
13.75
 21
-262
  0
LINE
  8
0
 10
13.75
 20
-262
 11
13.75
 21
-257
  0
LINE
  8
0
 10
13.75
 20
-257
 11
16.75
 21
-257
  0
LINE
  8
0
 10
16.75
 20
-257
 11
16.75
 21
-247
  0
LINE
  8
0
 10
16.75
 20
-247
 11
10.75
 21
-247
  0
LINE
  8
0
 10
10.75
 20
-247
 11
10.75
 21
-244
  0
LINE
  8
0
 10
10.75
 20
-244
 11
5.75
 21
-244
  0
LINE
  8
0
 10
5.75
 20
-244
 11
5.75
 21
-247
  0
LINE
  8
0
 10
5.75
 20
-247
 11
-5.75
 21
-247
  0
LINE
  8
0
 10
-5.75
 20
-247
 11
-5.75
 21
-244
  0
LINE
  8
0
 10
-5.75
 20
-244
 11
-10.75
 21
-244
  0
LINE
  8
0
 10
-10.75
 20
-244
 11
-10.75
 21
-247
  0
LINE
  8
0
 10
-10.75
 20
-247
 11
-16.75
 21
-247
  0
LINE
  8
0
 10
-16.75
 20
-247
 11
-16.75
 21
-257
  0
LINE
  8
0
 10
-16.75
 20
-257
 11
-13.75
 21
-257
  0
LINE
  8
0
 10
-13.75
 20
-257
 11
-13.75
 21
-262
  0
LINE
  8
0
 10
-13.75
 20
-262
 11
-16.75
 21
-262
  0
LINE
  8
0
 10
-16.75
 20
-262
 11
-16.75
 21
-364.5
  0
LINE
  8
0
 10
-16.75
 20
-364.5
 11
-13.75
 21
-364.5
  0
LINE
  8
0
 10
-13.75
 20
-364.5
 11
-13.75
 21
-369.5
  0
LINE
  8
0
 10
-13.75
 20
-369.5
 11
-16.75
 21
-369.5
  0
LINE
  8
0
 10
-16.75
 20
-369.5
 11
-16.75
 21
-472
  0
LINE
  8
0
 10
-16.75
 20
-472
 11
-13.75
 21
-472
  0
LINE
  8
0
 10
-13.75
 20
-472
 11
-13.75
 21
-477
  0
LINE
  8
0
 10
-13.75
 20
-477
 11
-16.75
 21
-477
  0
LINE
  8
0
 10
-16.75
 20
-477
 11
-16.75
 21
-487
  0
LINE
  8
0
 10
-16.75
 20
-487
 11
-10.75
 21
-487
  0
LINE
  8
0
 10
-10.75
 20
-487
 11
-10.75
 21
-490
  0
LINE
  8
0
 10
-10.75
 20
-490
 11
-5.75
 21
-490
  0
LINE
  8
0
 10
-5.75
 20
-490
 11
-5.75
 21
-487
  0
LINE
  8
0
 10
-2.33691
 20
-264.779
 11
-4.24609
 21
-263.678
  0
LINE
  8
0
 10
-4.24609
 20
-263.678
 11
-5.68457
 21
-261.967
  0
LINE
  8
0
 10
-5.68457
 20
-261.967
 11
-6.44824
 21
-259.865
  0
LINE
  8
0
 10
-6.44824
 20
-259.865
 11
-6.44824
 21
-257.662
  0
LINE
  8
0
 10
-6.44824
 20
-257.662
 11
-5.68457
 21
-255.561
  0
LINE
  8
0
 10
-5.68457
 20
-255.561
 11
-4.24609
 21
-253.849
  0
LINE
  8
0
 10
-4.24609
 20
-253.849
 11
-2.33691
 21
-252.747
  0
LINE
  8
0
 10
-2.33691
 20
-252.747
 11
-0.135742
 21
-252.358
  0
LINE
  8
0
 10
-0.135742
 20
-252.358
 11
2.06641
 21
-252.747
  0
LINE
  8
0
 10
2.06641
 20
-252.747
 11
3.97559
 21
-253.849
  0
LINE
  8
0
 10
3.97559
 20
-253.849
 11
5.41406
 21
-255.561
  0
LINE
  8
0
 10
5.41406
 20
-255.561
 11
6.17676
 21
-257.662
  0
LINE
  8
0
 10
6.17676
 20
-257.662
 11
6.17676
 21
-259.865
  0
LINE
  8
0
 10
6.17676
 20
-259.865
 11
5.41406
 21
-261.967
  0
LINE
  8
0
 10
5.41406
 20
-261.967
 11
3.97559
 21
-263.678
  0
LINE
  8
0
 10
3.97559
 20
-263.678
 11
2.06641
 21
-264.779
  0
LINE
  8
0
 10
2.06641
 20
-264.779
 11
-0.135742
 21
-265.169
  0
LINE
  8
0
 10
-0.135742
 20
-265.169
 11
-2.33691
 21
-264.779
  0
LINE
  8
0
 10
-7.50586
 20
-273.263
 11
-8.00586
 21
-272.974
  0
LINE
  8
0
 10
-8.00586
 20
-272.974
 11
-8.38281
 21
-272.525
  0
LINE
  8
0
 10
-8.38281
 20
-272.525
 11
-8.58301
 21
-271.974
  0
LINE
  8
0
 10
-8.58301
 20
-271.974
 11
-8.58301
 21
-271.396
  0
LINE
  8
0
 10
-8.58301
 20
-271.396
 11
-8.38281
 21
-270.846
  0
LINE
  8
0
 10
-8.38281
 20
-270.846
 11
-8.00586
 21
-270.396
  0
LINE
  8
0
 10
-8.00586
 20
-270.396
 11
-7.50586
 21
-270.107
  0
LINE
  8
0
 10
-7.50586
 20
-270.107
 11
-6.92871
 21
-270.005
  0
LINE
  8
0
 10
-6.92871
 20
-270.005
 11
-6.35156
 21
-270.107
  0
LINE
  8
0
 10
-6.35156
 20
-270.107
 11
-5.85059
 21
-270.396
  0
LINE
  8
0
 10
-5.85059
 20
-270.396
 11
-5.47363
 21
-270.846
  0
LINE
  8
0
 10
-5.47363
 20
-270.846
 11
-5.27344
 21
-271.396
  0
LINE
  8
0
 10
-5.27344
 20
-271.396
 11
-5.27344
 21
-271.974
  0
LINE
  8
0
 10
-5.27344
 20
-271.974
 11
-5.47363
 21
-272.525
  0
LINE
  8
0
 10
-5.47363
 20
-272.525
 11
-5.85059
 21
-272.974
  0
LINE
  8
0
 10
-5.85059
 20
-272.974
 11
-6.35156
 21
-273.263
  0
LINE
  8
0
 10
-6.35156
 20
-273.263
 11
-6.92871
 21
-273.365
  0
LINE
  8
0
 10
-6.92871
 20
-273.365
 11
-7.50586
 21
-273.263
  0
LINE
  8
0
 10
-0.712891
 20
-273.263
 11
-1.21289
 21
-272.974
  0
LINE
  8
0
 10
-1.21289
 20
-272.974
 11
-1.58984
 21
-272.525
  0
LINE
  8
0
 10
-1.58984
 20
-272.525
 11
-1.79004
 21
-271.974
  0
LINE
  8
0
 10
-1.79004
 20
-271.974
 11
-1.79004
 21
-271.396
  0
LINE
  8
0
 10
-1.79004
 20
-271.396
 11
-1.58984
 21
-270.846
  0
LINE
  8
0
 10
-1.58984
 20
-270.846
 11
-1.21289
 21
-270.396
  0
LINE
  8
0
 10
-1.21289
 20
-270.396
 11
-0.712891
 21
-270.107
  0
LINE
  8
0
 10
-0.712891
 20
-270.107
 11
-0.135742
 21
-270.005
  0
LINE
  8
0
 10
-0.135742
 20
-270.005
 11
0.441406
 21
-270.107
  0
LINE
  8
0
 10
0.441406
 20
-270.107
 11
0.942383
 21
-270.396
  0
LINE
  8
0
 10
0.942383
 20
-270.396
 11
1.31934
 21
-270.846
  0
LINE
  8
0
 10
1.31934
 20
-270.846
 11
1.51953
 21
-271.396
  0
LINE
  8
0
 10
1.51953
 20
-271.396
 11
1.51953
 21
-271.974
  0
LINE
  8
0
 10
1.51953
 20
-271.974
 11
1.31934
 21
-272.525
  0
LINE
  8
0
 10
1.31934
 20
-272.525
 11
0.942383
 21
-272.974
  0
LINE
  8
0
 10
0.942383
 20
-272.974
 11
0.441406
 21
-273.263
  0
LINE
  8
0
 10
0.441406
 20
-273.263
 11
-0.135742
 21
-273.365
  0
LINE
  8
0
 10
-0.135742
 20
-273.365
 11
-0.712891
 21
-273.263
  0
LINE
  8
0
 10
-8.11035
 20
-299.936
 11
-8.11035
 21
-276.435
  0
LINE
  8
0
 10
-8.11035
 20
-276.435
 11
5.88867
 21
-276.435
  0
LINE
  8
0
 10
5.88867
 20
-276.435
 11
5.88867
 21
-299.936
  0
LINE
  8
0
 10
5.88867
 20
-299.936
 11
-8.11035
 21
-299.936
  0
LINE
  8
0
 10
-3.00586
 20
-318.441
 11
-4.10059
 21
-317.811
  0
LINE
  8
0
 10
-4.10059
 20
-317.811
 11
-4.92578
 21
-316.828
  0
LINE
  8
0
 10
-4.92578
 20
-316.828
 11
-5.36426
 21
-315.622
  0
LINE
  8
0
 10
-5.36426
 20
-315.622
 11
-5.36426
 21
-314.358
  0
LINE
  8
0
 10
-5.36426
 20
-314.358
 11
-4.92578
 21
-313.152
  0
LINE
  8
0
 10
-4.92578
 20
-313.152
 11
-4.10059
 21
-312.17
  0
LINE
  8
0
 10
-4.10059
 20
-312.17
 11
-3.00586
 21
-311.538
  0
LINE
  8
0
 10
-3.00586
 20
-311.538
 11
-1.74219
 21
-311.315
  0
LINE
  8
0
 10
-1.74219
 20
-311.315
 11
-0.478516
 21
-311.538
  0
LINE
  8
0
 10
-0.478516
 20
-311.538
 11
0.616211
 21
-312.17
  0
LINE
  8
0
 10
0.616211
 20
-312.17
 11
1.44238
 21
-313.152
  0
LINE
  8
0
 10
1.44238
 20
-313.152
 11
1.87988
 21
-314.358
  0
LINE
  8
0
 10
1.87988
 20
-314.358
 11
1.87988
 21
-315.622
  0
LINE
  8
0
 10
1.87988
 20
-315.622
 11
1.44238
 21
-316.828
  0
LINE
  8
0
 10
1.44238
 20
-316.828
 11
0.616211
 21
-317.811
  0
LINE
  8
0
 10
0.616211
 20
-317.811
 11
-0.478516
 21
-318.441
  0
LINE
  8
0
 10
-0.478516
 20
-318.441
 11
-1.74219
 21
-318.665
  0
LINE
  8
0
 10
-1.74219
 20
-318.665
 11
-3.00586
 21
-318.441
  0
LINE
  8
0
 10
-2.33691
 20
-344.779
 11
-4.24609
 21
-343.678
  0
LINE
  8
0
 10
-4.24609
 20
-343.678
 11
-5.68457
 21
-341.967
  0
LINE
  8
0
 10
-5.68457
 20
-341.967
 11
-6.44824
 21
-339.865
  0
LINE
  8
0
 10
-6.44824
 20
-339.865
 11
-6.44824
 21
-337.661
  0
LINE
  8
0
 10
-6.44824
 20
-337.661
 11
-5.68457
 21
-335.56
  0
LINE
  8
0
 10
-5.68457
 20
-335.56
 11
-4.24609
 21
-333.849
  0
LINE
  8
0
 10
-4.24609
 20
-333.849
 11
-2.33691
 21
-332.748
  0
LINE
  8
0
 10
-2.33691
 20
-332.748
 11
-0.135742
 21
-332.358
  0
LINE
  8
0
 10
-0.135742
 20
-332.358
 11
2.06641
 21
-332.748
  0
LINE
  8
0
 10
2.06641
 20
-332.748
 11
3.97559
 21
-333.849
  0
LINE
  8
0
 10
3.97559
 20
-333.849
 11
5.41406
 21
-335.56
  0
LINE
  8
0
 10
5.41406
 20
-335.56
 11
6.17676
 21
-337.661
  0
LINE
  8
0
 10
6.17676
 20
-337.661
 11
6.17676
 21
-339.865
  0
LINE
  8
0
 10
6.17676
 20
-339.865
 11
5.41406
 21
-341.967
  0
LINE
  8
0
 10
5.41406
 20
-341.967
 11
3.97559
 21
-343.678
  0
LINE
  8
0
 10
3.97559
 20
-343.678
 11
2.06641
 21
-344.779
  0
LINE
  8
0
 10
2.06641
 20
-344.779
 11
-0.135742
 21
-345.168
  0
LINE
  8
0
 10
-0.135742
 20
-345.168
 11
-2.33691
 21
-344.779
  0
LINE
  8
0
 10
-7.50586
 20
-353.263
 11
-8.00586
 21
-352.974
  0
LINE
  8
0
 10
-8.00586
 20
-352.974
 11
-8.38281
 21
-352.525
  0
LINE
  8
0
 10
-8.38281
 20
-352.525
 11
-8.58301
 21
-351.975
  0
LINE
  8
0
 10
-8.58301
 20
-351.975
 11
-8.58301
 21
-351.396
  0
LINE
  8
0
 10
-8.58301
 20
-351.396
 11
-8.38281
 21
-350.846
  0
LINE
  8
0
 10
-8.38281
 20
-350.846
 11
-8.00586
 21
-350.396
  0
LINE
  8
0
 10
-8.00586
 20
-350.396
 11
-7.50586
 21
-350.107
  0
LINE
  8
0
 10
-7.50586
 20
-350.107
 11
-6.92871
 21
-350.005
  0
LINE
  8
0
 10
-6.92871
 20
-350.005
 11
-6.35156
 21
-350.107
  0
LINE
  8
0
 10
-6.35156
 20
-350.107
 11
-5.85059
 21
-350.396
  0
LINE
  8
0
 10
-5.85059
 20
-350.396
 11
-5.47363
 21
-350.846
  0
LINE
  8
0
 10
-5.47363
 20
-350.846
 11
-5.27344
 21
-351.396
  0
LINE
  8
0
 10
-5.27344
 20
-351.396
 11
-5.27344
 21
-351.975
  0
LINE
  8
0
 10
-5.27344
 20
-351.975
 11
-5.47363
 21
-352.525
  0
LINE
  8
0
 10
-5.47363
 20
-352.525
 11
-5.85059
 21
-352.974
  0
LINE
  8
0
 10
-5.85059
 20
-352.974
 11
-6.35156
 21
-353.263
  0
LINE
  8
0
 10
-6.35156
 20
-353.263
 11
-6.92871
 21
-353.365
  0
LINE
  8
0
 10
-6.92871
 20
-353.365
 11
-7.50586
 21
-353.263
  0
LINE
  8
0
 10
-0.712891
 20
-353.263
 11
-1.21289
 21
-352.974
  0
LINE
  8
0
 10
-1.21289
 20
-352.974
 11
-1.58984
 21
-352.525
  0
LINE
  8
0
 10
-1.58984
 20
-352.525
 11
-1.79004
 21
-351.975
  0
LINE
  8
0
 10
-1.79004
 20
-351.975
 11
-1.79004
 21
-351.396
  0
LINE
  8
0
 10
-1.79004
 20
-351.396
 11
-1.58984
 21
-350.846
  0
LINE
  8
0
 10
-1.58984
 20
-350.846
 11
-1.21289
 21
-350.396
  0
LINE
  8
0
 10
-1.21289
 20
-350.396
 11
-0.712891
 21
-350.107
  0
LINE
  8
0
 10
-0.712891
 20
-350.107
 11
-0.135742
 21
-350.005
  0
LINE
  8
0
 10
-0.135742
 20
-350.005
 11
0.441406
 21
-350.107
  0
LINE
  8
0
 10
0.441406
 20
-350.107
 11
0.942383
 21
-350.396
  0
LINE
  8
0
 10
0.942383
 20
-350.396
 11
1.31934
 21
-350.846
  0
LINE
  8
0
 10
1.31934
 20
-350.846
 11
1.51953
 21
-351.396
  0
LINE
  8
0
 10
1.51953
 20
-351.396
 11
1.51953
 21
-351.975
  0
LINE
  8
0
 10
1.51953
 20
-351.975
 11
1.31934
 21
-352.525
  0
LINE
  8
0
 10
1.31934
 20
-352.525
 11
0.942383
 21
-352.974
  0
LINE
  8
0
 10
0.942383
 20
-352.974
 11
0.441406
 21
-353.263
  0
LINE
  8
0
 10
0.441406
 20
-353.263
 11
-0.135742
 21
-353.365
  0
LINE
  8
0
 10
-0.135742
 20
-353.365
 11
-0.712891
 21
-353.263
  0
LINE
  8
0
 10
-8.11035
 20
-379.935
 11
-8.11035
 21
-356.436
  0
LINE
  8
0
 10
-8.11035
 20
-356.436
 11
5.88867
 21
-356.436
  0
LINE
  8
0
 10
5.88867
 20
-356.436
 11
5.88867
 21
-379.935
  0
LINE
  8
0
 10
5.88867
 20
-379.935
 11
-8.11035
 21
-379.935
  0
LINE
  8
0
 10
-3.00586
 20
-398.442
 11
-4.10059
 21
-397.81
  0
LINE
  8
0
 10
-4.10059
 20
-397.81
 11
-4.92578
 21
-396.828
  0
LINE
  8
0
 10
-4.92578
 20
-396.828
 11
-5.36426
 21
-395.623
  0
LINE
  8
0
 10
-5.36426
 20
-395.623
 11
-5.36426
 21
-394.357
  0
LINE
  8
0
 10
-5.36426
 20
-394.357
 11
-4.92578
 21
-393.152
  0
LINE
  8
0
 10
-4.92578
 20
-393.152
 11
-4.10059
 21
-392.17
  0
LINE
  8
0
 10
-4.10059
 20
-392.17
 11
-3.00586
 21
-391.538
  0
LINE
  8
0
 10
-3.00586
 20
-391.538
 11
-1.74219
 21
-391.315
  0
LINE
  8
0
 10
-1.74219
 20
-391.315
 11
-0.478516
 21
-391.538
  0
LINE
  8
0
 10
-0.478516
 20
-391.538
 11
0.616211
 21
-392.17
  0
LINE
  8
0
 10
0.616211
 20
-392.17
 11
1.44238
 21
-393.152
  0
LINE
  8
0
 10
1.44238
 20
-393.152
 11
1.87988
 21
-394.357
  0
LINE
  8
0
 10
1.87988
 20
-394.357
 11
1.87988
 21
-395.623
  0
LINE
  8
0
 10
1.87988
 20
-395.623
 11
1.44238
 21
-396.828
  0
LINE
  8
0
 10
1.44238
 20
-396.828
 11
0.616211
 21
-397.81
  0
LINE
  8
0
 10
0.616211
 20
-397.81
 11
-0.478516
 21
-398.442
  0
LINE
  8
0
 10
-0.478516
 20
-398.442
 11
-1.74219
 21
-398.665
  0
LINE
  8
0
 10
-1.74219
 20
-398.665
 11
-3.00586
 21
-398.442
  0
LINE
  8
0
 10
-2.37012
 20
-424.871
 11
-4.30859
 21
-423.753
  0
LINE
  8
0
 10
-4.30859
 20
-423.753
 11
-5.76953
 21
-422.016
  0
LINE
  8
0
 10
-5.76953
 20
-422.016
 11
-6.54492
 21
-419.882
  0
LINE
  8
0
 10
-6.54492
 20
-419.882
 11
-6.54492
 21
-417.645
  0
LINE
  8
0
 10
-6.54492
 20
-417.645
 11
-5.76953
 21
-415.512
  0
LINE
  8
0
 10
-5.76953
 20
-415.512
 11
-4.30859
 21
-413.773
  0
LINE
  8
0
 10
-4.30859
 20
-413.773
 11
-2.37012
 21
-412.655
  0
LINE
  8
0
 10
-2.37012
 20
-412.655
 11
-0.135742
 21
-412.261
  0
LINE
  8
0
 10
-0.135742
 20
-412.261
 11
2.09961
 21
-412.655
  0
LINE
  8
0
 10
2.09961
 20
-412.655
 11
4.03809
 21
-413.773
  0
LINE
  8
0
 10
4.03809
 20
-413.773
 11
5.49902
 21
-415.512
  0
LINE
  8
0
 10
5.49902
 20
-415.512
 11
6.27344
 21
-417.645
  0
LINE
  8
0
 10
6.27344
 20
-417.645
 11
6.27344
 21
-419.882
  0
LINE
  8
0
 10
6.27344
 20
-419.882
 11
5.49902
 21
-422.016
  0
LINE
  8
0
 10
5.49902
 20
-422.016
 11
4.03809
 21
-423.753
  0
LINE
  8
0
 10
4.03809
 20
-423.753
 11
2.09961
 21
-424.871
  0
LINE
  8
0
 10
2.09961
 20
-424.871
 11
-0.135742
 21
-425.267
  0
LINE
  8
0
 10
-0.135742
 20
-425.267
 11
-2.37012
 21
-424.871
  0
LINE
  8
0
 10
-7.57227
 20
-433.444
 11
-8.12988
 21
-433.122
  0
LINE
  8
0
 10
-8.12988
 20
-433.122
 11
-8.5498
 21
-432.622
  0
LINE
  8
0
 10
-8.5498
 20
-432.622
 11
-8.77344
 21
-432.008
  0
LINE
  8
0
 10
-8.77344
 20
-432.008
 11
-8.77344
 21
-431.363
  0
LINE
  8
0
 10
-8.77344
 20
-431.363
 11
-8.5498
 21
-430.749
  0
LINE
  8
0
 10
-8.5498
 20
-430.749
 11
-8.12988
 21
-430.248
  0
LINE
  8
0
 10
-8.12988
 20
-430.248
 11
-7.57227
 21
-429.927
  0
LINE
  8
0
 10
-7.57227
 20
-429.927
 11
-6.92871
 21
-429.812
  0
LINE
  8
0
 10
-6.92871
 20
-429.812
 11
-6.28516
 21
-429.927
  0
LINE
  8
0
 10
-6.28516
 20
-429.927
 11
-5.72754
 21
-430.248
  0
LINE
  8
0
 10
-5.72754
 20
-430.248
 11
-5.30664
 21
-430.749
  0
LINE
  8
0
 10
-5.30664
 20
-430.749
 11
-5.08301
 21
-431.363
  0
LINE
  8
0
 10
-5.08301
 20
-431.363
 11
-5.08301
 21
-432.008
  0
LINE
  8
0
 10
-5.08301
 20
-432.008
 11
-5.30664
 21
-432.622
  0
LINE
  8
0
 10
-5.30664
 20
-432.622
 11
-5.72754
 21
-433.122
  0
LINE
  8
0
 10
-5.72754
 20
-433.122
 11
-6.28516
 21
-433.444
  0
LINE
  8
0
 10
-6.28516
 20
-433.444
 11
-6.92871
 21
-433.559
  0
LINE
  8
0
 10
-6.92871
 20
-433.559
 11
-7.57227
 21
-433.444
  0
LINE
  8
0
 10
-0.779297
 20
-433.444
 11
-1.33691
 21
-433.122
  0
LINE
  8
0
 10
-1.33691
 20
-433.122
 11
-1.75781
 21
-432.622
  0
LINE
  8
0
 10
-1.75781
 20
-432.622
 11
-1.98047
 21
-432.008
  0
LINE
  8
0
 10
-1.98047
 20
-432.008
 11
-1.98047
 21
-431.363
  0
LINE
  8
0
 10
-1.98047
 20
-431.363
 11
-1.75781
 21
-430.749
  0
LINE
  8
0
 10
-1.75781
 20
-430.749
 11
-1.33691
 21
-430.248
  0
LINE
  8
0
 10
-1.33691
 20
-430.248
 11
-0.779297
 21
-429.927
  0
LINE
  8
0
 10
-0.779297
 20
-429.927
 11
-0.135742
 21
-429.812
  0
LINE
  8
0
 10
-0.135742
 20
-429.812
 11
0.507812
 21
-429.927
  0
LINE
  8
0
 10
0.507812
 20
-429.927
 11
1.06543
 21
-430.248
  0
LINE
  8
0
 10
1.06543
 20
-430.248
 11
1.48633
 21
-430.749
  0
LINE
  8
0
 10
1.48633
 20
-430.749
 11
1.70898
 21
-431.363
  0
LINE
  8
0
 10
1.70898
 20
-431.363
 11
1.70898
 21
-432.008
  0
LINE
  8
0
 10
1.70898
 20
-432.008
 11
1.48633
 21
-432.622
  0
LINE
  8
0
 10
1.48633
 20
-432.622
 11
1.06543
 21
-433.122
  0
LINE
  8
0
 10
1.06543
 20
-433.122
 11
0.507812
 21
-433.444
  0
LINE
  8
0
 10
0.507812
 20
-433.444
 11
-0.135742
 21
-433.559
  0
LINE
  8
0
 10
-0.135742
 20
-433.559
 11
-0.779297
 21
-433.444
  0
LINE
  8
0
 10
-8.11035
 20
-459.936
 11
-8.11035
 21
-436.435
  0
LINE
  8
0
 10
-8.11035
 20
-436.435
 11
5.88867
 21
-436.435
  0
LINE
  8
0
 10
5.88867
 20
-436.435
 11
5.88867
 21
-459.936
  0
LINE
  8
0
 10
5.88867
 20
-459.936
 11
-8.11035
 21
-459.936
  0
LINE
  8
0
 10
-3.08594
 20
-478.661
 11
-4.25098
 21
-477.989
  0
LINE
  8
0
 10
-4.25098
 20
-477.989
 11
-5.12891
 21
-476.945
  0
LINE
  8
0
 10
-5.12891
 20
-476.945
 11
-5.59473
 21
-475.663
  0
LINE
  8
0
 10
-5.59473
 20
-475.663
 11
-5.59473
 21
-474.317
  0
LINE
  8
0
 10
-5.59473
 20
-474.317
 11
-5.12891
 21
-473.035
  0
LINE
  8
0
 10
-5.12891
 20
-473.035
 11
-4.25098
 21
-471.991
  0
LINE
  8
0
 10
-4.25098
 20
-471.991
 11
-3.08594
 21
-471.319
  0
LINE
  8
0
 10
-3.08594
 20
-471.319
 11
-1.74219
 21
-471.082
  0
LINE
  8
0
 10
-1.74219
 20
-471.082
 11
-0.398438
 21
-471.319
  0
LINE
  8
0
 10
-0.398438
 20
-471.319
 11
0.766602
 21
-471.991
  0
LINE
  8
0
 10
0.766602
 20
-471.991
 11
1.64453
 21
-473.035
  0
LINE
  8
0
 10
1.64453
 20
-473.035
 11
2.11035
 21
-474.317
  0
LINE
  8
0
 10
2.11035
 20
-474.317
 11
2.11035
 21
-475.663
  0
LINE
  8
0
 10
2.11035
 20
-475.663
 11
1.64453
 21
-476.945
  0
LINE
  8
0
 10
1.64453
 20
-476.945
 11
0.766602
 21
-477.989
  0
LINE
  8
0
 10
0.766602
 20
-477.989
 11
-0.398438
 21
-478.661
  0
LINE
  8
0
 10
-0.398438
 20
-478.661
 11
-1.74219
 21
-478.899
  0
LINE
  8
0
 10
-1.74219
 20
-478.899
 11
-3.08594
 21
-478.661
  0
LINE
  8
0
 10
-5.75
 20
-738
 11
5.75
 21
-738
  0
LINE
  8
0
 10
5.75
 20
-738
 11
5.75
 21
-741
  0
LINE
  8
0
 10
5.75
 20
-741
 11
10.75
 21
-741
  0
LINE
  8
0
 10
10.75
 20
-741
 11
10.75
 21
-738
  0
LINE
  8
0
 10
10.75
 20
-738
 11
16.75
 21
-738
  0
LINE
  8
0
 10
16.75
 20
-738
 11
16.75
 21
-728
  0
LINE
  8
0
 10
16.75
 20
-728
 11
13.75
 21
-728
  0
LINE
  8
0
 10
13.75
 20
-728
 11
13.75
 21
-723
  0
LINE
  8
0
 10
13.75
 20
-723
 11
16.75
 21
-723
  0
LINE
  8
0
 10
16.75
 20
-723
 11
16.75
 21
-620.5
  0
LINE
  8
0
 10
16.75
 20
-620.5
 11
13.75
 21
-620.5
  0
LINE
  8
0
 10
13.75
 20
-620.5
 11
13.75
 21
-615.5
  0
LINE
  8
0
 10
13.75
 20
-615.5
 11
16.75
 21
-615.5
  0
LINE
  8
0
 10
16.75
 20
-615.5
 11
16.75
 21
-513
  0
LINE
  8
0
 10
16.75
 20
-513
 11
13.75
 21
-513
  0
LINE
  8
0
 10
13.75
 20
-513
 11
13.75
 21
-508
  0
LINE
  8
0
 10
13.75
 20
-508
 11
16.75
 21
-508
  0
LINE
  8
0
 10
16.75
 20
-508
 11
16.75
 21
-498
  0
LINE
  8
0
 10
16.75
 20
-498
 11
10.75
 21
-498
  0
LINE
  8
0
 10
10.75
 20
-498
 11
10.75
 21
-495
  0
LINE
  8
0
 10
10.75
 20
-495
 11
5.75
 21
-495
  0
LINE
  8
0
 10
5.75
 20
-495
 11
5.75
 21
-498
  0
LINE
  8
0
 10
5.75
 20
-498
 11
-5.75
 21
-498
  0
LINE
  8
0
 10
-5.75
 20
-498
 11
-5.75
 21
-495
  0
LINE
  8
0
 10
-5.75
 20
-495
 11
-10.75
 21
-495
  0
LINE
  8
0
 10
-10.75
 20
-495
 11
-10.75
 21
-498
  0
LINE
  8
0
 10
-10.75
 20
-498
 11
-16.75
 21
-498
  0
LINE
  8
0
 10
-16.75
 20
-498
 11
-16.75
 21
-508
  0
LINE
  8
0
 10
-16.75
 20
-508
 11
-13.75
 21
-508
  0
LINE
  8
0
 10
-13.75
 20
-508
 11
-13.75
 21
-513
  0
LINE
  8
0
 10
-13.75
 20
-513
 11
-16.75
 21
-513
  0
LINE
  8
0
 10
-16.75
 20
-513
 11
-16.75
 21
-615.5
  0
LINE
  8
0
 10
-16.75
 20
-615.5
 11
-13.75
 21
-615.5
  0
LINE
  8
0
 10
-13.75
 20
-615.5
 11
-13.75
 21
-620.5
  0
LINE
  8
0
 10
-13.75
 20
-620.5
 11
-16.75
 21
-620.5
  0
LINE
  8
0
 10
-16.75
 20
-620.5
 11
-16.75
 21
-723
  0
LINE
  8
0
 10
-16.75
 20
-723
 11
-13.75
 21
-723
  0
LINE
  8
0
 10
-13.75
 20
-723
 11
-13.75
 21
-728
  0
LINE
  8
0
 10
-13.75
 20
-728
 11
-16.75
 21
-728
  0
LINE
  8
0
 10
-16.75
 20
-728
 11
-16.75
 21
-738
  0
LINE
  8
0
 10
-16.75
 20
-738
 11
-10.75
 21
-738
  0
LINE
  8
0
 10
-10.75
 20
-738
 11
-10.75
 21
-741
  0
LINE
  8
0
 10
-10.75
 20
-741
 11
-5.75
 21
-741
  0
LINE
  8
0
 10
-5.75
 20
-741
 11
-5.75
 21
-738
  0
LINE
  8
0
 10
0.398438
 20
-513.681
 11
-0.766602
 21
-513.009
  0
LINE
  8
0
 10
-0.766602
 20
-513.009
 11
-1.64453
 21
-511.965
  0
LINE
  8
0
 10
-1.64453
 20
-511.965
 11
-2.11035
 21
-510.683
  0
LINE
  8
0
 10
-2.11035
 20
-510.683
 11
-2.11035
 21
-509.337
  0
LINE
  8
0
 10
-2.11035
 20
-509.337
 11
-1.64453
 21
-508.055
  0
LINE
  8
0
 10
-1.64453
 20
-508.055
 11
-0.766602
 21
-507.011
  0
LINE
  8
0
 10
-0.766602
 20
-507.011
 11
0.398438
 21
-506.339
  0
LINE
  8
0
 10
0.398438
 20
-506.339
 11
1.74219
 21
-506.101
  0
LINE
  8
0
 10
1.74219
 20
-506.101
 11
3.08594
 21
-506.339
  0
LINE
  8
0
 10
3.08594
 20
-506.339
 11
4.25098
 21
-507.011
  0
LINE
  8
0
 10
4.25098
 20
-507.011
 11
5.12891
 21
-508.055
  0
LINE
  8
0
 10
5.12891
 20
-508.055
 11
5.59473
 21
-509.337
  0
LINE
  8
0
 10
5.59473
 20
-509.337
 11
5.59473
 21
-510.683
  0
LINE
  8
0
 10
5.59473
 20
-510.683
 11
5.12891
 21
-511.965
  0
LINE
  8
0
 10
5.12891
 20
-511.965
 11
4.25098
 21
-513.009
  0
LINE
  8
0
 10
4.25098
 20
-513.009
 11
3.08594
 21
-513.681
  0
LINE
  8
0
 10
3.08594
 20
-513.681
 11
1.74219
 21
-513.918
  0
LINE
  8
0
 10
1.74219
 20
-513.918
 11
0.398438
 21
-513.681
  0
LINE
  8
0
 10
-5.88867
 20
-548.565
 11
-5.88867
 21
-525.064
  0
LINE
  8
0
 10
-5.88867
 20
-525.064
 11
8.11035
 21
-525.064
  0
LINE
  8
0
 10
8.11035
 20
-525.064
 11
8.11035
 21
-548.565
  0
LINE
  8
0
 10
8.11035
 20
-548.565
 11
-5.88867
 21
-548.565
  0
LINE
  8
0
 10
-0.507812
 20
-555.073
 11
-1.06543
 21
-554.752
  0
LINE
  8
0
 10
-1.06543
 20
-554.752
 11
-1.48633
 21
-554.251
  0
LINE
  8
0
 10
-1.48633
 20
-554.251
 11
-1.70898
 21
-553.637
  0
LINE
  8
0
 10
-1.70898
 20
-553.637
 11
-1.70898
 21
-552.992
  0
LINE
  8
0
 10
-1.70898
 20
-552.992
 11
-1.48633
 21
-552.378
  0
LINE
  8
0
 10
-1.48633
 20
-552.378
 11
-1.06543
 21
-551.878
  0
LINE
  8
0
 10
-1.06543
 20
-551.878
 11
-0.507812
 21
-551.556
  0
LINE
  8
0
 10
-0.507812
 20
-551.556
 11
0.135742
 21
-551.441
  0
LINE
  8
0
 10
0.135742
 20
-551.441
 11
0.779297
 21
-551.556
  0
LINE
  8
0
 10
0.779297
 20
-551.556
 11
1.33691
 21
-551.878
  0
LINE
  8
0
 10
1.33691
 20
-551.878
 11
1.75781
 21
-552.378
  0
LINE
  8
0
 10
1.75781
 20
-552.378
 11
1.98047
 21
-552.992
  0
LINE
  8
0
 10
1.98047
 20
-552.992
 11
1.98047
 21
-553.637
  0
LINE
  8
0
 10
1.98047
 20
-553.637
 11
1.75781
 21
-554.251
  0
LINE
  8
0
 10
1.75781
 20
-554.251
 11
1.33691
 21
-554.752
  0
LINE
  8
0
 10
1.33691
 20
-554.752
 11
0.779297
 21
-555.073
  0
LINE
  8
0
 10
0.779297
 20
-555.073
 11
0.135742
 21
-555.188
  0
LINE
  8
0
 10
0.135742
 20
-555.188
 11
-0.507812
 21
-555.073
  0
LINE
  8
0
 10
6.28516
 20
-555.073
 11
5.72754
 21
-554.752
  0
LINE
  8
0
 10
5.72754
 20
-554.752
 11
5.30664
 21
-554.251
  0
LINE
  8
0
 10
5.30664
 20
-554.251
 11
5.08301
 21
-553.637
  0
LINE
  8
0
 10
5.08301
 20
-553.637
 11
5.08301
 21
-552.992
  0
LINE
  8
0
 10
5.08301
 20
-552.992
 11
5.30664
 21
-552.378
  0
LINE
  8
0
 10
5.30664
 20
-552.378
 11
5.72754
 21
-551.878
  0
LINE
  8
0
 10
5.72754
 20
-551.878
 11
6.28516
 21
-551.556
  0
LINE
  8
0
 10
6.28516
 20
-551.556
 11
6.92871
 21
-551.441
  0
LINE
  8
0
 10
6.92871
 20
-551.441
 11
7.57227
 21
-551.556
  0
LINE
  8
0
 10
7.57227
 20
-551.556
 11
8.12988
 21
-551.878
  0
LINE
  8
0
 10
8.12988
 20
-551.878
 11
8.5498
 21
-552.378
  0
LINE
  8
0
 10
8.5498
 20
-552.378
 11
8.77344
 21
-552.992
  0
LINE
  8
0
 10
8.77344
 20
-552.992
 11
8.77344
 21
-553.637
  0
LINE
  8
0
 10
8.77344
 20
-553.637
 11
8.5498
 21
-554.251
  0
LINE
  8
0
 10
8.5498
 20
-554.251
 11
8.12988
 21
-554.752
  0
LINE
  8
0
 10
8.12988
 20
-554.752
 11
7.57227
 21
-555.073
  0
LINE
  8
0
 10
7.57227
 20
-555.073
 11
6.92871
 21
-555.188
  0
LINE
  8
0
 10
6.92871
 20
-555.188
 11
6.28516
 21
-555.073
  0
LINE
  8
0
 10
-2.09961
 20
-572.345
 11
-4.03809
 21
-571.227
  0
LINE
  8
0
 10
-4.03809
 20
-571.227
 11
-5.49902
 21
-569.488
  0
LINE
  8
0
 10
-5.49902
 20
-569.488
 11
-6.27344
 21
-567.355
  0
LINE
  8
0
 10
-6.27344
 20
-567.355
 11
-6.27344
 21
-565.118
  0
LINE
  8
0
 10
-6.27344
 20
-565.118
 11
-5.49902
 21
-562.984
  0
LINE
  8
0
 10
-5.49902
 20
-562.984
 11
-4.03809
 21
-561.247
  0
LINE
  8
0
 10
-4.03809
 20
-561.247
 11
-2.09961
 21
-560.129
  0
LINE
  8
0
 10
-2.09961
 20
-560.129
 11
0.135742
 21
-559.733
  0
LINE
  8
0
 10
0.135742
 20
-559.733
 11
2.37012
 21
-560.129
  0
LINE
  8
0
 10
2.37012
 20
-560.129
 11
4.30859
 21
-561.247
  0
LINE
  8
0
 10
4.30859
 20
-561.247
 11
5.76953
 21
-562.984
  0
LINE
  8
0
 10
5.76953
 20
-562.984
 11
6.54492
 21
-565.118
  0
LINE
  8
0
 10
6.54492
 20
-565.118
 11
6.54492
 21
-567.355
  0
LINE
  8
0
 10
6.54492
 20
-567.355
 11
5.76953
 21
-569.488
  0
LINE
  8
0
 10
5.76953
 20
-569.488
 11
4.30859
 21
-571.227
  0
LINE
  8
0
 10
4.30859
 20
-571.227
 11
2.37012
 21
-572.345
  0
LINE
  8
0
 10
2.37012
 20
-572.345
 11
0.135742
 21
-572.739
  0
LINE
  8
0
 10
0.135742
 20
-572.739
 11
-2.09961
 21
-572.345
  0
LINE
  8
0
 10
0.478516
 20
-593.462
 11
-0.616211
 21
-592.83
  0
LINE
  8
0
 10
-0.616211
 20
-592.83
 11
-1.44238
 21
-591.848
  0
LINE
  8
0
 10
-1.44238
 20
-591.848
 11
-1.87988
 21
-590.643
  0
LINE
  8
0
 10
-1.87988
 20
-590.643
 11
-1.87988
 21
-589.377
  0
LINE
  8
0
 10
-1.87988
 20
-589.377
 11
-1.44238
 21
-588.172
  0
LINE
  8
0
 10
-1.44238
 20
-588.172
 11
-0.616211
 21
-587.19
  0
LINE
  8
0
 10
-0.616211
 20
-587.19
 11
0.478516
 21
-586.558
  0
LINE
  8
0
 10
0.478516
 20
-586.558
 11
1.74219
 21
-586.335
  0
LINE
  8
0
 10
1.74219
 20
-586.335
 11
3.00586
 21
-586.558
  0
LINE
  8
0
 10
3.00586
 20
-586.558
 11
4.10059
 21
-587.19
  0
LINE
  8
0
 10
4.10059
 20
-587.19
 11
4.92578
 21
-588.172
  0
LINE
  8
0
 10
4.92578
 20
-588.172
 11
5.36426
 21
-589.377
  0
LINE
  8
0
 10
5.36426
 20
-589.377
 11
5.36426
 21
-590.643
  0
LINE
  8
0
 10
5.36426
 20
-590.643
 11
4.92578
 21
-591.848
  0
LINE
  8
0
 10
4.92578
 20
-591.848
 11
4.10059
 21
-592.83
  0
LINE
  8
0
 10
4.10059
 20
-592.83
 11
3.00586
 21
-593.462
  0
LINE
  8
0
 10
3.00586
 20
-593.462
 11
1.74219
 21
-593.685
  0
LINE
  8
0
 10
1.74219
 20
-593.685
 11
0.478516
 21
-593.462
  0
LINE
  8
0
 10
-5.88867
 20
-628.564
 11
-5.88867
 21
-605.065
  0
LINE
  8
0
 10
-5.88867
 20
-605.065
 11
8.11035
 21
-605.065
  0
LINE
  8
0
 10
8.11035
 20
-605.065
 11
8.11035
 21
-628.564
  0
LINE
  8
0
 10
8.11035
 20
-628.564
 11
-5.88867
 21
-628.564
  0
LINE
  8
0
 10
-0.441406
 20
-634.893
 11
-0.942383
 21
-634.604
  0
LINE
  8
0
 10
-0.942383
 20
-634.604
 11
-1.31934
 21
-634.154
  0
LINE
  8
0
 10
-1.31934
 20
-634.154
 11
-1.51953
 21
-633.604
  0
LINE
  8
0
 10
-1.51953
 20
-633.604
 11
-1.51953
 21
-633.025
  0
LINE
  8
0
 10
-1.51953
 20
-633.025
 11
-1.31934
 21
-632.475
  0
LINE
  8
0
 10
-1.31934
 20
-632.475
 11
-0.942383
 21
-632.026
  0
LINE
  8
0
 10
-0.942383
 20
-632.026
 11
-0.441406
 21
-631.737
  0
LINE
  8
0
 10
-0.441406
 20
-631.737
 11
0.135742
 21
-631.635
  0
LINE
  8
0
 10
0.135742
 20
-631.635
 11
0.712891
 21
-631.737
  0
LINE
  8
0
 10
0.712891
 20
-631.737
 11
1.21289
 21
-632.026
  0
LINE
  8
0
 10
1.21289
 20
-632.026
 11
1.58984
 21
-632.475
  0
LINE
  8
0
 10
1.58984
 20
-632.475
 11
1.79004
 21
-633.025
  0
LINE
  8
0
 10
1.79004
 20
-633.025
 11
1.79004
 21
-633.604
  0
LINE
  8
0
 10
1.79004
 20
-633.604
 11
1.58984
 21
-634.154
  0
LINE
  8
0
 10
1.58984
 20
-634.154
 11
1.21289
 21
-634.604
  0
LINE
  8
0
 10
1.21289
 20
-634.604
 11
0.712891
 21
-634.893
  0
LINE
  8
0
 10
0.712891
 20
-634.893
 11
0.135742
 21
-634.995
  0
LINE
  8
0
 10
0.135742
 20
-634.995
 11
-0.441406
 21
-634.893
  0
LINE
  8
0
 10
6.35156
 20
-634.893
 11
5.85059
 21
-634.604
  0
LINE
  8
0
 10
5.85059
 20
-634.604
 11
5.47363
 21
-634.154
  0
LINE
  8
0
 10
5.47363
 20
-634.154
 11
5.27344
 21
-633.604
  0
LINE
  8
0
 10
5.27344
 20
-633.604
 11
5.27344
 21
-633.025
  0
LINE
  8
0
 10
5.27344
 20
-633.025
 11
5.47363
 21
-632.475
  0
LINE
  8
0
 10
5.47363
 20
-632.475
 11
5.85059
 21
-632.026
  0
LINE
  8
0
 10
5.85059
 20
-632.026
 11
6.35156
 21
-631.737
  0
LINE
  8
0
 10
6.35156
 20
-631.737
 11
6.92871
 21
-631.635
  0
LINE
  8
0
 10
6.92871
 20
-631.635
 11
7.50586
 21
-631.737
  0
LINE
  8
0
 10
7.50586
 20
-631.737
 11
8.00586
 21
-632.026
  0
LINE
  8
0
 10
8.00586
 20
-632.026
 11
8.38281
 21
-632.475
  0
LINE
  8
0
 10
8.38281
 20
-632.475
 11
8.58301
 21
-633.025
  0
LINE
  8
0
 10
8.58301
 20
-633.025
 11
8.58301
 21
-633.604
  0
LINE
  8
0
 10
8.58301
 20
-633.604
 11
8.38281
 21
-634.154
  0
LINE
  8
0
 10
8.38281
 20
-634.154
 11
8.00586
 21
-634.604
  0
LINE
  8
0
 10
8.00586
 20
-634.604
 11
7.50586
 21
-634.893
  0
LINE
  8
0
 10
7.50586
 20
-634.893
 11
6.92871
 21
-634.995
  0
LINE
  8
0
 10
6.92871
 20
-634.995
 11
6.35156
 21
-634.893
  0
LINE
  8
0
 10
-2.06641
 20
-652.252
 11
-3.97559
 21
-651.151
  0
LINE
  8
0
 10
-3.97559
 20
-651.151
 11
-5.41406
 21
-649.44
  0
LINE
  8
0
 10
-5.41406
 20
-649.44
 11
-6.17676
 21
-647.339
  0
LINE
  8
0
 10
-6.17676
 20
-647.339
 11
-6.17676
 21
-645.135
  0
LINE
  8
0
 10
-6.17676
 20
-645.135
 11
-5.41406
 21
-643.033
  0
LINE
  8
0
 10
-5.41406
 20
-643.033
 11
-3.97559
 21
-641.322
  0
LINE
  8
0
 10
-3.97559
 20
-641.322
 11
-2.06641
 21
-640.221
  0
LINE
  8
0
 10
-2.06641
 20
-640.221
 11
0.135742
 21
-639.832
  0
LINE
  8
0
 10
0.135742
 20
-639.832
 11
2.33691
 21
-640.221
  0
LINE
  8
0
 10
2.33691
 20
-640.221
 11
4.24609
 21
-641.322
  0
LINE
  8
0
 10
4.24609
 20
-641.322
 11
5.68457
 21
-643.033
  0
LINE
  8
0
 10
5.68457
 20
-643.033
 11
6.44824
 21
-645.135
  0
LINE
  8
0
 10
6.44824
 20
-645.135
 11
6.44824
 21
-647.339
  0
LINE
  8
0
 10
6.44824
 20
-647.339
 11
5.68457
 21
-649.44
  0
LINE
  8
0
 10
5.68457
 20
-649.44
 11
4.24609
 21
-651.151
  0
LINE
  8
0
 10
4.24609
 20
-651.151
 11
2.33691
 21
-652.252
  0
LINE
  8
0
 10
2.33691
 20
-652.252
 11
0.135742
 21
-652.642
  0
LINE
  8
0
 10
0.135742
 20
-652.642
 11
-2.06641
 21
-652.252
  0
LINE
  8
0
 10
0.478516
 20
-673.462
 11
-0.616211
 21
-672.83
  0
LINE
  8
0
 10
-0.616211
 20
-672.83
 11
-1.44238
 21
-671.848
  0
LINE
  8
0
 10
-1.44238
 20
-671.848
 11
-1.87988
 21
-670.642
  0
LINE
  8
0
 10
-1.87988
 20
-670.642
 11
-1.87988
 21
-669.378
  0
LINE
  8
0
 10
-1.87988
 20
-669.378
 11
-1.44238
 21
-668.172
  0
LINE
  8
0
 10
-1.44238
 20
-668.172
 11
-0.616211
 21
-667.189
  0
LINE
  8
0
 10
-0.616211
 20
-667.189
 11
0.478516
 21
-666.559
  0
LINE
  8
0
 10
0.478516
 20
-666.559
 11
1.74219
 21
-666.335
  0
LINE
  8
0
 10
1.74219
 20
-666.335
 11
3.00586
 21
-666.559
  0
LINE
  8
0
 10
3.00586
 20
-666.559
 11
4.10059
 21
-667.189
  0
LINE
  8
0
 10
4.10059
 20
-667.189
 11
4.92578
 21
-668.172
  0
LINE
  8
0
 10
4.92578
 20
-668.172
 11
5.36426
 21
-669.378
  0
LINE
  8
0
 10
5.36426
 20
-669.378
 11
5.36426
 21
-670.642
  0
LINE
  8
0
 10
5.36426
 20
-670.642
 11
4.92578
 21
-671.848
  0
LINE
  8
0
 10
4.92578
 20
-671.848
 11
4.10059
 21
-672.83
  0
LINE
  8
0
 10
4.10059
 20
-672.83
 11
3.00586
 21
-673.462
  0
LINE
  8
0
 10
3.00586
 20
-673.462
 11
1.74219
 21
-673.685
  0
LINE
  8
0
 10
1.74219
 20
-673.685
 11
0.478516
 21
-673.462
  0
LINE
  8
0
 10
-5.88867
 20
-708.565
 11
-5.88867
 21
-685.064
  0
LINE
  8
0
 10
-5.88867
 20
-685.064
 11
8.11035
 21
-685.064
  0
LINE
  8
0
 10
8.11035
 20
-685.064
 11
8.11035
 21
-708.565
  0
LINE
  8
0
 10
8.11035
 20
-708.565
 11
-5.88867
 21
-708.565
  0
LINE
  8
0
 10
6.35156
 20
-714.893
 11
5.85059
 21
-714.604
  0
LINE
  8
0
 10
5.85059
 20
-714.604
 11
5.47363
 21
-714.154
  0
LINE
  8
0
 10
5.47363
 20
-714.154
 11
5.27344
 21
-713.604
  0
LINE
  8
0
 10
5.27344
 20
-713.604
 11
5.27344
 21
-713.026
  0
LINE
  8
0
 10
5.27344
 20
-713.026
 11
5.47363
 21
-712.475
  0
LINE
  8
0
 10
5.47363
 20
-712.475
 11
5.85059
 21
-712.026
  0
LINE
  8
0
 10
5.85059
 20
-712.026
 11
6.35156
 21
-711.737
  0
LINE
  8
0
 10
6.35156
 20
-711.737
 11
6.92871
 21
-711.635
  0
LINE
  8
0
 10
6.92871
 20
-711.635
 11
7.50586
 21
-711.737
  0
LINE
  8
0
 10
7.50586
 20
-711.737
 11
8.00586
 21
-712.026
  0
LINE
  8
0
 10
8.00586
 20
-712.026
 11
8.38281
 21
-712.475
  0
LINE
  8
0
 10
8.38281
 20
-712.475
 11
8.58301
 21
-713.026
  0
LINE
  8
0
 10
8.58301
 20
-713.026
 11
8.58301
 21
-713.604
  0
LINE
  8
0
 10
8.58301
 20
-713.604
 11
8.38281
 21
-714.154
  0
LINE
  8
0
 10
8.38281
 20
-714.154
 11
8.00586
 21
-714.604
  0
LINE
  8
0
 10
8.00586
 20
-714.604
 11
7.50586
 21
-714.893
  0
LINE
  8
0
 10
7.50586
 20
-714.893
 11
6.92871
 21
-714.995
  0
LINE
  8
0
 10
6.92871
 20
-714.995
 11
6.35156
 21
-714.893
  0
LINE
  8
0
 10
-0.441406
 20
-714.893
 11
-0.942383
 21
-714.604
  0
LINE
  8
0
 10
-0.942383
 20
-714.604
 11
-1.31934
 21
-714.154
  0
LINE
  8
0
 10
-1.31934
 20
-714.154
 11
-1.51953
 21
-713.604
  0
LINE
  8
0
 10
-1.51953
 20
-713.604
 11
-1.51953
 21
-713.026
  0
LINE
  8
0
 10
-1.51953
 20
-713.026
 11
-1.31934
 21
-712.475
  0
LINE
  8
0
 10
-1.31934
 20
-712.475
 11
-0.942383
 21
-712.026
  0
LINE
  8
0
 10
-0.942383
 20
-712.026
 11
-0.441406
 21
-711.737
  0
LINE
  8
0
 10
-0.441406
 20
-711.737
 11
0.135742
 21
-711.635
  0
LINE
  8
0
 10
0.135742
 20
-711.635
 11
0.712891
 21
-711.737
  0
LINE
  8
0
 10
0.712891
 20
-711.737
 11
1.21289
 21
-712.026
  0
LINE
  8
0
 10
1.21289
 20
-712.026
 11
1.58984
 21
-712.475
  0
LINE
  8
0
 10
1.58984
 20
-712.475
 11
1.79004
 21
-713.026
  0
LINE
  8
0
 10
1.79004
 20
-713.026
 11
1.79004
 21
-713.604
  0
LINE
  8
0
 10
1.79004
 20
-713.604
 11
1.58984
 21
-714.154
  0
LINE
  8
0
 10
1.58984
 20
-714.154
 11
1.21289
 21
-714.604
  0
LINE
  8
0
 10
1.21289
 20
-714.604
 11
0.712891
 21
-714.893
  0
LINE
  8
0
 10
0.712891
 20
-714.893
 11
0.135742
 21
-714.995
  0
LINE
  8
0
 10
0.135742
 20
-714.995
 11
-0.441406
 21
-714.893
  0
LINE
  8
0
 10
-2.06641
 20
-732.253
 11
-3.97559
 21
-731.151
  0
LINE
  8
0
 10
-3.97559
 20
-731.151
 11
-5.41406
 21
-729.439
  0
LINE
  8
0
 10
-5.41406
 20
-729.439
 11
-6.17676
 21
-727.338
  0
LINE
  8
0
 10
-6.17676
 20
-727.338
 11
-6.17676
 21
-725.135
  0
LINE
  8
0
 10
-6.17676
 20
-725.135
 11
-5.41406
 21
-723.033
  0
LINE
  8
0
 10
-5.41406
 20
-723.033
 11
-3.97559
 21
-721.322
  0
LINE
  8
0
 10
-3.97559
 20
-721.322
 11
-2.06641
 21
-720.221
  0
LINE
  8
0
 10
-2.06641
 20
-720.221
 11
0.135742
 21
-719.831
  0
LINE
  8
0
 10
0.135742
 20
-719.831
 11
2.33691
 21
-720.221
  0
LINE
  8
0
 10
2.33691
 20
-720.221
 11
4.24609
 21
-721.322
  0
LINE
  8
0
 10
4.24609
 20
-721.322
 11
5.68457
 21
-723.033
  0
LINE
  8
0
 10
5.68457
 20
-723.033
 11
6.44824
 21
-725.135
  0
LINE
  8
0
 10
6.44824
 20
-725.135
 11
6.44824
 21
-727.338
  0
LINE
  8
0
 10
6.44824
 20
-727.338
 11
5.68457
 21
-729.439
  0
LINE
  8
0
 10
5.68457
 20
-729.439
 11
4.24609
 21
-731.151
  0
LINE
  8
0
 10
4.24609
 20
-731.151
 11
2.33691
 21
-732.253
  0
LINE
  8
0
 10
2.33691
 20
-732.253
 11
0.135742
 21
-732.642
  0
LINE
  8
0
 10
0.135742
 20
-732.642
 11
-2.06641
 21
-732.253
  0
LINE
  8
0
 10
-60
 20
-989
 11
-2.5
 21
-989
  0
LINE
  8
0
 10
-2.5
 20
-989
 11
-2.5
 21
-992
  0
LINE
  8
0
 10
-2.5
 20
-992
 11
2.5
 21
-992
  0
LINE
  8
0
 10
2.5
 20
-992
 11
2.5
 21
-989
  0
LINE
  8
0
 10
2.5
 20
-989
 11
60
 21
-989
  0
LINE
  8
0
 10
60
 20
-989
 11
60
 21
-992
  0
LINE
  8
0
 10
60
 20
-992
 11
65
 21
-992
  0
LINE
  8
0
 10
65
 20
-992
 11
65
 21
-989
  0
LINE
  8
0
 10
65
 20
-989
 11
75
 21
-989
  0
LINE
  8
0
 10
75
 20
-989
 11
75
 21
-979
  0
LINE
  8
0
 10
75
 20
-979
 11
78
 21
-979
  0
LINE
  8
0
 10
78
 20
-979
 11
78
 21
-974
  0
LINE
  8
0
 10
78
 20
-974
 11
75
 21
-974
  0
LINE
  8
0
 10
75
 20
-974
 11
75
 21
-871.5
  0
LINE
  8
0
 10
75
 20
-871.5
 11
78
 21
-871.5
  0
LINE
  8
0
 10
78
 20
-871.5
 11
78
 21
-866.5
  0
LINE
  8
0
 10
78
 20
-866.5
 11
75
 21
-866.5
  0
LINE
  8
0
 10
75
 20
-866.5
 11
75
 21
-764
  0
LINE
  8
0
 10
75
 20
-764
 11
78
 21
-764
  0
LINE
  8
0
 10
78
 20
-764
 11
78
 21
-759
  0
LINE
  8
0
 10
78
 20
-759
 11
75
 21
-759
  0
LINE
  8
0
 10
75
 20
-759
 11
75
 21
-749
  0
LINE
  8
0
 10
75
 20
-749
 11
65
 21
-749
  0
LINE
  8
0
 10
65
 20
-749
 11
65
 21
-746
  0
LINE
  8
0
 10
65
 20
-746
 11
60
 21
-746
  0
LINE
  8
0
 10
60
 20
-746
 11
60
 21
-749
  0
LINE
  8
0
 10
60
 20
-749
 11
2.5
 21
-749
  0
LINE
  8
0
 10
2.5
 20
-749
 11
2.5
 21
-746
  0
LINE
  8
0
 10
2.5
 20
-746
 11
-2.5
 21
-746
  0
LINE
  8
0
 10
-2.5
 20
-746
 11
-2.5
 21
-749
  0
LINE
  8
0
 10
-2.5
 20
-749
 11
-60
 21
-749
  0
LINE
  8
0
 10
-60
 20
-749
 11
-60
 21
-746
  0
LINE
  8
0
 10
-60
 20
-746
 11
-65
 21
-746
  0
LINE
  8
0
 10
-65
 20
-746
 11
-65
 21
-749
  0
LINE
  8
0
 10
-65
 20
-749
 11
-75
 21
-749
  0
LINE
  8
0
 10
-75
 20
-749
 11
-75
 21
-759
  0
LINE
  8
0
 10
-75
 20
-759
 11
-78
 21
-759
  0
LINE
  8
0
 10
-78
 20
-759
 11
-78
 21
-764
  0
LINE
  8
0
 10
-78
 20
-764
 11
-75
 21
-764
  0
LINE
  8
0
 10
-75
 20
-764
 11
-75
 21
-866.5
  0
LINE
  8
0
 10
-75
 20
-866.5
 11
-78
 21
-866.5
  0
LINE
  8
0
 10
-78
 20
-866.5
 11
-78
 21
-871.5
  0
LINE
  8
0
 10
-78
 20
-871.5
 11
-75
 21
-871.5
  0
LINE
  8
0
 10
-75
 20
-871.5
 11
-75
 21
-974
  0
LINE
  8
0
 10
-75
 20
-974
 11
-78
 21
-974
  0
LINE
  8
0
 10
-78
 20
-974
 11
-78
 21
-979
  0
LINE
  8
0
 10
-78
 20
-979
 11
-75
 21
-979
  0
LINE
  8
0
 10
-75
 20
-979
 11
-75
 21
-989
  0
LINE
  8
0
 10
-75
 20
-989
 11
-65
 21
-989
  0
LINE
  8
0
 10
-65
 20
-989
 11
-65
 21
-992
  0
LINE
  8
0
 10
-65
 20
-992
 11
-60
 21
-992
  0
LINE
  8
0
 10
-60
 20
-992
 11
-60
 21
-989
  0
LINE
  8
0
 10
-60
 20
-1240
 11
-2.5
 21
-1240
  0
LINE
  8
0
 10
-2.5
 20
-1240
 11
-2.5
 21
-1243
  0
LINE
  8
0
 10
-2.5
 20
-1243
 11
2.5
 21
-1243
  0
LINE
  8
0
 10
2.5
 20
-1243
 11
2.5
 21
-1240
  0
LINE
  8
0
 10
2.5
 20
-1240
 11
60
 21
-1240
  0
LINE
  8
0
 10
60
 20
-1240
 11
60
 21
-1243
  0
LINE
  8
0
 10
60
 20
-1243
 11
65
 21
-1243
  0
LINE
  8
0
 10
65
 20
-1243
 11
65
 21
-1240
  0
LINE
  8
0
 10
65
 20
-1240
 11
75
 21
-1240
  0
LINE
  8
0
 10
75
 20
-1240
 11
75
 21
-1230
  0
LINE
  8
0
 10
75
 20
-1230
 11
78
 21
-1230
  0
LINE
  8
0
 10
78
 20
-1230
 11
78
 21
-1225
  0
LINE
  8
0
 10
78
 20
-1225
 11
75
 21
-1225
  0
LINE
  8
0
 10
75
 20
-1225
 11
75
 21
-1122.5
  0
LINE
  8
0
 10
75
 20
-1122.5
 11
78
 21
-1122.5
  0
LINE
  8
0
 10
78
 20
-1122.5
 11
78
 21
-1117.5
  0
LINE
  8
0
 10
78
 20
-1117.5
 11
75
 21
-1117.5
  0
LINE
  8
0
 10
75
 20
-1117.5
 11
75
 21
-1015
  0
LINE
  8
0
 10
75
 20
-1015
 11
78
 21
-1015
  0
LINE
  8
0
 10
78
 20
-1015
 11
78
 21
-1010
  0
LINE
  8
0
 10
78
 20
-1010
 11
75
 21
-1010
  0
LINE
  8
0
 10
75
 20
-1010
 11
75
 21
-1000
  0
LINE
  8
0
 10
75
 20
-1000
 11
65
 21
-1000
  0
LINE
  8
0
 10
65
 20
-1000
 11
65
 21
-997
  0
LINE
  8
0
 10
65
 20
-997
 11
60
 21
-997
  0
LINE
  8
0
 10
60
 20
-997
 11
60
 21
-1000
  0
LINE
  8
0
 10
60
 20
-1000
 11
2.5
 21
-1000
  0
LINE
  8
0
 10
2.5
 20
-1000
 11
2.5
 21
-997
  0
LINE
  8
0
 10
2.5
 20
-997
 11
-2.5
 21
-997
  0
LINE
  8
0
 10
-2.5
 20
-997
 11
-2.5
 21
-1000
  0
LINE
  8
0
 10
-2.5
 20
-1000
 11
-60
 21
-1000
  0
LINE
  8
0
 10
-60
 20
-1000
 11
-60
 21
-997
  0
LINE
  8
0
 10
-60
 20
-997
 11
-65
 21
-997
  0
LINE
  8
0
 10
-65
 20
-997
 11
-65
 21
-1000
  0
LINE
  8
0
 10
-65
 20
-1000
 11
-75
 21
-1000
  0
LINE
  8
0
 10
-75
 20
-1000
 11
-75
 21
-1010
  0
LINE
  8
0
 10
-75
 20
-1010
 11
-78
 21
-1010
  0
LINE
  8
0
 10
-78
 20
-1010
 11
-78
 21
-1015
  0
LINE
  8
0
 10
-78
 20
-1015
 11
-75
 21
-1015
  0
LINE
  8
0
 10
-75
 20
-1015
 11
-75
 21
-1117.5
  0
LINE
  8
0
 10
-75
 20
-1117.5
 11
-78
 21
-1117.5
  0
LINE
  8
0
 10
-78
 20
-1117.5
 11
-78
 21
-1122.5
  0
LINE
  8
0
 10
-78
 20
-1122.5
 11
-75
 21
-1122.5
  0
LINE
  8
0
 10
-75
 20
-1122.5
 11
-75
 21
-1225
  0
LINE
  8
0
 10
-75
 20
-1225
 11
-78
 21
-1225
  0
LINE
  8
0
 10
-78
 20
-1225
 11
-78
 21
-1230
  0
LINE
  8
0
 10
-78
 20
-1230
 11
-75
 21
-1230
  0
LINE
  8
0
 10
-75
 20
-1230
 11
-75
 21
-1240
  0
LINE
  8
0
 10
-75
 20
-1240
 11
-65
 21
-1240
  0
LINE
  8
0
 10
-65
 20
-1240
 11
-65
 21
-1243
  0
LINE
  8
0
 10
-65
 20
-1243
 11
-60
 21
-1243
  0
LINE
  8
0
 10
-60
 20
-1243
 11
-60
 21
-1240
  0
ENDSEC
  0
SECTION
  2
OBJECTS
  0
DICTIONARY
  0
ENDSEC
  0
EOF
