<?xml version="1.0" encoding="UTF-8" standalone="no"?>
<svg
   xmlns:dc="http://purl.org/dc/elements/1.1/"
   xmlns:cc="http://creativecommons.org/ns#"
   xmlns:rdf="http://www.w3.org/1999/02/22-rdf-syntax-ns#"
   xmlns:svg="http://www.w3.org/2000/svg"
   xmlns="http://www.w3.org/2000/svg"
   xmlns:sodipodi="http://sodipodi.sourceforge.net/DTD/sodipodi-0.dtd"
   xmlns:inkscape="http://www.inkscape.org/namespaces/inkscape"
   width="793.700787402"
   height="1122.51968504"
   version="1.1"
   id="svg36"
   sodipodi:docname="top.svg"
   inkscape:version="0.92.3 (2405546, 2018-03-11)">
  <metadata
     id="metadata40">
    <rdf:RDF>
      <cc:Work
         rdf:about="">
        <dc:format>image/svg+xml</dc:format>
        <dc:type
           rdf:resource="http://purl.org/dc/dcmitype/StillImage" />
        <dc:title></dc:title>
      </cc:Work>
    </rdf:RDF>
  </metadata>
  <sodipodi:namedview
     pagecolor="#ffffff"
     bordercolor="#666666"
     borderopacity="1"
     objecttolerance="10"
     gridtolerance="10"
     guidetolerance="10"
     inkscape:pageopacity="0"
     inkscape:pageshadow="2"
     inkscape:window-width="1920"
     inkscape:window-height="1017"
     id="namedview38"
     showgrid="false"
     inkscape:zoom="0.59465222"
     inkscape:cx="-272.83655"
     inkscape:cy="351.91556"
     inkscape:window-x="1358"
     inkscape:window-y="-8"
     inkscape:window-maximized="1"
     inkscape:current-layer="g34" />
  <desc
     id="desc2">C:\dev\HakkoT12_Box\laser\frontplate_fusion.dxf - scale = 1.000000, origin = (0.000000, 0.000000), method = manual</desc>
  <defs
     id="defs16">
    <marker
       id="DistanceX"
       orient="auto"
       refX="0.0"
       refY="0.0"
       style="overflow:visible">
      <path
         d="M 3,-3 L -3,3 M 0,-5 L  0,5"
         style="stroke:#000000; stroke-width:0.5"
         id="path4" />
    </marker>
    <pattern
       height="8"
       id="Hatch"
       patternUnits="userSpaceOnUse"
       width="8"
       x="0"
       y="0">
      <path
         d="M8 4 l-4,4"
         linecap="square"
         stroke="#000000"
         stroke-width="0.25"
         id="path7" />
      <path
         d="M6 2 l-4,4"
         linecap="square"
         stroke="#000000"
         stroke-width="0.25"
         id="path9" />
      <path
         d="M4 0 l-4,4"
         linecap="square"
         stroke="#000000"
         stroke-width="0.25"
         id="path11" />
    </pattern>
    <symbol
       id="*MODEL_SPACE" />
    <symbol
       id="*PAPER_SPACE" />
    <marker
       style="overflow:visible"
       refY="0.0"
       refX="0.0"
       orient="auto"
       id="DistanceX-5">
      <path
         id="path1985"
         style="stroke:#000000; stroke-width:0.5"
         d="M 3,-3 L -3,3 M 0,-5 L  0,5" />
    </marker>
    <pattern
       y="0"
       x="0"
       width="8"
       patternUnits="userSpaceOnUse"
       id="Hatch-4"
       height="8">
      <path
         id="path1988"
         stroke-width="0.25"
         stroke="#000000"
         linecap="square"
         d="M8 4 l-4,4" />
      <path
         id="path1990"
         stroke-width="0.25"
         stroke="#000000"
         linecap="square"
         d="M6 2 l-4,4" />
      <path
         id="path1992"
         stroke-width="0.25"
         stroke="#000000"
         linecap="square"
         d="M4 0 l-4,4" />
    </pattern>
    <symbol
       id="*MODEL_SPACE-0" />
    <symbol
       id="*PAPER_SPACE-1" />
  </defs>
  <g
     inkscape:groupmode="layer"
     inkscape:label="0"
     id="g34">
    <path
       style="fill:none;stroke:#000000"
       d="M 8.0585938 207.375 L 8.0585938 509.73633 L 8.0585938 812.09766 L 8.0585938 1114.4609 L 98.767578 1114.4609 L 98.767578 812.09766 L 98.767578 509.73633 L 98.767578 207.375 L 8.0585938 207.375 z M 58.289062 240.03711 C 59.836279 240.19442 61.382956 240.3531 62.835938 240.8418 C 64.268112 241.32351 65.609362 242.12619 66.779297 243.11523 C 67.96623 244.11864 68.976189 245.31366 69.75 246.65039 C 70.52381 247.98713 71.059925 249.46579 71.326172 250.99023 C 71.588607 252.49283 71.588607 254.04037 71.326172 255.54297 C 71.059925 257.0674 70.52381 258.54608 69.75 259.88281 C 68.976189 261.21954 67.96623 262.41262 66.779297 263.41602 C 65.609363 264.40506 64.268112 265.20971 62.835938 265.69141 C 61.382955 266.18011 59.83628 266.33683 58.289062 266.49414 C 56.74184 266.33683 55.193216 266.18011 53.740234 265.69141 C 52.308061 265.20971 50.968763 264.40505 49.798828 263.41602 C 48.611894 262.41261 47.599982 261.21954 46.826172 259.88281 C 46.052361 258.54608 45.516247 257.0674 45.25 255.54297 C 44.987565 254.04037 44.987565 252.49283 45.25 250.99023 C 45.516247 249.46579 46.052361 247.98712 46.826172 246.65039 C 47.599982 245.31366 48.611895 244.11864 49.798828 243.11523 C 50.968763 242.12619 52.30806 241.32351 53.740234 240.8418 C 55.193216 240.3531 56.741841 240.19442 58.289062 240.03711 z M 29.447266 310.16602 L 82.359375 310.16602 L 82.359375 398.98633 L 29.447266 398.98633 L 29.447266 310.16602 z M 52.216797 410.89062 C 52.923807 410.96293 53.631029 411.03607 54.294922 411.25977 C 54.949315 411.48017 55.561199 411.84663 56.095703 412.29883 C 56.637968 412.75753 57.099619 413.30316 57.453125 413.91406 C 57.80663 414.52496 58.052199 415.20174 58.173828 415.89844 C 58.293716 416.58524 58.293716 417.29222 58.173828 417.97852 C 58.0522 418.67482 57.806631 419.35059 57.453125 419.96289 C 57.099619 420.57519 56.637968 421.12462 56.095703 421.57812 C 55.561199 422.02513 54.949314 422.37779 54.294922 422.61719 C 53.631029 422.86009 52.923808 422.98633 52.216797 422.98633 C 51.509785 422.98633 50.802566 422.86009 50.138672 422.61719 C 49.48428 422.37779 48.872395 422.02513 48.337891 421.57812 C 47.795627 421.12462 47.332022 420.57519 46.978516 419.96289 C 46.625011 419.35059 46.381395 418.67482 46.259766 417.97852 C 46.139877 417.29222 46.139878 416.58524 46.259766 415.89844 C 46.381396 415.20174 46.62501 414.52496 46.978516 413.91406 C 47.332021 413.30316 47.795628 412.75753 48.337891 412.29883 C 48.872395 411.84663 49.48428 411.48017 50.138672 411.25977 C 50.802566 411.03607 51.509787 410.96263 52.216797 410.89062 z M 77.890625 410.89062 C 78.597635 410.96293 79.304857 411.03607 79.96875 411.25977 C 80.623142 411.48017 81.235027 411.84663 81.769531 412.29883 C 82.311795 412.75753 82.773447 413.30316 83.126953 413.91406 C 83.480458 414.52496 83.726027 415.20174 83.847656 415.89844 C 83.967544 416.58524 83.967544 417.29222 83.847656 417.97852 C 83.726027 418.67482 83.480459 419.35059 83.126953 419.96289 C 82.773447 420.57519 82.311795 421.12462 81.769531 421.57812 C 81.235027 422.02513 80.623142 422.37779 79.96875 422.61719 C 79.304858 422.86009 78.597635 422.98633 77.890625 422.98633 C 77.183613 422.98633 76.476393 422.86009 75.8125 422.61719 C 75.158108 422.37779 74.546223 422.02513 74.011719 421.57812 C 73.469454 421.12462 73.007803 420.57519 72.654297 419.96289 C 72.300792 419.35059 72.055223 418.67482 71.933594 417.97852 C 71.813707 417.29222 71.813707 416.58524 71.933594 415.89844 C 72.055223 415.20174 72.300791 414.52496 72.654297 413.91406 C 73.007802 413.30316 73.469455 412.75753 74.011719 412.29883 C 74.546223 411.84663 75.158108 411.48017 75.8125 411.25977 C 76.476393 411.03607 77.183612 410.96263 77.890625 410.89062 z M 52.216797 442.7207 C 54.913214 442.9951 57.608477 443.27115 60.140625 444.12305 C 62.636513 444.96275 64.972879 446.36224 67.011719 448.08594 C 69.080179 449.83474 70.842901 451.91639 72.191406 454.24609 C 73.539909 456.57569 74.47547 459.15385 74.939453 461.81055 C 75.396791 464.42925 75.396791 467.12349 74.939453 469.74219 C 74.47547 472.39889 73.539911 474.97694 72.191406 477.30664 C 70.842903 479.63624 69.080178 481.718 67.011719 483.4668 C 64.972879 485.1906 62.636513 486.59204 60.140625 487.43164 C 57.608477 488.28354 54.913214 488.55773 52.216797 488.83203 C 49.52038 488.55773 46.823164 488.28354 44.291016 487.43164 C 41.795128 486.59204 39.458763 485.1906 37.419922 483.4668 C 35.351462 481.718 33.588738 479.63624 32.240234 477.30664 C 30.891731 474.97694 29.958124 472.39889 29.494141 469.74219 C 29.036803 467.12349 29.036803 464.42925 29.494141 461.81055 C 29.958124 459.15385 30.89173 456.57569 32.240234 454.24609 C 33.588738 451.91639 35.351462 449.83474 37.419922 448.08594 C 39.458762 446.36224 41.795127 444.96275 44.291016 444.12305 C 46.823164 443.27115 49.52038 442.9951 52.216797 442.7207 z M 58.289062 542.40039 C 59.836279 542.5577 61.382956 542.71443 62.835938 543.20312 C 64.268112 543.68484 65.609362 544.48948 66.779297 545.47852 C 67.96623 546.48193 68.976189 547.67499 69.75 549.01172 C 70.52381 550.34846 71.059925 551.82712 71.326172 553.35156 C 71.588607 554.85416 71.588607 556.4017 71.326172 557.9043 C 71.059925 559.42873 70.52381 560.90741 69.75 562.24414 C 68.976189 563.58087 67.96623 564.7759 66.779297 565.7793 C 65.609363 566.76834 64.268112 567.57103 62.835938 568.05273 C 61.382955 568.54143 59.83628 568.70011 58.289062 568.85742 C 56.74184 568.70011 55.193216 568.54143 53.740234 568.05273 C 52.308061 567.57103 50.968763 566.76833 49.798828 565.7793 C 48.611894 564.77589 47.599982 563.58087 46.826172 562.24414 C 46.052361 560.90741 45.516247 559.42873 45.25 557.9043 C 44.987565 556.4017 44.987565 554.85416 45.25 553.35156 C 45.516247 551.82712 46.052361 550.34845 46.826172 549.01172 C 47.599982 547.67499 48.611895 546.48193 49.798828 545.47852 C 50.968763 544.48948 52.30806 543.68484 53.740234 543.20312 C 55.193216 542.71442 56.741841 542.5577 58.289062 542.40039 z M 29.447266 612.5293 L 82.359375 612.5293 L 82.359375 701.34766 L 29.447266 701.34766 L 29.447266 612.5293 z M 52.216797 713.25391 C 52.923807 713.32621 53.631029 713.39739 54.294922 713.62109 C 54.949315 713.84149 55.561199 714.20991 56.095703 714.66211 C 56.637968 715.12081 57.099619 715.66644 57.453125 716.27734 C 57.80663 716.88824 58.052199 717.56307 58.173828 718.25977 C 58.293716 718.94657 58.293716 719.65354 58.173828 720.33984 C 58.0522 721.03614 57.806631 721.71192 57.453125 722.32422 C 57.099619 722.93652 56.637968 723.48595 56.095703 723.93945 C 55.561199 724.38645 54.949314 724.74107 54.294922 724.98047 C 53.631029 725.22337 52.923808 725.34766 52.216797 725.34766 C 51.509785 725.34766 50.802566 725.22337 50.138672 724.98047 C 49.48428 724.74107 48.872395 724.38645 48.337891 723.93945 C 47.795627 723.48595 47.332022 722.93652 46.978516 722.32422 C 46.625011 721.71192 46.381395 721.03614 46.259766 720.33984 C 46.139877 719.65354 46.139878 718.94657 46.259766 718.25977 C 46.381396 717.56307 46.62501 716.88824 46.978516 716.27734 C 47.332021 715.66644 47.795628 715.12081 48.337891 714.66211 C 48.872395 714.20991 49.48428 713.84149 50.138672 713.62109 C 50.802566 713.39739 51.509787 713.32591 52.216797 713.25391 z M 77.890625 713.25391 C 78.597635 713.32621 79.304857 713.39739 79.96875 713.62109 C 80.623142 713.84149 81.235027 714.20991 81.769531 714.66211 C 82.311795 715.12081 82.773447 715.66644 83.126953 716.27734 C 83.480458 716.88824 83.726027 717.56307 83.847656 718.25977 C 83.967544 718.94657 83.967544 719.65354 83.847656 720.33984 C 83.726027 721.03614 83.480459 721.71192 83.126953 722.32422 C 82.773447 722.93652 82.311795 723.48595 81.769531 723.93945 C 81.235027 724.38645 80.623142 724.74107 79.96875 724.98047 C 79.304858 725.22337 78.597635 725.34766 77.890625 725.34766 C 77.183613 725.34766 76.476393 725.22337 75.8125 724.98047 C 75.158108 724.74107 74.546223 724.38645 74.011719 723.93945 C 73.469454 723.48595 73.007803 722.93652 72.654297 722.32422 C 72.300792 721.71192 72.055223 721.03614 71.933594 720.33984 C 71.813707 719.65354 71.813707 718.94657 71.933594 718.25977 C 72.055223 717.56307 72.300791 716.88824 72.654297 716.27734 C 73.007802 715.66644 73.469455 715.12081 74.011719 714.66211 C 74.546223 714.20991 75.158108 713.84149 75.8125 713.62109 C 76.476393 713.39739 77.183612 713.32591 77.890625 713.25391 z M 52.216797 745.08398 C 54.913214 745.35838 57.608477 745.63247 60.140625 746.48438 C 62.636513 747.32407 64.972879 748.72552 67.011719 750.44922 C 69.080179 752.19802 70.842901 754.27772 72.191406 756.60742 C 73.539909 758.93702 74.47547 761.51517 74.939453 764.17188 C 75.396791 766.79058 75.396791 769.48677 74.939453 772.10547 C 74.47547 774.76217 73.539911 777.34022 72.191406 779.66992 C 70.842903 781.99952 69.080178 784.08128 67.011719 785.83008 C 64.972879 787.55388 62.636513 788.95337 60.140625 789.79297 C 57.608477 790.64487 54.913214 790.91906 52.216797 791.19336 C 49.52038 790.91906 46.823164 790.64487 44.291016 789.79297 C 41.795128 788.95337 39.458763 787.55388 37.419922 785.83008 C 35.351462 784.08128 33.588738 781.99952 32.240234 779.66992 C 30.891731 777.34022 29.958124 774.76217 29.494141 772.10547 C 29.036803 769.48677 29.036803 766.79057 29.494141 764.17188 C 29.958124 761.51517 30.89173 758.93702 32.240234 756.60742 C 33.588738 754.27772 35.351462 752.19802 37.419922 750.44922 C 39.458762 748.72552 41.795127 747.32407 44.291016 746.48438 C 46.823164 745.63247 49.52038 745.35838 52.216797 745.08398 z M 58.289062 844.76172 C 59.836279 844.91903 61.382956 845.07771 62.835938 845.56641 C 64.268112 846.04812 65.609362 846.8508 66.779297 847.83984 C 67.96623 848.84325 68.976189 850.03827 69.75 851.375 C 70.52381 852.71174 71.059925 854.1904 71.326172 855.71484 C 71.588607 857.21744 71.588607 858.76302 71.326172 860.26562 C 71.059925 861.79005 70.52381 863.27069 69.75 864.60742 C 68.976189 865.94415 67.96623 867.13722 66.779297 868.14062 C 65.609363 869.12966 64.268112 869.93432 62.835938 870.41602 C 61.382955 870.90472 59.83628 871.06144 58.289062 871.21875 C 56.74184 871.06144 55.193216 870.90472 53.740234 870.41602 C 52.308061 869.93432 50.968763 869.12965 49.798828 868.14062 C 48.611894 867.13722 47.599982 865.94415 46.826172 864.60742 C 46.052361 863.27069 45.516247 861.79006 45.25 860.26562 C 44.987565 858.76303 44.987565 857.21744 45.25 855.71484 C 45.516247 854.1904 46.052361 852.71173 46.826172 851.375 C 47.599982 850.03827 48.611895 848.84325 49.798828 847.83984 C 50.968763 846.8508 52.30806 846.04812 53.740234 845.56641 C 55.193216 845.07771 56.741841 844.91903 58.289062 844.76172 z M 29.447266 914.89062 L 82.359375 914.89062 L 82.359375 1003.7109 L 29.447266 1003.7109 L 29.447266 914.89062 z M 52.216797 1015.6152 C 52.923807 1015.6875 53.631029 1015.7607 54.294922 1015.9844 C 54.949315 1016.2048 55.561199 1016.5712 56.095703 1017.0234 C 56.637968 1017.4821 57.099619 1018.0278 57.453125 1018.6387 C 57.80663 1019.2496 58.052199 1019.9263 58.173828 1020.623 C 58.293716 1021.3098 58.293716 1022.0168 58.173828 1022.7031 C 58.0522 1023.3994 57.806631 1024.0732 57.453125 1024.6855 C 57.099619 1025.2978 56.637968 1025.8492 56.095703 1026.3027 C 55.561199 1026.7497 54.949314 1027.1024 54.294922 1027.3418 C 53.631029 1027.5847 52.923808 1027.7109 52.216797 1027.7109 C 51.509785 1027.7109 50.802566 1027.5847 50.138672 1027.3418 C 49.48428 1027.1024 48.872395 1026.7497 48.337891 1026.3027 C 47.795627 1025.8492 47.332022 1025.2978 46.978516 1024.6855 C 46.625011 1024.0732 46.381395 1023.3994 46.259766 1022.7031 C 46.139877 1022.0168 46.139878 1021.3098 46.259766 1020.623 C 46.381396 1019.9263 46.62501 1019.2496 46.978516 1018.6387 C 47.332021 1018.0278 47.795628 1017.4821 48.337891 1017.0234 C 48.872395 1016.5712 49.48428 1016.2048 50.138672 1015.9844 C 50.802566 1015.7607 51.509787 1015.6872 52.216797 1015.6152 z M 77.890625 1015.6152 C 78.597635 1015.6875 79.304857 1015.7607 79.96875 1015.9844 C 80.623142 1016.2048 81.235027 1016.5712 81.769531 1017.0234 C 82.311795 1017.4821 82.773447 1018.0278 83.126953 1018.6387 C 83.480458 1019.2496 83.726027 1019.9263 83.847656 1020.623 C 83.967544 1021.3098 83.967544 1022.0168 83.847656 1022.7031 C 83.726027 1023.3994 83.480459 1024.0732 83.126953 1024.6855 C 82.773447 1025.2978 82.311795 1025.8492 81.769531 1026.3027 C 81.235027 1026.7497 80.623142 1027.1024 79.96875 1027.3418 C 79.304858 1027.5847 78.597635 1027.7109 77.890625 1027.7109 C 77.183613 1027.7109 76.476393 1027.5847 75.8125 1027.3418 C 75.158108 1027.1024 74.546223 1026.7497 74.011719 1026.3027 C 73.469454 1025.8492 73.007803 1025.2978 72.654297 1024.6855 C 72.300792 1024.0732 72.055223 1023.3994 71.933594 1022.7031 C 71.813707 1022.0168 71.813707 1021.3098 71.933594 1020.623 C 72.055223 1019.9263 72.300791 1019.2496 72.654297 1018.6387 C 73.007802 1018.0278 73.469455 1017.4821 74.011719 1017.0234 C 74.546223 1016.5712 75.158108 1016.2048 75.8125 1015.9844 C 76.476393 1015.7607 77.183612 1015.6872 77.890625 1015.6152 z M 52.216797 1047.4453 C 54.913214 1047.7197 57.608477 1047.9938 60.140625 1048.8457 C 62.636513 1049.6854 64.972879 1051.0868 67.011719 1052.8105 C 69.080179 1054.5593 70.842901 1056.641 72.191406 1058.9707 C 73.539909 1061.3003 74.47547 1063.8785 74.939453 1066.5352 C 75.396791 1069.1539 75.396791 1071.8481 74.939453 1074.4668 C 74.47547 1077.1235 73.539911 1079.7015 72.191406 1082.0312 C 70.842903 1084.3609 69.080178 1086.4426 67.011719 1088.1914 C 64.972879 1089.9152 62.636513 1091.3166 60.140625 1092.1562 C 57.608477 1093.0081 54.913214 1093.2823 52.216797 1093.5566 C 49.52038 1093.2823 46.823164 1093.0081 44.291016 1092.1562 C 41.795128 1091.3166 39.458763 1089.9152 37.419922 1088.1914 C 35.351462 1086.4426 33.588738 1084.3609 32.240234 1082.0312 C 30.891731 1079.7015 29.958124 1077.1235 29.494141 1074.4668 C 29.036803 1071.8481 29.036803 1069.1539 29.494141 1066.5352 C 29.958124 1063.8785 30.89173 1061.3003 32.240234 1058.9707 C 33.588738 1056.641 35.351462 1054.5593 37.419922 1052.8105 C 39.458762 1051.0868 41.795127 1049.6854 44.291016 1048.8457 C 46.823164 1047.9938 49.52038 1047.7197 52.216797 1047.4453 z "
       id="path32-7" />
  </g>
</svg>
