  0
SECTION
  2
HEADER
  9
$ACADVER
  1
AC1014
  9
$HANDSEED
  5
FFFF
  9
$MEASUREMENT
 70
     1
  0
ENDSEC
  0
SECTION
  2
TABLES
  0
TABLE
  2
VPORT
  5
8
330
0
100
AcDbSymbolTable
 70
     4
  0
VPORT
  5
2E
330
8
100
AcDbSymbolTableRecord
100
AcDbViewportTableRecord
  2
*ACTIVE
 70
     0
 10
0.0
 20
0.0
 11
1.0
 21
1.0
 12
210.0
 22
148.5
 13
0.0
 23
0.0
 14
10.0
 24
10.0
 15
10.0
 25
10.0
 16
0.0
 26
0.0
 36
1.0
 17
0.0
 27
0.0
 37
0.0
 40
341.0
 41
1.24
 42
50.0
 43
0.0
 44
0.0
 50
0.0
 51
0.0
 71
     0
 72
   100
 73
     1
 74
     3
 75
     0
 76
     0
 77
     0
 78
     0
  0
ENDTAB
  0
TABLE
  2
LTYPE
  5
5
330
0
100
AcDbSymbolTable
 70
     1
  0
LTYPE
  5
14
330
5
100
AcDbSymbolTableRecord
100
AcDbLinetypeTableRecord
  2
BYBLOCK
 70
     0
  3

 72
    65
 73
     0
 40
0.0
  0
LTYPE
  5
15
330
5
100
AcDbSymbolTableRecord
100
AcDbLinetypeTableRecord
  2
BYLAYER
 70
     0
  3

 72
    65
 73
     0
 40
0.0
  0
LTYPE
  5
16
330
5
100
AcDbSymbolTableRecord
100
AcDbLinetypeTableRecord
  2
CONTINUOUS
 70
     0
  3
Solid line
 72
    65
 73
     0
 40
0.0
  0
ENDTAB
  0
TABLE
  2
LAYER
  5
2
100
AcDbSymbolTable
 70
2
  0
LAYER
  5
50
100
AcDbSymbolTableRecord
100
AcDbLayerTableRecord
  2
0
 70
0
  6
CONTINUOUS
  0
LAYER
  5
51
100
AcDbSymbolTableRecord
100
AcDbLayerTableRecord
  2
not
 70
0
  6
CONTINUOUS
  0
ENDTAB
  0
TABLE
  2
STYLE
  5
3
330
0
100
AcDbSymbolTable
 70
     1
  0
STYLE
  5
11
330
3
100
AcDbSymbolTableRecord
100
AcDbTextStyleTableRecord
  2
STANDARD
 70
     0
 40
0.0
 41
1.0
 50
0.0
 71
     0
 42
2.5
  3
txt
  4

  0
ENDTAB
  0
TABLE
  2
VIEW
  5
6
330
0
100
AcDbSymbolTable
 70
     0
  0
ENDTAB
  0
TABLE
  2
UCS
  5
7
330
0
100
AcDbSymbolTable
 70
     0
  0
ENDTAB
  0
TABLE
  2
APPID
  5
9
330
0
100
AcDbSymbolTable
 70
     2
  0
APPID
  5
12
330
9
100
AcDbSymbolTableRecord
100
AcDbRegAppTableRecord
  2
ACAD
 70
     0
  0
ENDTAB
  0
TABLE
  2
DIMSTYLE
  5
A
330
0
100
AcDbSymbolTable
 70
     1
  0
DIMSTYLE
105
27
330
A
100
AcDbSymbolTableRecord
100
AcDbDimStyleTableRecord
  2
ISO-25
 70
     0
  3

  4

  5

  6

  7

 40
1.0
 41
2.5
 42
0.625
 43
3.75
 44
1.25
 45
0.0
 46
0.0
 47
0.0
 48
0.0
140
2.5
141
2.5
142
0.0
143
0.03937007874016
144
1.0
145
0.0
146
1.0
147
0.625
 71
     0
 72
     0
 73
     0
 74
     0
 75
     0
 76
     0
 77
     1
 78
     8
170
     0
171
     3
172
     1
173
     0
174
     0
175
     0
176
     0
177
     0
178
     0
270
     2
271
     2
272
     2
273
     2
274
     3
340
11
275
     0
280
     0
281
     0
282
     0
283
     0
284
     8
285
     0
286
     0
287
     3
288
     0
  0
ENDTAB
  0
TABLE
  2
BLOCK_RECORD
  5
1
330
0
100
AcDbSymbolTable
 70
     1
  0
BLOCK_RECORD
  5
1F
330
1
100
AcDbSymbolTableRecord
100
AcDbBlockTableRecord
  2
*MODEL_SPACE
  0
BLOCK_RECORD
  5
1B
330
1
100
AcDbSymbolTableRecord
100
AcDbBlockTableRecord
  2
*PAPER_SPACE
  0
ENDTAB
  0
ENDSEC
  0
SECTION
  2
BLOCKS
  0
BLOCK
  5
20
330
1F
100
AcDbEntity
  8
0
100
AcDbBlockBegin
  2
*MODEL_SPACE
 70
     0
 10
0.0
 20
0.0
 30
0.0
  3
*MODEL_SPACE
  1

  0
ENDBLK
  5
21
330
1F
100
AcDbEntity
  8
0
100
AcDbBlockEnd
  0
BLOCK
  5
1C
330
1B
100
AcDbEntity
 67
     1
  8
0
100
AcDbBlockBegin
  2
*PAPER_SPACE
  1

  0
ENDBLK
  5
1D
330
1B
100
AcDbEntity
 67
     1
  8
0
100
AcDbBlockEnd
  0
ENDSEC
  0
SECTION
  2
ENTITIES
  0
LWPOLYLINE
  5
100
100
AcDbEntity
  8
0
 62
7
100
AcDbPolyline
 90
7
 70
1
 10
7.332293
 20
113.305351
 30
0.0
 10
27.076040
 20
113.305351
 30
0.0
 10
27.076040
 20
85.561605
 30
0.0
 10
7.332293
 20
85.561605
 30
0.0
 10
7.332293
 20
113.305351
 30
0.0
 10
7.332293
 20
113.305351
 30
0.0
 10
7.332293
 20
113.305351
 30
0.0
  0
LWPOLYLINE
  5
101
100
AcDbEntity
  8
0
 62
7
100
AcDbPolyline
 90
78
 70
1
 10
18.166563
 20
119.433482
 30
0.0
 10
18.163441
 20
119.355915
 30
0.0
 10
18.154099
 20
119.278967
 30
0.0
 10
18.138540
 20
119.202838
 30
0.0
 10
18.116966
 20
119.128463
 30
0.0
 10
18.089567
 20
119.056270
 30
0.0
 10
18.056348
 20
118.986272
 30
0.0
 10
18.017528
 20
118.919037
 30
0.0
 10
17.973657
 20
118.855462
 30
0.0
 10
17.924650
 20
118.795403
 30
0.0
 10
17.871070
 20
118.739585
 30
0.0
 10
17.813003
 20
118.688119
 30
0.0
 10
17.750758
 20
118.641355
 30
0.0
 10
17.685365
 20
118.600020
 30
0.0
 10
17.616629
 20
118.563941
 30
0.0
 10
17.545319
 20
118.533558
 30
0.0
 10
17.471610
 20
118.508967
 30
0.0
 10
17.396413
 20
118.490463
 30
0.0
 10
17.320192
 20
118.478095
 30
0.0
 10
17.242963
 20
118.471865
 30
0.0
 10
17.165326
 20
118.471867
 30
0.0
 10
17.088333
 20
118.478072
 30
0.0
 10
17.011818
 20
118.490484
 30
0.0
 10
16.936687
 20
118.508977
 30
0.0
 10
16.863082
 20
118.533532
 30
0.0
 10
16.791462
 20
118.564056
 30
0.0
 10
16.722968
 20
118.600020
 30
0.0
 10
16.657354
 20
118.641507
 30
0.0
 10
16.595387
 20
118.688072
 30
0.0
 10
16.537236
 20
118.739611
 30
0.0
 10
16.483613
 20
118.795482
 30
0.0
 10
16.434791
 20
118.855307
 30
0.0
 10
16.390781
 20
118.919074
 30
0.0
 10
16.351964
 20
118.986311
 30
0.0
 10
16.318842
 20
119.056092
 30
0.0
 10
16.291333
 20
119.128562
 30
0.0
 10
16.269783
 20
119.202874
 30
0.0
 10
16.254245
 20
119.278895
 30
0.0
 10
16.244870
 20
119.356182
 30
0.0
 10
16.241769
 20
119.433482
 30
0.0
 10
16.244891
 20
119.511048
 30
0.0
 10
16.254234
 20
119.587996
 30
0.0
 10
16.269792
 20
119.664125
 30
0.0
 10
16.291366
 20
119.738500
 30
0.0
 10
16.318766
 20
119.810693
 30
0.0
 10
16.351984
 20
119.880691
 30
0.0
 10
16.390804
 20
119.947926
 30
0.0
 10
16.434675
 20
120.011501
 30
0.0
 10
16.483682
 20
120.071560
 30
0.0
 10
16.537263
 20
120.127378
 30
0.0
 10
16.595330
 20
120.178844
 30
0.0
 10
16.657575
 20
120.225608
 30
0.0
 10
16.722968
 20
120.266943
 30
0.0
 10
16.791704
 20
120.303022
 30
0.0
 10
16.863014
 20
120.333404
 30
0.0
 10
16.936723
 20
120.357995
 30
0.0
 10
17.011920
 20
120.376498
 30
0.0
 10
17.088141
 20
120.388866
 30
0.0
 10
17.165370
 20
120.395096
 30
0.0
 10
17.243007
 20
120.395094
 30
0.0
 10
17.320000
 20
120.388889
 30
0.0
 10
17.396515
 20
120.376477
 30
0.0
 10
17.471646
 20
120.357984
 30
0.0
 10
17.545250
 20
120.333431
 30
0.0
 10
17.616871
 20
120.302907
 30
0.0
 10
17.685365
 20
120.266943
 30
0.0
 10
17.750978
 20
120.225456
 30
0.0
 10
17.812946
 20
120.178891
 30
0.0
 10
17.871096
 20
120.127352
 30
0.0
 10
17.924720
 20
120.071481
 30
0.0
 10
17.973541
 20
120.011656
 30
0.0
 10
18.017551
 20
119.947889
 30
0.0
 10
18.056368
 20
119.880652
 30
0.0
 10
18.089491
 20
119.810872
 30
0.0
 10
18.116999
 20
119.738401
 30
0.0
 10
18.138549
 20
119.664089
 30
0.0
 10
18.154087
 20
119.588069
 30
0.0
 10
18.163462
 20
119.510781
 30
0.0
  0
SPLINE
  5
102
100
AcDbEntity
  8
not
 62
7
100
AcDbSpline
 70
8
 71
3
 72
8
 73
4
 74
0
 40
0
 40
0
 40
0
 40
0
 40
1
 40
1
 40
1
 40
1
 10
0.146804
 20
147.985783
 30
0.0
 10
0.146804
 20
131.623140
 30
0.0
 10
0.146804
 20
115.260494
 30
0.0
 10
0.146804
 20
98.897849
 30
0.0
  0
SPLINE
  5
103
100
AcDbEntity
  8
not
 62
7
100
AcDbSpline
 70
8
 71
3
 72
8
 73
4
 74
0
 40
0
 40
0
 40
0
 40
0
 40
1
 40
1
 40
1
 40
1
 10
0.146804
 20
98.897849
 30
0.0
 10
0.146804
 20
82.343481
 30
0.0
 10
0.146804
 20
65.789108
 30
0.0
 10
0.146804
 20
49.234740
 30
0.0
  0
SPLINE
  5
104
100
AcDbEntity
  8
not
 62
7
100
AcDbSpline
 70
8
 71
3
 72
8
 73
4
 74
0
 40
0
 40
0
 40
0
 40
0
 40
1
 40
1
 40
1
 40
1
 10
0.146804
 20
49.234740
 30
0.0
 10
0.146804
 20
32.872097
 30
0.0
 10
0.146804
 20
16.509467
 30
0.0
 10
0.146804
 20
0.146813
 30
0.0
  0
SPLINE
  5
105
100
AcDbEntity
  8
not
 62
7
100
AcDbSpline
 70
8
 71
3
 72
8
 73
4
 74
0
 40
0
 40
0
 40
0
 40
0
 40
1
 40
1
 40
1
 40
1
 10
29.867775
 20
0.146813
 30
0.0
 10
29.867775
 20
16.509467
 30
0.0
 10
29.867775
 20
32.872097
 30
0.0
 10
29.867775
 20
49.234740
 30
0.0
  0
SPLINE
  5
106
100
AcDbEntity
  8
not
 62
7
100
AcDbSpline
 70
8
 71
3
 72
8
 73
4
 74
0
 40
0
 40
0
 40
0
 40
0
 40
1
 40
1
 40
1
 40
1
 10
29.867775
 20
49.234740
 30
0.0
 10
29.867775
 20
65.789108
 30
0.0
 10
29.867775
 20
82.343481
 30
0.0
 10
29.867775
 20
98.897849
 30
0.0
  0
SPLINE
  5
107
100
AcDbEntity
  8
not
 62
7
100
AcDbSpline
 70
8
 71
3
 72
8
 73
4
 74
0
 40
0
 40
0
 40
0
 40
0
 40
1
 40
1
 40
1
 40
1
 10
29.867775
 20
98.897849
 30
0.0
 10
29.867775
 20
115.260494
 30
0.0
 10
29.867775
 20
131.623140
 30
0.0
 10
29.867775
 20
147.985783
 30
0.0
  0
LWPOLYLINE
  5
108
100
AcDbEntity
  8
0
 62
7
100
AcDbPolyline
 90
78
 70
1
 10
18.175146
 20
79.433482
 30
0.0
 10
18.171996
 20
79.355224
 30
0.0
 10
18.162570
 20
79.277590
 30
0.0
 10
18.146873
 20
79.200782
 30
0.0
 10
18.125107
 20
79.125744
 30
0.0
 10
18.097463
 20
79.052907
 30
0.0
 10
18.063948
 20
78.982285
 30
0.0
 10
18.024782
 20
78.914451
 30
0.0
 10
17.980520
 20
78.850309
 30
0.0
 10
17.931076
 20
78.789715
 30
0.0
 10
17.877017
 20
78.733398
 30
0.0
 10
17.818433
 20
78.681473
 30
0.0
 10
17.755632
 20
78.634293
 30
0.0
 10
17.689656
 20
78.592589
 30
0.0
 10
17.620307
 20
78.556188
 30
0.0
 10
17.548362
 20
78.525534
 30
0.0
 10
17.473995
 20
78.500724
 30
0.0
 10
17.398127
 20
78.482055
 30
0.0
 10
17.321227
 20
78.469577
 30
0.0
 10
17.243309
 20
78.463291
 30
0.0
 10
17.164979
 20
78.463293
 30
0.0
 10
17.087300
 20
78.469554
 30
0.0
 10
17.010102
 20
78.482076
 30
0.0
 10
16.934301
 20
78.500734
 30
0.0
 10
16.860040
 20
78.525508
 30
0.0
 10
16.787781
 20
78.556304
 30
0.0
 10
16.718676
 20
78.592589
 30
0.0
 10
16.652477
 20
78.634446
 30
0.0
 10
16.589957
 20
78.681426
 30
0.0
 10
16.531288
 20
78.733424
 30
0.0
 10
16.477186
 20
78.789794
 30
0.0
 10
16.427930
 20
78.850153
 30
0.0
 10
16.383527
 20
78.914488
 30
0.0
 10
16.344364
 20
78.982325
 30
0.0
 10
16.310946
 20
79.052727
 30
0.0
 10
16.283192
 20
79.125844
 30
0.0
 10
16.261450
 20
79.200818
 30
0.0
 10
16.245774
 20
79.277517
 30
0.0
 10
16.236314
 20
79.355493
 30
0.0
 10
16.233186
 20
79.433482
 30
0.0
 10
16.236336
 20
79.511740
 30
0.0
 10
16.245762
 20
79.589375
 30
0.0
 10
16.261459
 20
79.666183
 30
0.0
 10
16.283225
 20
79.741221
 30
0.0
 10
16.310869
 20
79.814058
 30
0.0
 10
16.344384
 20
79.884680
 30
0.0
 10
16.383551
 20
79.952515
 30
0.0
 10
16.427812
 20
80.016657
 30
0.0
 10
16.477256
 20
80.077251
 30
0.0
 10
16.531315
 20
80.133567
 30
0.0
 10
16.589900
 20
80.185492
 30
0.0
 10
16.652700
 20
80.232672
 30
0.0
 10
16.718676
 20
80.274376
 30
0.0
 10
16.788025
 20
80.310777
 30
0.0
 10
16.859971
 20
80.341430
 30
0.0
 10
16.934337
 20
80.366240
 30
0.0
 10
17.010205
 20
80.384909
 30
0.0
 10
17.087106
 20
80.397387
 30
0.0
 10
17.165024
 20
80.403673
 30
0.0
 10
17.243353
 20
80.403671
 30
0.0
 10
17.321033
 20
80.397410
 30
0.0
 10
17.398231
 20
80.384888
 30
0.0
 10
17.474031
 20
80.366230
 30
0.0
 10
17.548292
 20
80.341457
 30
0.0
 10
17.620551
 20
80.310661
 30
0.0
 10
17.689656
 20
80.274376
 30
0.0
 10
17.755855
 20
80.232519
 30
0.0
 10
17.818375
 20
80.185539
 30
0.0
 10
17.877045
 20
80.133541
 30
0.0
 10
17.931146
 20
80.077172
 30
0.0
 10
17.980403
 20
80.016813
 30
0.0
 10
18.024806
 20
79.952477
 30
0.0
 10
18.063969
 20
79.884641
 30
0.0
 10
18.097386
 20
79.814238
 30
0.0
 10
18.125140
 20
79.741121
 30
0.0
 10
18.146882
 20
79.666146
 30
0.0
 10
18.162558
 20
79.589448
 30
0.0
 10
18.172018
 20
79.511471
 30
0.0
  0
LWPOLYLINE
  5
109
100
AcDbEntity
  8
not
 62
7
100
AcDbPolyline
 90
2
 70
0
 10
0.146804
 20
0.146813
 30
0.0
 10
29.867775
 20
0.146813
 30
0.0
  0
LWPOLYLINE
  5
10a
100
AcDbEntity
  8
not
 62
7
100
AcDbPolyline
 90
2
 70
0
 10
29.867775
 20
147.985783
 30
0.0
 10
0.146804
 20
147.985783
 30
0.0
  0
ENDSEC
  0
SECTION
  2
OBJECTS
  0
DICTIONARY
  5
C
330
0
100
AcDbDictionary
  3
ACAD_GROUP
350
D
  3
ACAD_MLINESTYLE
350
17
  0
DICTIONARY
  5
D
330
C
100
AcDbDictionary
  0
DICTIONARY
  5
1A
330
C
100
AcDbDictionary
  0
DICTIONARY
  5
17
330
C
100
AcDbDictionary
  3
STANDARD
350
18
  0
DICTIONARY
  5
19
330
C
100
AcDbDictionary
  0
ENDSEC
  0
EOF
